<?xml version="1.0" encoding="UTF-8"?>
<svg width="80px" height="80px" viewBox="0 0 80 80" version="1.1" xmlns="http://www.w3.org/2000/svg" xmlns:xlink="http://www.w3.org/1999/xlink">
    <!-- Generator: Sketch 55.1 (78136) - https://sketchapp.com -->
    <title>icon/purchases/returns_rounded</title>
    <desc>Created with Sketch.</desc>
    <defs>
        <polygon id="path-1" points="5.60870631e-06 0.629 45.3487 0.629 45.3487 49 5.60870631e-06 49"></polygon>
    </defs>
    <g id="icon/purchases/returns" stroke="none" stroke-width="1" fill="none" fill-rule="evenodd">
        <circle id="Oval" fill="#FFE3F1" cx="40" cy="40" r="29"></circle>
        <g id="Group-43" transform="translate(17.000000, 15.000000)">
            <path d="M1.0001,28.2787 L10.9071,22.8827" id="Fill-1" fill="#000000"></path>
            <path d="M2.6046,21.9067 L10.9076,17.3027" id="Fill-2" fill="#000000"></path>
            <path d="M8.256,48.3715 L29.884,36.4645" id="Fill-3" fill="#000000"></path>
            <path d="M19.9767,35.9067 L29.8837,30.5107" id="Fill-4" fill="#000000"></path>
            <g id="Group-42" transform="translate(0.000000, 0.371500)">
                <g id="Group-7">
                    <mask id="mask-2" fill="white">
                        <use xlink:href="#path-1"></use>
                    </mask>
                    <g id="Clip-6"></g>
                    <path d="M21.4747,18.9912 L37.7327,9.5612 L42.3537,12.2292 L26.1117,21.6692 L21.4747,18.9912 Z M25.0867,31.6132 L19.4977,34.6572 C19.0137,34.9212 18.8337,35.5282 19.0987,36.0132 C19.2797,36.3462 19.6227,36.5352 19.9777,36.5352 C20.1387,36.5352 20.3027,36.4962 20.4547,36.4132 L25.0807,33.8932 L25.0707,37.6012 L20.1327,40.3192 L8.6967,33.7172 L8.7217,24.8412 L8.7297,24.8362 L8.7377,19.2782 L8.7457,19.2732 L8.7517,13.9562 L12.3227,16.0172 L12.9677,16.3892 L12.9417,25.6272 L14.3877,26.4622 L15.9077,26.1392 L17.2277,28.1012 L19.1867,28.1632 L20.8377,30.1862 L20.8647,20.9492 L25.1107,23.4002 L25.0867,31.6132 Z M25.0547,43.1612 L22.1577,41.4882 L25.0637,39.8872 L25.0547,43.1612 Z M25.9957,2.7842 L30.5517,5.4152 L14.2927,14.8452 L9.7517,12.2232 L25.9957,2.7842 Z M42.0877,14.6972 L43.2117,14.0442 L43.3437,14.1302 L43.3387,15.5162 L42.0877,14.6972 Z M40.7197,15.4912 L41.8447,14.8382 L43.3387,15.8172 L43.3347,17.2052 L40.7197,15.4912 Z M27.1617,38.7322 L28.3157,38.0972 L31.8097,40.3872 L30.6847,41.0412 L27.1617,38.7322 Z M27.0767,35.5952 L27.8247,36.0852 L27.0737,36.4982 L27.0767,35.5952 Z M27.0997,27.1572 L30.2657,29.2312 C29.9957,29.1182 29.6847,29.1092 29.4057,29.2622 L28.7427,29.6232 L28.7297,29.6142 L28.7137,29.6382 L27.3327,30.3902 L27.0907,30.2322 L27.0957,28.8452 L28.3717,29.6802 L28.5097,29.4702 L27.0957,28.5452 L27.0997,27.1572 Z M29.2177,41.7702 L29.0877,41.9692 L27.9507,42.6302 L27.2597,42.1782 L27.1217,42.3882 L27.7067,42.7712 L27.0547,43.1502 L27.0617,40.6582 L28.8617,41.8372 L28.9987,41.6272 L27.0627,40.3582 L27.0667,38.9702 L30.4427,41.1812 L29.3177,41.8352 L29.2177,41.7702 Z M43.3287,19.1922 L43.3257,20.5802 L40.8037,18.9282 L40.6657,19.1372 L43.3247,20.8802 L43.3207,22.2672 L38.8457,19.3362 L38.7077,19.5462 L43.2197,22.5032 L43.3207,22.3492 L43.3157,23.9552 L41.6197,22.8442 L41.4817,23.0532 L43.3147,24.2552 L43.3107,25.6422 L39.6617,23.2522 L39.5237,23.4622 L43.3097,25.9422 L43.3057,27.3312 L42.4347,26.7602 L42.2967,26.9702 L43.3057,27.6312 L43.3017,29.0182 L40.4777,27.1682 L40.3387,27.3782 L43.3007,29.3182 L43.2967,30.7062 L43.2507,30.6762 L43.1137,30.8862 L43.2957,31.0062 L43.2917,32.3932 L41.2927,31.0842 L41.1557,31.2942 L43.2907,32.6932 L43.2877,33.7172 L42.9937,33.8882 L39.3347,31.4912 L39.1977,31.7022 L42.7497,34.0292 L41.6247,34.6822 L37.3767,31.8992 L37.2397,32.1092 L41.3817,34.8242 L40.2577,35.4772 L40.1507,35.4072 L40.0127,35.6182 L40.0147,35.6192 L38.8907,36.2722 L38.1927,35.8152 L38.0547,36.0252 L38.6477,36.4142 L37.5227,37.0672 L36.2347,36.2222 L36.0967,36.4332 L37.2797,37.2082 L36.1557,37.8622 L34.2767,36.6312 L34.1387,36.8412 L35.9127,38.0032 L34.7877,38.6562 L32.3187,37.0392 L32.1807,37.2492 L34.5447,38.7982 L33.4197,39.4512 L30.3607,37.4462 L30.2227,37.6572 L33.1767,39.5932 L32.0527,40.2462 L28.5647,37.9612 L29.7177,37.3262 L30.0027,37.5122 L30.1407,37.3032 L29.9667,37.1882 L30.3667,36.9692 C30.6077,36.8362 30.7717,36.6182 30.8437,36.3732 L31.9607,37.1052 L32.0987,36.8942 L30.8707,36.0902 C30.8697,35.9272 30.8437,35.7622 30.7597,35.6102 C30.5107,35.1562 29.9617,34.9892 29.4947,35.1882 L27.5867,33.9382 L27.4497,34.1482 L29.2267,35.3132 L28.0737,35.9482 L27.0777,35.2952 L27.0807,33.9072 L27.2297,34.0052 L27.3677,33.7952 L27.0817,33.6072 L27.0837,32.8032 L27.5717,32.5382 L29.1877,33.5962 L29.3257,33.3872 L27.8217,32.4012 L28.9807,31.7702 L31.1457,33.1892 L31.2837,32.9782 L29.2307,31.6342 L30.3627,31.0172 C30.3707,31.0122 30.3757,31.0042 30.3837,30.9992 L33.1037,32.7812 L33.2417,32.5712 L30.5847,30.8312 C30.8857,30.5252 30.9777,30.0572 30.7617,29.6612 C30.7117,29.5682 30.6397,29.4982 30.5677,29.4292 L35.0617,32.3742 L35.1997,32.1632 L30.6877,29.2072 L30.5527,29.4112 C30.4877,29.3502 30.4127,29.3072 30.3337,29.2662 L30.4677,29.0632 L27.1007,26.8572 L27.1047,25.4702 L27.5567,25.7642 L27.6947,25.5542 L27.1057,25.1692 L27.1097,23.7812 L29.5147,25.3572 L29.6527,25.1472 L27.1107,23.4812 L27.1107,23.4002 L28.1687,22.7852 L31.4727,24.9492 L31.6107,24.7392 L28.4117,22.6432 L29.5377,21.9902 L33.4307,24.5422 L33.5687,24.3312 L29.7807,21.8492 L30.9047,21.1962 L35.3887,24.1342 L35.5267,23.9242 L31.1477,21.0542 L32.2727,20.4012 L32.6147,20.6262 L32.7517,20.4152 L32.5147,20.2602 L33.6397,19.6062 L34.5727,20.2182 L34.7097,20.0082 L33.8827,19.4652 L35.0067,18.8112 L36.5307,19.8092 L36.6677,19.5992 L35.2497,18.6712 L36.3747,18.0162 L38.4887,19.4022 L38.6257,19.1922 L36.6177,17.8762 L37.7427,17.2222 L40.4467,18.9942 L40.5837,18.7842 L37.9857,17.0812 L39.1097,16.4282 L42.4047,18.5872 L42.5417,18.3762 L39.3527,16.2862 L40.4777,15.6332 L43.3337,17.5052 L43.3297,18.8922 L42.7617,18.5202 L42.6237,18.7302 L43.3287,19.1922 Z M45.3487,12.2252 C45.3487,12.1882 45.3377,12.1522 45.3337,12.1162 C45.3287,12.0652 45.3277,12.0132 45.3137,11.9662 C45.3087,11.9482 45.2987,11.9332 45.2937,11.9172 C45.2727,11.8512 45.2487,11.7862 45.2137,11.7252 C45.2117,11.7212 45.2077,11.7192 45.2047,11.7152 C45.1627,11.6442 45.1147,11.5792 45.0567,11.5202 C44.9957,11.4592 44.9257,11.4052 44.8487,11.3602 L26.4937,0.7622 C26.1837,0.5842 25.8017,0.5832 25.4907,0.7642 L7.2617,11.3572 C7.2607,11.3582 7.2587,11.3582 7.2577,11.3592 C7.2567,11.3602 7.2557,11.3612 7.2537,11.3622 C7.2457,11.3672 7.2407,11.3742 7.2327,11.3792 C7.1657,11.4202 7.1027,11.4672 7.0477,11.5212 C7.0037,11.5662 6.9687,11.6182 6.9337,11.6712 C6.9207,11.6892 6.9037,11.7062 6.8917,11.7252 C6.8587,11.7822 6.8367,11.8452 6.8167,11.9062 C6.8097,11.9272 6.7977,11.9442 6.7917,11.9642 C6.7787,12.0142 6.7767,12.0682 6.7707,12.1212 C6.7667,12.1552 6.7567,12.1882 6.7567,12.2232 L6.7407,18.0972 L2.1197,20.6602 C1.6367,20.9282 1.4617,21.5372 1.7297,22.0202 C1.9127,22.3492 2.2537,22.5352 2.6057,22.5352 C2.7697,22.5352 2.9357,22.4952 3.0897,22.4102 L6.7337,20.3892 L6.7247,23.6512 L0.5217,27.0292 C0.0377,27.2932 -0.1423,27.9002 0.1217,28.3862 C0.3027,28.7192 0.6467,28.9072 1.0007,28.9072 C1.1627,28.9072 1.3267,28.8682 1.4787,28.7852 L6.7177,25.9312 L6.6947,34.2902 C6.6937,34.6482 6.8837,34.9792 7.1947,35.1592 L18.0847,41.4472 L7.7737,47.1242 C7.2897,47.3902 7.1137,47.9982 7.3797,48.4822 C7.5617,48.8132 7.9047,49.0002 8.2567,49.0002 C8.4197,49.0002 8.5847,48.9602 8.7387,48.8762 L20.1097,42.6162 L25.5497,45.7572 C25.7037,45.8452 25.8767,45.8902 26.0497,45.8902 C26.1367,45.8902 26.2227,45.8792 26.3077,45.8562 C26.3117,45.8552 26.3157,45.8522 26.3207,45.8512 C26.3997,45.8302 26.4767,45.8002 26.5487,45.7582 C26.5497,45.7572 26.5507,45.7562 26.5527,45.7552 L44.7887,35.1572 C45.0957,34.9792 45.2857,34.6512 45.2867,34.2962 L45.3487,12.2292 L45.3487,12.2272 L45.3487,12.2252 Z" id="Fill-5" fill="#00263E" mask="url(#mask-2)"></path>
                </g>
                <polygon id="Fill-8" fill="#00263E" points="36.7501 19.9541 41.2631 22.9101 41.4001 22.7001 36.8881 19.7431"></polygon>
                <polygon id="Fill-10" fill="#00263E" points="37.5656 23.8701 42.0786 26.8261 42.2156 26.6161 37.7036 23.6591"></polygon>
                <polygon id="Fill-12" fill="#00263E" points="38.382 27.7861 42.894 30.7421 43.031 30.5321 38.52 27.5751"></polygon>
                <polygon id="Fill-14" fill="#00263E" points="39.4425 23.1084 34.9295 20.1514 34.7925 20.3614 39.3035 23.3184"></polygon>
                <polygon id="Fill-16" fill="#00263E" points="37.4845 23.5156 32.9715 20.5596 32.8345 20.7696 37.3465 23.7256"></polygon>
                <polygon id="Fill-18" fill="#00263E" points="35.6075 24.2773 40.1205 27.2343 40.2575 27.0233 35.7455 24.0673"></polygon>
                <polygon id="Fill-20" fill="#00263E" points="38.2999 27.4316 33.7869 24.4756 33.6499 24.6856 38.1619 27.6416"></polygon>
                <polygon id="Fill-22" fill="#00263E" points="36.424 28.1934 40.936 31.1504 41.073 30.9394 36.562 27.9834"></polygon>
                <polygon id="Fill-24" fill="#00263E" points="34.4659 28.6016 38.9779 31.5576 39.1149 31.3476 34.6039 28.3916"></polygon>
                <polygon id="Fill-26" fill="#00263E" points="35.2814 32.5176 39.7934 35.4736 39.9304 35.2636 35.4194 32.3076"></polygon>
                <polygon id="Fill-28" fill="#00263E" points="36.3419 27.8398 31.8289 24.8828 31.6919 25.0928 36.2039 28.0498"></polygon>
                <polygon id="Fill-30" fill="#00263E" points="34.3839 28.2471 29.8719 25.2911 29.7339 25.5011 34.2459 28.4581"></polygon>
                <polygon id="Fill-32" fill="#00263E" points="37.1573 31.7559 32.6453 28.7989 32.5083 29.0089 37.0193 31.9659"></polygon>
                <polygon id="Fill-34" fill="#00263E" points="33.3234 32.9248 37.8354 35.8818 37.9724 35.6718 33.4614 32.7148"></polygon>
                <polygon id="Fill-36" fill="#00263E" points="31.3654 33.333 35.8774 36.289 36.0144 36.079 31.5034 33.123"></polygon>
                <polygon id="Fill-38" fill="#00263E" points="27.7755 25.9092 32.2885 28.8652 32.4255 28.6552 27.9135 25.6982"></polygon>
                <polygon id="Fill-40" fill="#00263E" points="29.4073 33.7412 33.9193 36.6972 34.0563 36.4872 29.5453 33.5302"></polygon>
            </g>
        </g>
    </g>
</svg>