<?xml version="1.0" encoding="UTF-8"?>
<svg width="24px" height="24px" viewBox="0 0 24 24" version="1.1" xmlns="http://www.w3.org/2000/svg" xmlns:xlink="http://www.w3.org/1999/xlink">
    <!-- Generator: Sketch 55 (78076) - https://sketchapp.com -->
    <title>icon-download_rounded</title>
    <desc>Created with Sketch.</desc>
    <g id="icon-download" stroke="none" stroke-width="1" fill="none" fill-rule="evenodd">
        <path d="M16.59,9.5 L15,9.5 L15,4.5 C15,3.95 14.55,3.5 14,3.5 L10,3.5 C9.45,3.5 9,3.95 9,4.5 L9,9.5 L7.41,9.5 C6.52,9.5 6.07,10.58 6.7,11.21 L11.29,15.8 C11.68,16.19 12.31,16.19 12.7,15.8 L17.29,11.21 C17.92,10.58 17.48,9.5 16.59,9.5 Z M5,19.5 C5,20.05 5.45,20.5 6,20.5 L18,20.5 C18.55,20.5 19,20.05 19,19.5 C19,18.95 18.55,18.5 18,18.5 L6,18.5 C5.45,18.5 5,18.95 5,19.5 Z" id="icon/file/download_24px" fill="#00263E" fill-rule="nonzero"></path>
    </g>
</svg>