<?xml version="1.0" encoding="UTF-8"?>
<svg width="24px" height="24px" viewBox="0 0 24 24" version="1.1" xmlns="http://www.w3.org/2000/svg" xmlns:xlink="http://www.w3.org/1999/xlink">
    <!-- Generator: Sketch 55 (78076) - https://sketchapp.com -->
    <title>icon-eyecon_rounded</title>
    <desc>Created with Sketch.</desc>
    <g id="icon-eyecon" stroke="none" stroke-width="1" fill="none" fill-rule="evenodd">
        <g id="eyecon">
            <path d="M20.3496318,3.49106225 C15.6950623,-1.16366623 8.14682384,-1.16366623 3.49209536,3.49106225 C-1.16406358,8.14579073 -1.16406358,15.6938702 3.49209536,20.3500291 C8.14682384,25.0047576 15.6950623,25.0047576 20.3496318,20.3500291 C25.0062675,15.6938702 25.0062675,8.14579073 20.3496318,3.49106225" id="Fill-1" fill="#FFFFFF"></path>
            <path d="M17.6811656,20.208445 C21.3269404,16.5626702 21.1382781,10.4604715 17.2596556,6.58121325 C13.3802384,2.70195497 7.27819868,2.5136106 3.6322649,6.15906755 C-0.0149403974,9.80690861 0.173721854,15.9072 4.0544106,19.7880477 C7.93319205,23.6669881 14.0339603,23.8556503 17.6811656,20.208445 Z M3.49207947,3.49109404 C8.14680795,-1.16363444 15.6950464,-1.16363444 20.3496159,3.49109404 C25.0062517,8.14566358 25.0062517,15.693902 20.3496159,20.3500609 C15.6950464,25.0047894 8.14680795,25.0047894 3.49207947,20.3500609 C-1.16407947,15.693902 -1.16407947,8.14566358 3.49207947,3.49109404 Z M12.7630093,19.5062464 C14.6259497,17.6452132 14.248943,14.2478623 11.921102,11.9197033 C9.59278411,9.59313377 6.19543311,9.21485563 4.3344,11.077796 C2.47336689,12.9388291 2.85021457,16.3357033 5.17662517,18.6640212 C7.50494305,20.9904318 10.9019762,21.3693457 12.7630093,19.5062464 Z M14.4488901,9.39127947 C17.5526781,12.4950675 17.8680159,17.2114649 15.1514066,19.9279152 C12.4363868,22.6429351 7.71808212,22.3277563 4.61477086,19.2258755 C1.51241325,16.1225642 1.19723444,11.4042596 3.9122543,8.68923974 C6.6293404,5.97231258 11.3457377,6.28765033 14.4488901,9.39127947 Z M8.40891656,18.2420185 C8.79704901,17.8532503 8.4818702,16.9112106 7.7064,16.1338331 C6.92949934,15.3583629 5.9874596,15.0450914 5.59869139,15.4317934 C5.2119894,15.8205616 5.52526093,16.7643497 6.30089007,17.5398199 C7.07779073,18.3152901 8.02030728,18.6306278 8.40891656,18.2420185 Z M9.6728106,14.1678993 C11.2256583,15.7188397 11.602506,17.8584954 10.5150358,18.9440583 C9.42899603,20.0296212 7.29140662,19.6530914 5.74030728,18.1016742 C4.18761854,16.5494623 3.81061192,14.4110781 4.89665166,13.3255152 C5.98221457,12.238204 8.11996291,12.6169589 9.6728106,14.1678993 Z" id="Combined-Shape" fill="#FF3EB5"></path>
        </g>
    </g>
</svg>