<svg id="Layer_1" data-name="Layer 1" xmlns="http://www.w3.org/2000/svg" viewBox="0 0 80 80"><title>popwallet-repositionable-icon</title><circle cx="63.09" cy="48.37" r="11.89" style="fill:#ff99d1"/><path d="M74.92,29.9,59,5.25a1.52,1.52,0,0,0-1.35-.77,1.45,1.45,0,0,0-1.18.93l-.2.34a1.37,1.37,0,0,0-.8-.18,1.63,1.63,0,0,0-1.32,1.09L46.83,24.09a3.69,3.69,0,0,0,.26,3.19L63,51.94a1.62,1.62,0,0,0,1.34.83h.12a1.64,1.64,0,0,0,1.33-1.09l.16-.38a1.36,1.36,0,0,0,.56.14h.1a1.53,1.53,0,0,0,1.23-1l1.9-4.52a4,4,0,0,0-.19-2.84,10.49,10.49,0,0,0-.75-1.2l.87-2.06a1.23,1.23,0,0,0,.27,0,1.57,1.57,0,0,0,1.29-1.06l.18-.42a1.32,1.32,0,0,0,.58.15h.1a1.48,1.48,0,0,0,1.19-1L75.18,33A3.62,3.62,0,0,0,74.92,29.9ZM66.64,40.34c0-.07,0-.15,0-.21a5.31,5.31,0,0,1,.12-.6c.23-.83.6-1.25.85-1.29h.07a.64.64,0,0,1,.2.08l.07,0a1.47,1.47,0,0,1,.25.25l0,0-1.5,3.57,0-.13c0-.13,0-.27,0-.4l0-.26c0-.14,0-.28,0-.42v-.25Zm1.54,3.33a2.73,2.73,0,0,1,.17,1.64l-.48,1.13a3.78,3.78,0,0,0-.22-1.89l.44-1Zm3.33-10.11-1.76,4.17,0,0a3.78,3.78,0,0,0-.46-.51l-.08-.07a2.44,2.44,0,0,0-.51-.35l-.07,0a2.06,2.06,0,0,0-.56-.19H68a2,2,0,0,0-.6,0c-1,.16-1.87,1.09-2.28,2.55a7.22,7.22,0,0,0-.23,1.51A8,8,0,0,0,66,45.05h0a1.84,1.84,0,0,1,.11,1.42l-1.79,4.25L48.56,26.34a2,2,0,0,1-.12-1.57L55.68,7.61,71.39,32A2,2,0,0,1,71.51,33.56Zm2.28-1.17-.47,1.14a3.79,3.79,0,0,0-.45-2.48L57.33,7l.48-.82L73.66,30.72A2.07,2.07,0,0,1,73.79,32.39Z" style="fill:#00263e"/><path d="M59.22,36.45A1.49,1.49,0,0,1,58,35.69l-3.24-5a3.33,3.33,0,0,1-.23-2.84l1.1-2.62a8.22,8.22,0,0,1-.11-6.89h0a2.48,2.48,0,0,1,2.06-1.5c.74,0,1.84.31,3,2.13L64.4,24.9a8.55,8.55,0,0,1,.81,6.68A3.15,3.15,0,0,1,62.88,34a2.25,2.25,0,0,1-1.54-.37l-.77,1.83a1.5,1.5,0,0,1-1.24,1ZM57,19.14a6.42,6.42,0,0,0,.28,5.55l.24.39-1.45,3.43a1.58,1.58,0,0,0,.09,1.21l2.95,4.57,1.71-4.05.9,1.35c.3.43.64.69.88.65s.62-.37.91-1.21a6.85,6.85,0,0,0-.62-5.18l-3.84-6c-.63-1-1.17-1.33-1.45-1.33h0c-.26,0-.49.4-.58.57Z" style="fill:#00263e"/><path d="M15,24.12a4,4,0,0,0,4.47,2.31,2.89,2.89,0,0,0,2-1.51,3,3,0,0,0,0-2.59A4.08,4.08,0,0,0,17.07,20a2.91,2.91,0,0,0-2,1.51A3.06,3.06,0,0,0,15,24.12Zm1.59-1.79a1.19,1.19,0,0,1,.83-.59,1.83,1.83,0,0,1,.4,0A2.37,2.37,0,0,1,19.94,23a1.26,1.26,0,0,1,0,1.09,1.18,1.18,0,0,1-.83.6,2.32,2.32,0,0,1-2.48-1.29A1.29,1.29,0,0,1,16.62,22.33ZM37.39,48.27c1.73,2.39,5,4.26,7.45,4.26a2.87,2.87,0,0,0,2.29-.89,2.3,2.3,0,0,0,1.29-.82c.72-.93.7-2.4-.08-4l-4.81-10.2C42.26,33.9,39.4,31.45,37,31a2.67,2.67,0,0,0-2.81.84A2.91,2.91,0,0,0,33.71,34a5.61,5.61,0,0,0-1.18-.15,2.69,2.69,0,0,0-2.61,1.35c-.53,1.05-.23,2.49.83,4ZM35.58,32.91a.81.81,0,0,1,.65-.24,2.94,2.94,0,0,1,.45,0c1.84.35,4.25,2.46,5.26,4.6l4.82,10.21c.56,1.18.5,1.93.28,2.22s-.79.24-1.1.19c-1.84-.35-4.25-2.46-5.27-4.61L35.85,35.12C35.3,33.94,35.36,33.19,35.58,32.91ZM70,68.84a2.09,2.09,0,0,0-.19-.4l-.7-1.06L69,67.15h0L36.76,18.26a4.19,4.19,0,0,0-3.54-1.94L8.89,16.19h0a1.55,1.55,0,0,0-.6.14h0A4.61,4.61,0,0,0,5,19.27a3.86,3.86,0,0,0,.22,3.23L38.31,72.69a4.21,4.21,0,0,0,3.55,1.93l24.35.13a4.38,4.38,0,0,0,3.46-2.49A3.88,3.88,0,0,0,70,68.84ZM35.3,19.22l32.93,50v0l-24.09-.12A2.52,2.52,0,0,1,42,68L9.09,18h0l24.11.13A2.47,2.47,0,0,1,35.3,19.22ZM66.19,73l-24.32-.13a2.49,2.49,0,0,1-2.1-1.14L6.69,21.5a2.34,2.34,0,0,1,0-1.7,2.57,2.57,0,0,1,.77-1.12l0,.07L40.58,68.94a4.23,4.23,0,0,0,3.54,1.94l24.2.12a3.26,3.26,0,0,1-.2.43A2.69,2.69,0,0,1,66.19,73Z" style="fill:#00263e"/><path d="M33.28,36.16a.39.39,0,0,1-.23.42.58.58,0,0,1-.69-.29l-1.1-1.9a.44.44,0,0,1,.15-.65.59.59,0,0,1,.7.29l1.09,1.9A.49.49,0,0,1,33.28,36.16Z" style="fill:#00b0e8"/><path d="M31.09,32.36a.4.4,0,0,1-.22.43.58.58,0,0,1-.7-.3L29.08,30.6a.45.45,0,0,1,.14-.66.6.6,0,0,1,.7.3L31,32.13A.55.55,0,0,1,31.09,32.36Z" style="fill:#00b0e8"/><path d="M28.91,28.57a.4.4,0,0,1-.23.43.61.61,0,0,1-.7-.3l-1.09-1.89a.44.44,0,0,1,.15-.66.6.6,0,0,1,.7.29l1.09,1.9A.7.7,0,0,1,28.91,28.57Z" style="fill:#00b0e8"/><path d="M29.68,25.53a.28.28,0,0,1,0,.09.4.4,0,0,1-.54.35l-3-.84-.37,2.68a.39.39,0,0,1-.56.3.63.63,0,0,1-.44-.64l.43-3.12a.4.4,0,0,1,.54-.32l3.47,1A.62.62,0,0,1,29.68,25.53Z" style="fill:#00b0e8"/><path d="M44.86,52a.4.4,0,0,1,.22-.42.59.59,0,0,1,.7.29l1.09,1.9a.43.43,0,0,1-.15.65.58.58,0,0,1-.69-.29l-1.1-1.9A.62.62,0,0,1,44.86,52Z" style="fill:#00b0e8"/><path d="M47,55.84a.4.4,0,0,1,.23-.43.59.59,0,0,1,.7.29l1.09,1.9a.44.44,0,0,1-.15.66.6.6,0,0,1-.69-.3l-1.1-1.89A.79.79,0,0,1,47,55.84Z" style="fill:#00b0e8"/><path d="M49.23,59.63a.4.4,0,0,1,.23-.43.62.62,0,0,1,.7.3l1.09,1.89a.45.45,0,0,1-.15.66.59.59,0,0,1-.7-.3l-1.09-1.89A.79.79,0,0,1,49.23,59.63Z" style="fill:#00b0e8"/><path d="M48.45,62.67v-.09a.4.4,0,0,1,.54-.35l3,.83.36-2.67a.41.41,0,0,1,.57-.31.63.63,0,0,1,.43.65l-.43,3.12a.39.39,0,0,1-.53.32l-3.47-1A.64.64,0,0,1,48.45,62.67Z" style="fill:#00b0e8"/><polygon points="58.74 20.24 59.23 20.19 59.11 19.99 58.72 20.04 58.74 20.24" style="fill:#00263e"/><polygon points="61.01 22.94 60.88 22.75 60.49 22.79 60.52 22.99 61.01 22.94" style="fill:#00263e"/><polygon points="62.27 25.54 62.29 25.75 62.78 25.69 62.66 25.5 62.27 25.54" style="fill:#00263e"/><path d="M58.19,18.83a1.77,1.77,0,0,0-.23-.19l-.83.09A2.22,2.22,0,0,0,57,19Z" style="fill:#00263e"/><path d="M58.6,20.26l0-.21-2,.22,0,.22Z" style="fill:#00263e"/><polygon points="58.09 21.79 60.12 21.56 60 21.37 58.06 21.58 58.09 21.79" style="fill:#00263e"/><polygon points="57.44 23.33 60.37 23.01 60.35 22.8 57.41 23.13 57.44 23.33" style="fill:#00263e"/><polygon points="59.86 24.54 61.9 24.32 61.77 24.12 59.84 24.33 59.86 24.54" style="fill:#00263e"/><polygon points="62.12 25.56 59.19 25.88 59.21 26.08 62.15 25.76 62.12 25.56" style="fill:#00263e"/><path d="M63.4,27.1c0-.07,0-.14,0-.2l-1.74.19,0,.2Z" style="fill:#00263e"/><path d="M63.65,28.34,61,28.63l0,.21,2.67-.3A1.27,1.27,0,0,1,63.65,28.34Z" style="fill:#00263e"/><path d="M63.39,29.84l0,.21.22,0,0-.21Z" style="fill:#00263e"/><path d="M62.74,31.39l0,.2.4,0c0-.07.07-.14.11-.22Z" style="fill:#00263e"/><path d="M56.45,22l1.49-.16,0-.2-1.49.16C56.44,21.83,56.44,21.9,56.45,22Z" style="fill:#00263e"/><path d="M57.29,23.35l0-.21-.62.07c0,.07,0,.13.05.2Z" style="fill:#00263e"/><polygon points="57.35 24.81 59.72 24.55 59.7 24.35 57.23 24.62 57.35 24.81" style="fill:#00263e"/><polygon points="59.07 26.1 59.05 25.89 56.96 26.12 56.87 26.34 59.07 26.1" style="fill:#00263e"/><polygon points="61.47 27.1 58.54 27.42 58.56 27.63 61.49 27.31 61.47 27.1" style="fill:#00263e"/><polygon points="57.91 29.17 60.84 28.85 60.82 28.65 57.88 28.97 57.91 29.17" style="fill:#00263e"/><polygon points="63.25 29.86 60.31 30.18 60.34 30.38 60.66 30.35 60.75 30.14 60.87 30.32 63.27 30.06 63.25 29.86" style="fill:#00263e"/><polygon points="59.66 31.72 59.68 31.93 60.01 31.89 60.1 31.67 59.66 31.72" style="fill:#00263e"/><path d="M61.67,31.5l.15.19.8-.08,0-.21Z" style="fill:#00263e"/><polygon points="58.42 27.64 58.39 27.44 56.31 27.67 56.22 27.89 58.42 27.64" style="fill:#00263e"/><path d="M57.74,29l-1.79.2a1.18,1.18,0,0,0,0,.2l1.78-.19Z" style="fill:#00263e"/><polygon points="60.19 30.4 60.17 30.19 57.23 30.51 57.26 30.72 60.19 30.4" style="fill:#00263e"/><polygon points="59.54 31.94 59.52 31.74 57.59 31.95 57.72 32.14 59.54 31.94" style="fill:#00263e"/><polygon points="59.01 33.27 59.03 33.47 59.36 33.44 59.45 33.22 59.01 33.27" style="fill:#00263e"/><polygon points="57.09 30.53 56.7 30.57 56.83 30.77 57.11 30.74 57.09 30.53" style="fill:#00263e"/><polygon points="58.87 33.28 58.48 33.33 58.6 33.52 58.89 33.49 58.87 33.28" style="fill:#00263e"/><path d="M67,38.29l1.65-.18a1.39,1.39,0,0,0-.15-.19L67,38.09Z" style="fill:#00263e"/><path d="M66.88,38.31l0-.21-1,.11c0,.07-.07.14-.11.22Z" style="fill:#00263e"/><polygon points="66.37 39.84 68.26 39.63 68.36 39.41 66.35 39.63 66.37 39.84" style="fill:#00263e"/><polygon points="67.61 41.17 67.7 40.96 65.7 41.17 65.72 41.38 67.61 41.17" style="fill:#00263e"/><path d="M66.21,39.65l-.83.09c0,.07,0,.14,0,.21l.87-.1Z" style="fill:#00263e"/><path d="M65.58,41.4l0-.21-.23,0a1.36,1.36,0,0,1,0,.2Z" style="fill:#00263e"/><path d="M65.63,42.86,67,42.72l.09-.22-1.48.16Z" style="fill:#00263e"/><path d="M66.13,44.08l.11.19h.07l.09-.21Z" style="fill:#00263e"/><path d="M6.06,19.08l.21.14,1-1.61a5.22,5.22,0,0,0-.47.26Z" style="fill:#00263e"/><polygon points="6.5 21.04 6.71 21.17 8.13 18.94 7.97 18.71 6.5 21.04" style="fill:#00263e"/><path d="M5.2,20.92l.93-1.48-.21-.13-.69,1.08A3.2,3.2,0,0,0,5.2,20.92Z" style="fill:#00263e"/><polygon points="6.36 21.26 5.65 22.37 5.8 22.6 6.57 21.39 6.36 21.26" style="fill:#00263e"/><polygon points="6.93 22.99 7.14 23.12 8.98 20.24 8.83 20.01 6.93 22.99" style="fill:#00263e"/><polygon points="7.58 25.07 9.83 21.53 9.68 21.3 7.37 24.94 7.58 25.07" style="fill:#00263e"/><polygon points="11.48 24.2 11.54 24.12 11.38 23.89 11.27 24.07 11.48 24.2" style="fill:#00263e"/><polygon points="6.79 23.21 6.5 23.67 6.65 23.9 7 23.35 6.79 23.21" style="fill:#00263e"/><polygon points="10.68 22.83 10.53 22.6 8.21 26.26 8.36 26.49 10.68 22.83" style="fill:#00263e"/><polygon points="9.06 27.55 9.21 27.78 11.34 24.43 11.13 24.29 9.06 27.55" style="fill:#00263e"/><polygon points="11.92 26.16 12.39 25.42 12.24 25.19 11.71 26.02 11.92 26.16" style="fill:#00263e"/><polygon points="12.35 28.11 13.24 26.71 13.09 26.48 12.14 27.98 12.35 28.11" style="fill:#00263e"/><polygon points="9.91 28.85 10.06 29.08 11.78 26.38 11.57 26.24 9.91 28.85" style="fill:#00263e"/><polygon points="10.77 30.14 10.92 30.37 12.21 28.33 12 28.2 10.77 30.14" style="fill:#00263e"/><polygon points="12.79 30.06 14.1 28.01 13.94 27.78 12.58 29.93 12.79 30.06" style="fill:#00263e"/><polygon points="13.01 31.88 13.22 32.01 14.95 29.3 14.8 29.07 13.01 31.88" style="fill:#00263e"/><polygon points="11.62 31.44 11.77 31.67 12.65 30.28 12.44 30.15 11.62 31.44" style="fill:#00263e"/><polygon points="12.47 32.73 12.62 32.96 13.08 32.23 12.87 32.1 12.47 32.73" style="fill:#00263e"/><polygon points="13.66 33.97 15.8 30.59 15.65 30.37 13.45 33.83 13.66 33.97" style="fill:#00263e"/><polygon points="14.18 35.32 14.33 35.55 16.65 31.89 16.5 31.66 14.18 35.32" style="fill:#00263e"/><polygon points="17.36 32.97 17.36 32.96 17.35 32.96 17.36 32.97" style="fill:#00263e"/><polygon points="18 35.05 18.36 34.48 18.21 34.25 17.79 34.91 18 35.05" style="fill:#00263e"/><polygon points="13.47 34.26 13.52 34.19 13.37 34.09 13.47 34.26" style="fill:#00263e"/><polygon points="15.03 36.62 15.18 36.84 17.42 33.32 17.21 33.18 15.03 36.62" style="fill:#00263e"/><polygon points="15.88 37.91 16.03 38.14 17.86 35.27 17.65 35.13 15.88 37.91" style="fill:#00263e"/><polygon points="18.43 37 19.21 35.77 19.06 35.55 18.22 36.86 18.43 37" style="fill:#00263e"/><polygon points="18.87 38.95 20.06 37.07 19.91 36.84 18.66 38.82 18.87 38.95" style="fill:#00263e"/><polygon points="16.73 39.2 16.89 39.43 18.29 37.22 18.08 37.09 16.73 39.2" style="fill:#00263e"/><polygon points="17.59 40.5 17.74 40.73 18.73 39.17 18.52 39.04 17.59 40.5" style="fill:#00263e"/><polygon points="19.3 40.9 20.92 38.36 20.77 38.13 19.09 40.77 19.3 40.9" style="fill:#00263e"/><polygon points="19.74 42.85 21.77 39.66 21.62 39.43 19.53 42.72 19.74 42.85" style="fill:#00263e"/><polygon points="18.44 41.8 18.59 42.02 19.16 41.13 18.95 40.99 18.44 41.8" style="fill:#00263e"/><polygon points="19.29 43.09 19.44 43.32 19.6 43.08 19.39 42.94 19.29 43.09" style="fill:#00263e"/><polygon points="20.15 44.38 20.3 44.61 22.62 40.95 22.47 40.73 20.15 44.38" style="fill:#00263e"/><polygon points="21 45.68 21.15 45.91 23.48 42.25 23.41 42.15 23.29 42.07 21 45.68" style="fill:#00263e"/><polygon points="23.87 43.8 24.08 43.94 24.33 43.54 24.18 43.31 23.87 43.8" style="fill:#00263e"/><polygon points="24.51 45.89 25.18 44.84 25.03 44.61 24.3 45.76 24.51 45.89" style="fill:#00263e"/><polygon points="23.73 44.02 21.85 46.97 22 47.2 23.94 44.16 23.73 44.02" style="fill:#00263e"/><polygon points="24.16 45.98 22.7 48.27 22.86 48.5 24.37 46.11 24.16 45.98" style="fill:#00263e"/><polygon points="24.95 47.84 26.03 46.13 25.88 45.9 24.74 47.71 24.95 47.84" style="fill:#00263e"/><polygon points="26.89 47.43 26.74 47.2 25.17 49.66 25.38 49.79 26.89 47.43" style="fill:#00263e"/><polygon points="24.81 48.06 24.59 47.93 23.56 49.56 23.71 49.79 24.81 48.06" style="fill:#00263e"/><polygon points="25.24 50.02 25.03 49.88 24.41 50.86 24.56 51.09 25.24 50.02" style="fill:#00263e"/><polygon points="27.74 48.72 27.59 48.49 25.61 51.61 25.82 51.75 27.74 48.72" style="fill:#00263e"/><polygon points="28.44 49.79 26.12 53.45 26.27 53.68 28.59 50.02 28.44 49.79" style="fill:#00263e"/><polygon points="30.3 52.61 30.15 52.38 29.95 52.69 30.16 52.83 30.3 52.61" style="fill:#00263e"/><polygon points="25.68 51.97 25.47 51.83 25.26 52.15 25.41 52.38 25.68 51.97" style="fill:#00263e"/><polygon points="29.45 51.31 29.29 51.08 26.97 54.74 27.12 54.97 29.45 51.31" style="fill:#00263e"/><polygon points="29.8 52.91 27.82 56.04 27.97 56.27 30.02 53.05 29.8 52.91" style="fill:#00263e"/><polygon points="31.15 53.9 31 53.67 30.38 54.65 30.59 54.78 31.15 53.9" style="fill:#00263e"/><polygon points="32 55.2 31.85 54.97 30.82 56.6 31.03 56.73 32 55.2" style="fill:#00263e"/><polygon points="30.24 54.87 28.67 57.33 28.82 57.56 30.45 55 30.24 54.87" style="fill:#00263e"/><polygon points="30.68 56.82 29.53 58.63 29.68 58.86 30.89 56.95 30.68 56.82" style="fill:#00263e"/><polygon points="32.86 56.49 32.7 56.26 31.25 58.55 31.46 58.69 32.86 56.49" style="fill:#00263e"/><polygon points="33.71 57.79 33.56 57.56 31.69 60.5 31.9 60.64 33.71 57.79" style="fill:#00263e"/><polygon points="31.11 58.77 30.38 59.92 30.53 60.15 31.32 58.91 31.11 58.77" style="fill:#00263e"/><polygon points="31.76 60.86 31.55 60.72 31.23 61.22 31.38 61.45 31.76 60.86" style="fill:#00263e"/><polygon points="34.56 59.08 34.41 58.85 32.12 62.45 32.33 62.59 34.56 59.08" style="fill:#00263e"/><polygon points="35.41 60.38 35.26 60.15 32.94 63.81 33.09 64.04 35.41 60.38" style="fill:#00263e"/><polygon points="36.27 61.67 36.12 61.44 36.03 61.58 36.24 61.72 36.27 61.67" style="fill:#00263e"/><polygon points="37.12 62.97 36.97 62.74 36.46 63.53 36.67 63.67 37.12 62.97" style="fill:#00263e"/><polygon points="36.1 61.94 35.88 61.81 33.79 65.1 33.94 65.33 36.1 61.94" style="fill:#00263e"/><polygon points="36.53 63.89 36.32 63.76 34.64 66.4 34.79 66.63 36.53 63.89" style="fill:#00263e"/><polygon points="37.97 64.26 37.82 64.03 36.9 65.49 37.11 65.62 37.97 64.26" style="fill:#00263e"/><polygon points="38.83 65.56 38.67 65.33 37.33 67.44 37.54 67.57 38.83 65.56" style="fill:#00263e"/><polygon points="36.76 65.71 35.5 67.69 35.65 67.92 36.97 65.84 36.76 65.71" style="fill:#00263e"/><polygon points="37.19 67.66 36.35 68.99 36.5 69.22 37.4 67.8 37.19 67.66" style="fill:#00263e"/><polygon points="39.68 66.85 39.53 66.62 37.77 69.39 37.98 69.53 39.68 66.85" style="fill:#00263e"/><polygon points="40.53 68.14 40.38 67.92 38.2 71.34 38.41 71.48 40.53 68.14" style="fill:#00263e"/><path d="M42.71,70l-.24-.1-.36.57.21.14Z" style="fill:#00263e"/><polygon points="37.63 69.61 37.2 70.28 37.35 70.51 37.84 69.75 37.63 69.61" style="fill:#00263e"/><polygon points="38.06 71.56 38.05 71.58 38.2 71.81 38.27 71.7 38.06 71.56" style="fill:#00263e"/><path d="M41.28,69.13,39,72.81c.06.06.11.14.17.2l2.34-3.7A1.53,1.53,0,0,1,41.28,69.13Z" style="fill:#00263e"/><path d="M42,70.7l-1.85,2.91.24.1,1.83-2.88Z" style="fill:#00263e"/><polygon points="44.28 70.15 43.99 70.15 42.54 72.43 42.75 72.56 44.28 70.15" style="fill:#00263e"/><polygon points="45.95 70.16 45.66 70.16 43.28 73.91 43.57 73.91 45.95 70.16" style="fill:#00263e"/><polygon points="47.62 70.17 47.33 70.17 46.45 71.56 46.66 71.69 47.62 70.17" style="fill:#00263e"/><polygon points="49.29 70.18 49 70.17 46.88 73.51 47.09 73.64 49.29 70.18" style="fill:#00263e"/><polygon points="50.96 70.19 50.67 70.18 50.35 70.69 50.56 70.82 50.96 70.19" style="fill:#00263e"/><polygon points="52.63 70.19 52.34 70.19 50.78 72.64 51 72.77 52.63 70.19" style="fill:#00263e"/><polygon points="55.68 70.21 54.69 71.77 54.9 71.9 55.98 70.21 55.68 70.21" style="fill:#00263e"/><polygon points="59.31 70.23 59.02 70.23 58.59 70.9 58.8 71.03 59.31 70.23" style="fill:#00263e"/><polygon points="42.61 72.78 42.4 72.65 41.61 73.9 41.9 73.9 42.61 72.78" style="fill:#00263e"/><polygon points="46.52 71.91 46.3 71.78 44.95 73.91 45.24 73.92 46.52 71.91" style="fill:#00263e"/><polygon points="46.95 73.86 46.74 73.73 46.62 73.92 46.91 73.92 46.95 73.86" style="fill:#00263e"/><polygon points="50.42 71.04 50.21 70.91 48.29 73.93 48.58 73.93 50.42 71.04" style="fill:#00263e"/><polygon points="50.85 72.99 50.64 72.86 49.96 73.94 50.25 73.94 50.85 72.99" style="fill:#00263e"/><polygon points="54.3 70.2 54.01 70.2 51.63 73.95 51.92 73.95 54.3 70.2" style="fill:#00263e"/><polygon points="54.55 71.99 53.3 73.96 53.59 73.96 54.76 72.12 54.55 71.99" style="fill:#00263e"/><polygon points="57.65 70.22 57.35 70.22 55.12 73.72 55.34 73.85 57.65 70.22" style="fill:#00263e"/><polygon points="58.45 71.12 56.64 73.97 56.93 73.98 58.66 71.25 58.45 71.12" style="fill:#00263e"/><polygon points="60.98 70.24 60.69 70.23 59.03 72.85 59.24 72.98 60.98 70.24" style="fill:#00263e"/><polygon points="62.57 70.38 62.36 70.25 59.98 73.99 60.27 73.99 62.57 70.38" style="fill:#00263e"/><polygon points="64.33 70.25 64.03 70.25 62.93 71.98 63.14 72.11 64.33 70.25" style="fill:#00263e"/><polygon points="66 70.26 65.7 70.26 63.37 73.93 63.49 74.01 63.61 74.01 66 70.26" style="fill:#00263e"/><polygon points="67.67 70.27 67.37 70.27 66.84 71.11 67.05 71.24 67.67 70.27" style="fill:#00263e"/><path d="M67.27,73.06l.21.14,1.28-2a4.74,4.74,0,0,0,.15-.71Z" style="fill:#00263e"/><polygon points="54.98 73.94 54.97 73.97 55.02 73.97 54.98 73.94" style="fill:#00263e"/><polygon points="59.1 73.21 58.89 73.07 58.31 73.98 58.6 73.98 59.1 73.21" style="fill:#00263e"/><polygon points="63 72.34 62.79 72.2 61.65 74 61.94 74 63 72.34" style="fill:#00263e"/><polygon points="66.91 71.47 66.69 71.33 64.99 74.02 65.28 74.02 66.91 71.47" style="fill:#00263e"/><path d="M67.13,73.28l-.24.37a2.7,2.7,0,0,0,.39-.27Z" style="fill:#00263e"/></svg>