<svg id="Layer_1" data-name="Layer 1" xmlns="http://www.w3.org/2000/svg" viewBox="0 0 80 80"><title>pop-repositionable-icon</title><circle cx="40" cy="46.53" r="18.54" style="fill:#ff99d1"/><path d="M39.15,53.44a44,44,0,0,1-14.24-3.87c-2.63-1.31-4.4-2.8-5.25-4.35-1.81.93-2.85,2-2.85,3.12,0,3.49,9.75,6.32,21.78,6.32a61.61,61.61,0,0,0,13.7-1.41A48.18,48.18,0,0,1,39.15,53.44Z" style="fill:#00263e"/><path d="M66.12,63.07a.44.44,0,0,1-.24-.07l-1.75-1a.5.5,0,0,1,.49-.88l1.75,1a.49.49,0,0,1,.19.68A.51.51,0,0,1,66.12,63.07Zm-3.5-1.94a.53.53,0,0,1-.24-.06l-1.75-1a.5.5,0,0,1,.49-.87l1.75,1a.5.5,0,0,1,.19.68A.49.49,0,0,1,62.62,61.13Zm-3.5-1.94a.53.53,0,0,1-.24-.06l-1.75-1a.49.49,0,0,1-.19-.68.5.5,0,0,1,.68-.19l1.75,1a.49.49,0,0,1,.19.68A.5.5,0,0,1,59.12,59.19Zm-3.5-1.93a.44.44,0,0,1-.24-.07l-1.75-1a.5.5,0,0,1-.19-.68.5.5,0,0,1,.68-.2l1.75,1a.49.49,0,0,1,.19.68A.51.51,0,0,1,55.62,57.26Zm-3.5-1.94a.53.53,0,0,1-.24-.06l-1.75-1a.5.5,0,0,1,.49-.87l1.75,1a.5.5,0,0,1,.19.68A.49.49,0,0,1,52.12,55.32Zm-28-15.49a.53.53,0,0,1-.24-.06l-1.75-1a.5.5,0,0,1-.19-.68.51.51,0,0,1,.68-.2l1.75,1a.5.5,0,0,1,.19.68A.49.49,0,0,1,24.12,39.83Zm-3.5-1.94a.53.53,0,0,1-.24-.06l-1.75-1a.49.49,0,0,1-.19-.68.5.5,0,0,1,.68-.19l1.75,1a.5.5,0,0,1,.19.68A.49.49,0,0,1,20.62,37.89ZM17.12,36a.44.44,0,0,1-.24-.07l-1.75-1a.5.5,0,0,1,.49-.88l1.75,1a.49.49,0,0,1,.19.68A.51.51,0,0,1,17.12,36ZM13.62,34a.53.53,0,0,1-.24-.06l-.49-.27a.5.5,0,0,1,.49-.88l.49.27a.5.5,0,0,1,.19.68A.49.49,0,0,1,13.62,34Z" style="fill:#00b0e8"/><path d="M13.47,61.72a.51.51,0,0,1-.45-.28.5.5,0,0,1,.23-.67L15,59.88a.5.5,0,0,1,.44.9l-1.79.88A.46.46,0,0,1,13.47,61.72Zm3.58-1.78a.5.5,0,0,1-.22-.95l1.79-.89a.5.5,0,0,1,.67.23.51.51,0,0,1-.23.67l-1.79.89A.54.54,0,0,1,17.05,59.94Zm3.58-1.78a.48.48,0,0,1-.44-.28.49.49,0,0,1,.22-.67l1.79-.89a.5.5,0,0,1,.67.23.49.49,0,0,1-.22.67l-1.79.89A.59.59,0,0,1,20.63,58.16Zm3.59-1.78a.49.49,0,0,1-.45-.28.51.51,0,0,1,.23-.67l1.79-.89a.51.51,0,0,1,.67.23.5.5,0,0,1-.23.67l-1.79.89A.59.59,0,0,1,24.22,56.38ZM27.8,54.6a.5.5,0,0,1-.22-1l1.79-.88a.5.5,0,1,1,.44.89L28,54.55A.42.42,0,0,1,27.8,54.6Zm3.58-1.77a.5.5,0,0,1-.44-.28.49.49,0,0,1,.22-.67L33,51a.5.5,0,0,1,.67.22.51.51,0,0,1-.22.68l-1.79.88A.49.49,0,0,1,31.38,52.83ZM56.47,40.38A.49.49,0,0,1,56,40.1a.5.5,0,0,1,.22-.67L58,38.54a.51.51,0,0,1,.68.23.5.5,0,0,1-.23.67l-1.79.89A.59.59,0,0,1,56.47,40.38Zm3.58-1.78a.5.5,0,0,1-.22-1l1.79-.89a.51.51,0,0,1,.67.23.5.5,0,0,1-.23.67l-1.79.89A.44.44,0,0,1,60.05,38.6Zm3.58-1.78a.51.51,0,0,1-.45-.27.5.5,0,0,1,.23-.67L65.2,35a.5.5,0,0,1,.67.22.5.5,0,0,1-.22.67l-1.8.89A.42.42,0,0,1,63.63,36.82Z" style="fill:#00b0e8"/><path d="M13.74,36.92a.51.51,0,0,1-.49-.4l-.72-3.4a.49.49,0,0,1,.36-.59L16,31.74a.48.48,0,0,1,.6.36.48.48,0,0,1-.36.6l-2.67.68.63,2.93a.49.49,0,0,1-.38.59Z" style="fill:#00b0e8"/><path d="M63.75,64.55a.5.5,0,0,1-.48-.38.51.51,0,0,1,.36-.61l2.67-.67L65.67,60a.5.5,0,1,1,1-.21l.73,3.4a.51.51,0,0,1-.37.59l-3.13.79Z" style="fill:#00b0e8"/><path d="M15.65,63.37a.63.63,0,0,1-.19,0l-3-1.23a.49.49,0,0,1-.28-.62l1.09-3.27a.5.5,0,1,1,.95.32l-.94,2.82,2.59,1a.49.49,0,0,1,.27.65A.47.47,0,0,1,15.65,63.37Z" style="fill:#00b0e8"/><path d="M66.75,38h-.09a.5.5,0,0,1-.4-.59l.54-2.93-2.71-.67a.51.51,0,0,1-.37-.61.5.5,0,0,1,.61-.36l3.17.79a.49.49,0,0,1,.37.57l-.63,3.4A.49.49,0,0,1,66.75,38Z" style="fill:#00b0e8"/><path d="M44.28,45.16a12,12,0,0,1-6.69-.51,1,1,0,1,0-.65,1.89,14,14,0,0,0,8,.51,1.35,1.35,0,0,0,.29-.16,1,1,0,0,0,.32-1.12A1,1,0,0,0,44.28,45.16Z" style="fill:#00263e"/><path d="M48.06,38.17c.11,1-1.6.23-2.2.53a1,1,0,0,1,.27.72c-.12,1.06-2.59,1.65-5.52,1.31s-5.2-1.47-5.08-2.54a1.08,1.08,0,0,1,.13-.32c-.26-.43-.3-1-.71-1.34a38.26,38.26,0,0,0-8.63.88c-4.38,1-6.95,2.94-7.22,5.33s1.78,4.82,5.81,6.83a44,44,0,0,0,14.24,3.87c7.92.91,16.43.12,20.12-2.8a4.57,4.57,0,0,0,1.85-3C61.6,43.47,55.52,40.07,48.06,38.17ZM39.38,51.45a41.88,41.88,0,0,1-13.57-3.67c-3.13-1.56-4.9-3.36-4.73-4.81a2.64,2.64,0,0,1,1.12-1.68,11.9,11.9,0,0,1,4.58-1.93,33.78,33.78,0,0,1,7-.82A5.09,5.09,0,0,1,33,40.06c-.35.48-.89,1-1.5,1a1,1,0,1,0-.23,2,3.17,3.17,0,0,0,2.38-.74,5.47,5.47,0,0,0,1-1,9.06,9.06,0,0,0,.49-.77,12.2,12.2,0,0,0,5.33,1.73A12.11,12.11,0,0,0,46,41.73c.42,1.51,1.38,3.16,3.17,3.37a1,1,0,0,0,.73-.21,1.06,1.06,0,0,0,.38-.67,1,1,0,0,0-.88-1.11c-1-.12-1.61-2-1.65-3C55,42,59.4,45.06,59.13,47.36,58.79,50.34,50.59,52.75,39.38,51.45Z" style="fill:#00263e"/><circle cx="62.61" cy="17.83" r="1" style="fill:#00263e"/><circle cx="59.98" cy="14.5" r="1" style="fill:#00263e"/><circle cx="59.63" cy="17.48" r="1" style="fill:#00263e"/><circle cx="59.29" cy="20.46" r="1" style="fill:#00263e"/><circle cx="56.99" cy="14.16" r="1" style="fill:#00263e"/><circle cx="56.65" cy="17.14" r="1" style="fill:#00263e"/><circle cx="56.31" cy="20.12" r="1" style="fill:#00263e"/><circle cx="54.36" cy="10.83" r="1" style="fill:#00263e"/><circle cx="54.01" cy="13.81" r="1" style="fill:#00263e"/><circle cx="53.67" cy="16.79" r="1" style="fill:#00263e"/><circle cx="53.33" cy="19.77" r="1" style="fill:#00263e"/><circle cx="52.98" cy="22.75" r="1" style="fill:#00263e"/><circle cx="51.38" cy="10.49" r="1" style="fill:#00263e"/><circle cx="51.03" cy="13.47" r="1" style="fill:#00263e"/><circle cx="50.69" cy="16.45" r="1" style="fill:#00263e"/><circle cx="50.35" cy="19.43" r="1" style="fill:#00263e"/><circle cx="50" cy="22.41" r="1" style="fill:#00263e"/><circle cx="48.4" cy="10.14" r="1" style="fill:#00263e"/><circle cx="48.05" cy="13.12" r="1" style="fill:#00263e"/><circle cx="47.71" cy="16.1" r="1" style="fill:#00263e"/><circle cx="47.37" cy="19.08" r="1" style="fill:#00263e"/><circle cx="47.02" cy="22.06" r="1" style="fill:#00263e"/><circle cx="45.42" cy="9.8" r="1" style="fill:#00263e"/><circle cx="45.07" cy="12.78" r="1" style="fill:#00263e"/><circle cx="44.73" cy="15.76" r="1" style="fill:#00263e"/><circle cx="44.39" cy="18.74" r="1" style="fill:#00263e"/><circle cx="44.04" cy="21.72" r="1" style="fill:#00263e"/><circle cx="42.44" cy="9.46" r="1" style="fill:#00263e"/><circle cx="42.09" cy="12.44" r="1" style="fill:#00263e"/><circle cx="41.75" cy="15.42" r="1" style="fill:#00263e"/><circle cx="41.41" cy="18.4" r="1" style="fill:#00263e"/><circle cx="41.06" cy="21.38" r="1" style="fill:#00263e"/><circle cx="39.46" cy="9.11" r="1" style="fill:#00263e"/><circle cx="39.11" cy="12.09" r="1" style="fill:#00263e"/><circle cx="38.77" cy="15.07" r="1" style="fill:#00263e"/><circle cx="38.43" cy="18.05" r="1" style="fill:#00263e"/><circle cx="38.08" cy="21.03" r="1" style="fill:#00263e"/><circle cx="36.48" cy="8.77" r="1" style="fill:#00263e"/><circle cx="36.13" cy="11.75" r="1" style="fill:#00263e"/><circle cx="35.79" cy="14.73" r="1" style="fill:#00263e"/><circle cx="35.45" cy="17.71" r="1" style="fill:#00263e"/><path d="M34.11,20.57a1,1,0,1,1,2,.23Z" style="fill:#00263e"/><circle cx="33.5" cy="8.42" r="1" style="fill:#00263e"/><circle cx="33.15" cy="11.4" r="1" style="fill:#00263e"/><circle cx="32.81" cy="14.38" r="1" style="fill:#00263e"/><circle cx="32.46" cy="17.36" r="1" style="fill:#00263e"/><path d="M31.13,20.23a1,1,0,1,1,2,.23Z" style="fill:#00263e"/><circle cx="30.17" cy="11.06" r="1" style="fill:#00263e"/><circle cx="29.83" cy="14.04" r="1" style="fill:#00263e"/><circle cx="29.48" cy="17.02" r="1" style="fill:#00263e"/><circle cx="27.19" cy="10.71" r="1" style="fill:#00263e"/><circle cx="26.85" cy="13.69" r="1" style="fill:#00263e"/><circle cx="26.5" cy="16.68" r="1" style="fill:#00263e"/><circle cx="23.87" cy="13.35" r="1" style="fill:#00263e"/><path d="M44.44,7.33a44.15,44.15,0,0,0-14.75.52c-4.38,1-6.94,2.93-7.22,5.33-.22,1.88,1,3.77,3.52,5.48l-.15,1.28c-.28,2.46,1.26,4.88,4,6.84l-.2,1.74c-.23,1.92,1,3.83,3.35,5.37.27.18.56.35.86.52l-.36,2.37c-.27,2.29,3.46,3.78,7,4.19,2.67.31,5.56.06,7-1.06a2.15,2.15,0,0,0,.86-1.45l.16-2.2a9.67,9.67,0,0,0,3.52-1.65A4.85,4.85,0,0,0,54,31.34l.18-1.53a12,12,0,0,0,2.9-1.65,6.46,6.46,0,0,0,2.6-4.31l.14-1.25a10.7,10.7,0,0,0,2.82-1.52,4.55,4.55,0,0,0,1.86-3C65.12,12.66,54.63,8.51,44.44,7.33Zm2,30.91c-.19.38-2.13,1.15-5.61.75s-5.19-1.6-5.29-1.94l.27-1.76a22.56,22.56,0,0,0,5.62,1.36,20.93,20.93,0,0,0,5.13,0ZM52,31.11c-.26,2.26-4.32,4.26-10.41,3.56a17.9,17.9,0,0,1-7.52-2.46c-1.68-1.09-2.58-2.35-2.45-3.46l.1-.81A28.93,28.93,0,0,0,42.16,31a27,27,0,0,0,9.93-.54Zm5.67-7.49c-.46,4-7.18,6.38-15.3,5.44-8.34-1-15-5-14.56-8.89l0-.39c.14.08.27.16.42.23a44.27,44.27,0,0,0,14.24,3.87,44.4,44.4,0,0,0,15.2-.63Zm4.82-5.82c-.35,3-8.54,5.39-19.75,4.09a42.13,42.13,0,0,1-13.58-3.67c-3.12-1.56-4.89-3.36-4.72-4.81a2.62,2.62,0,0,1,1.11-1.68,12.17,12.17,0,0,1,4.59-1.94,42.13,42.13,0,0,1,14.05-.47C55.42,10.61,62.85,14.83,62.51,17.8Z" style="fill:#00263e"/><path d="M48.06,38.17c.11,1-1.6.23-2.2.53a1,1,0,0,1,.27.72c-.12,1.06-2.59,1.65-5.52,1.31s-5.2-1.47-5.08-2.54a1.08,1.08,0,0,1,.13-.32c-.26-.43-.3-1-.71-1.34a38.26,38.26,0,0,0-8.63.88c-4.38,1-6.95,2.94-7.22,5.33s1.78,4.82,5.81,6.83a44,44,0,0,0,14.24,3.87c7.92.91,16.43.12,20.12-2.8a4.57,4.57,0,0,0,1.85-3C61.6,43.47,55.52,40.07,48.06,38.17ZM39.38,51.45a41.88,41.88,0,0,1-13.57-3.67c-3.13-1.56-4.9-3.36-4.73-4.81a2.64,2.64,0,0,1,1.12-1.68,11.9,11.9,0,0,1,4.58-1.93,33.78,33.78,0,0,1,7-.82A5.09,5.09,0,0,1,33,40.06c-.35.48-.89,1-1.5,1a1,1,0,1,0-.23,2,3.17,3.17,0,0,0,2.38-.74,5.47,5.47,0,0,0,1-1,9.06,9.06,0,0,0,.49-.77,12.2,12.2,0,0,0,5.33,1.73A12.11,12.11,0,0,0,46,41.73c.42,1.51,1.38,3.16,3.17,3.37a1,1,0,0,0,.73-.21,1.06,1.06,0,0,0,.38-.67,1,1,0,0,0-.88-1.11c-1-.12-1.61-2-1.65-3C55,42,59.4,45.06,59.13,47.36,58.79,50.34,50.59,52.75,39.38,51.45Z" style="fill:#00263e"/></svg>