<?xml version="1.0" encoding="UTF-8"?>
<svg width="24px" height="24px" viewBox="0 0 24 24" version="1.1" xmlns="http://www.w3.org/2000/svg" xmlns:xlink="http://www.w3.org/1999/xlink">
    <!-- Generator: Sketch 55 (78076) - https://sketchapp.com -->
    <title>icon-elipsis</title>
    <desc>Created with Sketch.</desc>
    <g id="icon-elipsis" stroke="none" stroke-width="1" fill="none" fill-rule="evenodd">
        <path d="M16.01875,16.88125 C16.01875,16.375 16.375,16 16.88125,16 C17.3875,16 17.74375,16.375 17.74375,16.88125 L17.74375,17.25625 C17.74375,17.7625 17.3875,18.15625 16.88125,18.15625 C16.375,18.15625 16.01875,17.7625 16.01875,17.25625 L16.01875,16.88125 Z M11.5,16.88125 C11.5,16.375 11.85625,16 12.38125,16 C12.8875,16 13.24375,16.375 13.24375,16.88125 L13.24375,17.25625 C13.24375,17.7625 12.8875,18.15625 12.38125,18.15625 C11.85625,18.15625 11.5,17.7625 11.5,17.25625 L11.5,16.88125 Z M7,16.88125 C7,16.375 7.35625,16 7.8625,16 C8.3875,16 8.74375,16.375 8.74375,16.88125 L8.74375,17.25625 C8.74375,17.7625 8.3875,18.15625 7.8625,18.15625 C7.35625,18.15625 7,17.7625 7,17.25625 L7,16.88125 Z" id="Mask" fill="#00263E" fill-rule="nonzero"></path>
    </g>
</svg>