<?xml version="1.0" encoding="UTF-8"?>
<svg width="24px" height="24px" viewBox="0 0 24 24" version="1.1" xmlns="http://www.w3.org/2000/svg" xmlns:xlink="http://www.w3.org/1999/xlink">
    <!-- Generator: Sketch 55 (78076) - https://sketchapp.com -->
    <title>icon-poptivist-eyecon_rounded</title>
    <desc>Created with Sketch.</desc>
    <defs>
        <polygon id="path-1" points="0 1.58940397e-05 23.8421086 1.58940397e-05 23.8421086 23.8410596 0 23.8410596"></polygon>
        <polygon id="path-3" points="0 4.76821192e-05 23.8420927 4.76821192e-05 23.8420927 23.8410596 0 23.8410596"></polygon>
    </defs>
    <g id="icon-poptivist-eyecon" stroke="none" stroke-width="1" fill="none" fill-rule="evenodd">
        <g id="Group-11">
            <g id="Group-3">
                <mask id="mask-2" fill="white">
                    <use xlink:href="#path-1"></use>
                </mask>
                <g id="Clip-2"></g>
                <path d="M20.3496318,3.49106225 C15.6950623,-1.16366623 8.14682384,-1.16366623 3.49209536,3.49106225 C-1.16406358,8.14579073 -1.16406358,15.6938702 3.49209536,20.3500291 C8.14682384,25.0047576 15.6950623,25.0047576 20.3496318,20.3500291 C25.0062675,15.6938702 25.0062675,8.14579073 20.3496318,3.49106225" id="Fill-1" fill="#FFFFFF" mask="url(#mask-2)"></path>
            </g>
            <g id="Group-6">
                <mask id="mask-4" fill="white">
                    <use xlink:href="#path-3"></use>
                </mask>
                <g id="Clip-5"></g>
                <path d="M17.6811656,20.208445 C14.0339603,23.8556503 7.93319205,23.6669881 4.0544106,19.7880477 C0.173721854,15.9072 -0.0149403974,9.80690861 3.6322649,6.15906755 C7.27819868,2.5136106 13.3802384,2.70195497 17.2596556,6.58121325 C21.1382781,10.4604715 21.3269404,16.5626702 17.6811656,20.208445 M3.49207947,3.49109404 C-1.16407947,8.14566358 -1.16407947,15.693902 3.49207947,20.3500609 C8.14680795,25.0047894 15.6950464,25.0047894 20.3496159,20.3500609 C25.0062517,15.693902 25.0062517,8.14566358 20.3496159,3.49109404 C15.6950464,-1.16363444 8.14680795,-1.16363444 3.49207947,3.49109404 Z" id="Fill-4" fill="#0879C0" mask="url(#mask-4)"></path>
            </g>
            <path d="M12.7630093,19.5062464 C10.9019762,21.3693457 7.50494305,20.9904318 5.17662517,18.6640212 C2.85021457,16.3357033 2.47336689,12.9388291 4.3344,11.077796 C6.19543311,9.21485563 9.59278411,9.59313377 11.921102,11.9197033 C14.248943,14.2478623 14.6259497,17.6452132 12.7630093,19.5062464 M14.4488901,9.39127947 C11.3457377,6.28765033 6.6293404,5.97231258 3.9122543,8.68923974 C1.19723444,11.4042596 1.51241325,16.1225642 4.61477086,19.2258755 C7.71808212,22.3277563 12.4363868,22.6429351 15.1514066,19.9279152 C17.8680159,17.2114649 17.5526781,12.4950675 14.4488901,9.39127947" id="Fill-7" fill="#80C342"></path>
            <path d="M8.40891656,18.2420185 C8.02030728,18.6306278 7.07779073,18.3152901 6.30089007,17.5398199 C5.52526093,16.7643497 5.2119894,15.8205616 5.59869139,15.4317934 C5.9874596,15.0450914 6.92949934,15.3583629 7.7064,16.1338331 C8.4818702,16.9112106 8.79704901,17.8532503 8.40891656,18.2420185 M9.6728106,14.1678993 C8.11996291,12.6169589 5.98221457,12.238204 4.89665166,13.3255152 C3.81061192,14.4110781 4.18761854,16.5494623 5.74030728,18.1016742 C7.29140662,19.6530914 9.42899603,20.0296212 10.5150358,18.9440583 C11.602506,17.8584954 11.2256583,15.7188397 9.6728106,14.1678993" id="Fill-9" fill="#EF3340"></path>
        </g>
    </g>
</svg>