<?xml version="1.0" encoding="UTF-8"?>
<svg width="80px" height="80px" viewBox="0 0 80 80" version="1.1" xmlns="http://www.w3.org/2000/svg" xmlns:xlink="http://www.w3.org/1999/xlink">
    <!-- Generator: Sketch 55.1 (78136) - https://sketchapp.com -->
    <title>icon/purchases/shipping_rounded</title>
    <desc>Created with Sketch.</desc>
    <defs>
        <polygon id="path-1" points="0.000241262715 0.304 68.0196202 0.304 68.0196202 49.272 0.000241262715 49.272"></polygon>
    </defs>
    <g id="icon/purchases/shipping" stroke="none" stroke-width="1" fill="none" fill-rule="evenodd">
        <circle id="Oval" fill="#FFE3F1" cx="40" cy="40" r="29"></circle>
        <g id="Group-294" transform="translate(5.000000, 12.000000)">
            <path d="M55.9828,31.1748 L55.9958,24.6848 C55.9958,24.6838 56.0248,24.5888 56.0248,24.5878 L59.6218,24.0828 L59.6228,24.0828 C59.7298,24.0678 59.8368,24.0608 59.9408,24.0608 C60.4338,24.0608 60.8908,24.2268 61.2528,24.5408 C61.7568,24.9798 62.0338,25.6508 62.0328027,26.4298 L62.0268,30.3688 L55.9828,31.1748 Z M62.5658,23.0318 C61.6838,22.2648 60.5338,21.9378 59.3438,22.1028 L55.7448,22.6078 C55.2508,22.6788 54.7868,22.9468 54.4898,23.3268 C54.1708,23.7138 53.9958,24.1958 53.9958,24.6808 L53.9828,31.3658 C53.9828,31.8938 54.1938,32.3938 54.5598,32.7378 C54.8788,33.0408 55.3158,33.2078 55.7598,33.2078 C55.8428,33.2078 55.9268,33.2018 56.0088,33.1908 L62.2748,32.3108 C62.7498,32.2428 63.1938,31.9928 63.5418,31.5888 C63.8518,31.2098 64.0238,30.7318 64.0258,30.2378 L64.0328125,26.4338 C64.0358,25.0858 63.5008,23.8458 62.5658,23.0318 L62.5658,23.0318 Z" id="Fill-1" fill="#00263E"></path>
            <g id="Group-5" transform="translate(0.000000, 0.696300)">
                <mask id="mask-2" fill="white">
                    <use xlink:href="#path-1"></use>
                </mask>
                <g id="Clip-4"></g>
                <path d="M65.9926,40.707 L63.0926,41.083 C62.2436,38.853 60.1336,37.586 57.7736,37.916 C55.4776,38.237 53.4196,40.073 52.6536,42.479 C52.6386,42.525 52.6066,42.555 52.6226,42.555 L52.6236,42.555 L33.4536,45.249 C32.5966,43.02 30.4846,41.747 28.1346,42.081 C25.8396,42.404 23.7806,44.239 23.0146,46.644 C22.9996,46.69 22.9686,46.721 22.9836,46.721 L22.9856,46.721 L19.2876,47.24 L19.2976,42.53 C19.2976,42.529 19.3106,42.486 19.3196,42.459 L48.1456,38.407 C48.2246,38.396 48.2986,38.368 48.3756,38.352 L48.8746,38.281 C50.1186,38.107 51.0596,37.027 51.0626,35.77 L51.0626,35.644 C51.1336,35.36 51.1816,35.071 51.1826,34.771 L51.2106,19.836 L59.1636,18.719 L59.1646,18.719 C59.4676,18.676 59.7666,18.655 60.0626,18.655 C61.4736,18.655 62.7896,19.135 63.8346,20.045 C65.2476,21.275 66.0236,23.123 66.0196154,25.246 L65.9926,40.707 Z M19.0506,40.454 C18.9706,40.465 18.8926,40.489 18.8146,40.511 L18.6616,40.532 C18.3976,40.569 18.1586,40.505 17.9746,40.346 C17.7556,40.154 17.6346,39.849 17.6355939,39.486 L17.6606,25.792 L21.7796,25.257 C22.3276,25.186 22.7136,24.685 22.6416,24.137 C22.5706,23.589 22.0716,23.197 21.5216,23.274 L17.6646,23.775 L17.6686,21.628 L21.7846,21.071 C22.3326,20.997 22.7166,20.493 22.6416,19.946 C22.5676,19.399 22.0616,19.018 21.5166,19.089 L17.6726,19.608 L17.6756,17.846 C17.6766,17.06 18.2906,16.284 18.9896,16.186 L48.0746,12.098 C48.1306,12.107 48.1806,12.128 48.2386,12.128 C48.2846,12.128 48.3316,12.125 48.3796,12.118 L48.5086,12.101 C48.6446,12.127 48.7736,12.176 48.8806,12.269 C49.0976,12.459 49.2236,12.771 49.2226059,13.127 L49.2116,19.254 C49.1355939,19.476 49.0926,19.708 49.0926,19.941 L49.0636,35.379 C48.8826,35.85 48.5086,36.233 48.0696,36.375 L19.0506,40.454 Z M9.1706,6.434 C9.1856,6.431 9.2016,6.424 9.2176,6.422 L38.4296,2.315 C38.7166,2.275 38.9856,2.358 39.1846,2.564 L46.8376,10.252 L18.7106,14.205 C18.2066,14.276 17.7426,14.478 17.3286,14.757 L9.1706,6.434 Z M17.2976,42.526 L17.2916,45.381 L12.1996,40.3 C12.1876,40.237 12.1716,40.101 12.1716,39.843 L12.1736,38.952 C12.2826,38.768 12.3466,38.555 12.3176,38.325 C12.2996,38.18 12.2476,38.049 12.1756,37.933 L12.1766,37.374 L16.5546,41.755 C16.5676,41.768 16.5846,41.771 16.5966,41.782 C16.6206,41.805 16.6376,41.832 16.6616,41.853 C16.8616,42.028 17.0866,42.161 17.3196,42.27 C17.3086,42.355 17.2976,42.44 17.2976,42.526 L17.2976,42.526 Z M11.8386,34.207 L8.1806,30.548 C7.9796,30.352 7.8686,30.058 7.8695933,29.721 L7.8826,22.949 L15.6676,21.897 L15.6636,24.035 L10.7776,24.67 C10.2296,24.74 9.8446,25.242 9.9156,25.79 C9.9806,26.294 10.4106,26.661 10.9056,26.661 C10.9486,26.661 10.9916,26.658 11.0356,26.652 L15.6596,26.052 L15.6386,38.009 L11.9236,34.292 C11.8966,34.262 11.8686,34.234 11.8386,34.207 L11.8386,34.207 Z M7.9106,8.08 C7.9106,8.058 7.9156,8.035 7.9166,8.013 L16.0326,16.292 C15.8116,16.77 15.6766,17.293 15.6756,17.842 L15.6716,19.879 L7.8866,20.931 L7.9106,8.08 Z M60.4816,16.669 C59.9586,16.643 59.4256,16.662 58.8866,16.738 L51.2146,17.815 L51.2226,13.131 C51.2236,12.644 51.1176,12.178 50.9276,11.76 L52.0486,11.603 C53.8956,11.34 55.6226,11.87 56.8876,13.069 L60.4816,16.669 Z M65.4896,18.873 C65.4736,18.854 65.4686,18.832 65.4516,18.814 L58.2826,11.637 C56.5716,10.015 54.1996,9.283 51.7686,9.622 L49.3676,9.96 L40.6126,1.164 C39.9756,0.505 39.0816,0.2 38.1486,0.335 L8.9376,4.441 C7.2436,4.68 5.9136,6.276 5.9106,8.076 L5.8866,21.201 L0.8666,21.879 C0.3186,21.953 -0.0654,22.457 0.0096,23.004 C0.0776,23.506 0.5066,23.87 0.9996,23.87 C1.0436,23.87 1.0896,23.867 1.1346,23.861 L5.8826,23.22 L5.8696,29.717 C5.8686,30.599 6.1926,31.402 6.7746,31.971 L10.1796,35.378 L10.1766,37.591 L4.4776,38.32 C3.9296,38.391 3.5426,38.892 3.6126,39.439 C3.6776,39.944 4.1076,40.312 4.6036,40.312 C4.6456,40.312 4.6886,40.31 4.7316,40.305 L10.1716,39.608 L10.1716,39.841 C10.1716,40.618 10.2726,41.23 10.7436,41.671 L17.7376,48.651 C17.7736,48.692 17.8046,48.738 17.8446,48.775 C17.8746,48.806 17.9106,48.828 17.9436,48.856 L17.9446,48.857 C17.9446,48.858 17.9456,48.858 17.9466,48.858 C18.2556,49.121 18.6526,49.272 19.0686,49.272 C19.1496,49.272 19.2316,49.268 19.3136,49.256 L23.2656,48.701 C24.0206,48.593 24.6696,48.027 24.9196,47.256 C25.4586,45.563 26.8626,44.279 28.4136,44.061 C29.8536,43.857 31.1266,44.647 31.6196,46.054 C31.8896,46.884 32.6796,47.371 33.5416,47.257 L52.9016,44.535 C53.6586,44.429 54.3076,43.864 54.5576,43.091 C55.0966,41.397 56.5006,40.114 58.0526,39.896 C59.5086,39.689 60.7716,40.479 61.2646,41.909 C61.5506,42.723 62.3326,43.209 63.1796,43.091 L66.2416,42.661 C66.7296,42.591 67.1926,42.32 67.4996,41.932 C67.8146,41.546 67.9896,41.066 67.9916,40.579 L68.0196202,25.25 C68.0246,22.753 67.1016,20.464 65.4896,18.873 L65.4896,18.873 Z" id="Fill-3" fill="#00263E" mask="url(#mask-2)"></path>
            </g>
            <path d="M60.8481,47.3399 C59.7701,49.3339 57.5741,50.2469 55.9491,49.3659 C54.3271,48.4889 53.8851,46.1529 54.9651,44.1559 C55.7651,42.6779 57.1801,41.7949 58.5191,41.7949 C58.9871,41.7949 59.4451,41.9029 59.8651,42.1299 C61.4871,43.0069 61.9281,45.3439 60.8481,47.3399 M60.8161,40.3699 C58.2241,38.9699 54.8101,40.2389 53.2051,43.2049 C51.6021,46.1699 52.4061,49.7239 54.9971,51.1259 C55.7131,51.5129 56.4921,51.6959 57.2781,51.6959 C59.3371,51.6959 61.4471,50.4379 62.6081,48.2909 C64.2111,45.3259 63.4081,41.7729 60.8161,40.3699" id="Fill-6" fill="#00263E"></path>
            <path d="M30.8256,51.3399 C29.7466,53.3349 27.5496,54.2459 25.9266,53.3659 C25.6206,53.2009 25.3726,52.9719 25.1526,52.7159 L27.0826,52.4649 C27.6306,52.3949 28.0156,51.8929 27.9446,51.3449 C27.8736,50.7969 27.3736,50.4059 26.8246,50.4829 L24.3846,50.7999 C24.3066,49.9499 24.4716,49.0239 24.9416,48.1559 C25.4786,47.1629 26.3036,46.4109 27.2636,46.0379 C27.6796,45.8769 28.0966,45.7959 28.4996,45.7959 C28.9746,45.7959 29.4306,45.9069 29.8416,46.1299 C31.4636,47.0069 31.9046,49.3449 30.8256,51.3399 M30.7926,44.3699 C29.5106,43.6769 27.9986,43.6069 26.5396,44.1739 C25.1376,44.7189 23.9446,45.7949 23.1816,47.2049 C22.5066,48.4539 22.2816,49.8019 22.4146,51.0559 L16.0806,51.8779 C15.5326,51.9479 15.1466,52.4499 15.2186,52.9979 C15.2836,53.5019 15.7136,53.8689 16.2086,53.8689 C16.2516,53.8689 16.2946,53.8659 16.3386,53.8609 L22.9676,52.9989 C23.4106,53.8869 24.0776,54.6409 24.9746,55.1259 C25.6906,55.5129 26.4696,55.6959 27.2556,55.6959 C29.3146,55.6959 31.4246,54.4379 32.5856,52.2909 C34.1886,49.3259 33.3856,45.7729 30.7926,44.3699" id="Fill-8" fill="#00263E"></path>
            <polygon id="Fill-10" fill="#00263E" points="48.1645 11.9785 50.3165 14.1305 50.3245 13.7825 48.4755 11.9325"></polygon>
            <polygon id="Fill-12" fill="#00263E" points="49.3236 15.1367 50.2756 16.0897 50.2826 15.7407 49.5016 14.9587"></polygon>
            <polygon id="Fill-14" fill="#00263E" points="47.3236 15.1367 50.2346 18.0477 50.2416 17.6997 47.5016 14.9587"></polygon>
            <polygon id="Fill-16" fill="#00263E" points="49.3236 19.1367 50.1926 20.0067 50.2006 19.6577 49.5016 18.9587"></polygon>
            <polygon id="Fill-18" fill="#00263E" points="47.3236 19.1367 50.1516 21.9657 50.1596 21.6167 47.5016 18.9587"></polygon>
            <polygon id="Fill-20" fill="#00263E" points="49.3236 23.1367 50.1106 23.9237 50.1176 23.5757 49.5016 22.9587"></polygon>
            <polygon id="Fill-22" fill="#00263E" points="47.3236 23.1367 50.0686 25.8827 50.0766 25.5347 47.5016 22.9587"></polygon>
            <polygon id="Fill-24" fill="#00263E" points="49.3236 27.1367 50.0276 27.8417 50.0356 27.4927 49.5016 26.9587"></polygon>
            <polygon id="Fill-26" fill="#00263E" points="47.3236 27.1367 49.9866 29.7997 49.9936 29.4517 47.5016 26.9587"></polygon>
            <polygon id="Fill-28" fill="#00263E" points="49.3236 31.1367 49.9456 31.7587 49.9526 31.4107 49.5016 30.9587"></polygon>
            <polygon id="Fill-30" fill="#00263E" points="47.3236 31.1367 49.9036 33.7177 49.9116 33.3687 47.5016 30.9587"></polygon>
            <polygon id="Fill-32" fill="#00263E" points="49.3236 35.1367 49.8626 35.6767 49.8706 35.3277 49.5016 34.9587"></polygon>
            <polygon id="Fill-34" fill="#00263E" points="47.3236 35.1367 49.4066 37.2207 49.6086 37.0667 47.5016 34.9587"></polygon>
            <polygon id="Fill-36" fill="#00263E" points="49.1381 14.9512 49.3161 14.7732 46.7311 12.1882 46.4201 12.2342"></polygon>
            <polygon id="Fill-38" fill="#00263E" points="47.1381 14.9512 47.3161 14.7732 44.9871 12.4442 44.6761 12.4902"></polygon>
            <polygon id="Fill-40" fill="#00263E" points="45.3236 15.1367 49.1376 18.9507 49.3156 18.7737 45.5016 14.9587"></polygon>
            <polygon id="Fill-42" fill="#00263E" points="47.3158 18.7734 43.5018 14.9594 43.3238 15.1364 47.1378 18.9514"></polygon>
            <polygon id="Fill-44" fill="#00263E" points="45.3236 19.1367 49.1376 22.9507 49.3156 22.7737 45.5016 18.9587"></polygon>
            <polygon id="Fill-46" fill="#00263E" points="47.3158 22.7734 43.5018 18.9594 43.3238 19.1364 47.1378 22.9514"></polygon>
            <polygon id="Fill-48" fill="#00263E" points="45.3236 23.1367 49.1376 26.9507 49.3156 26.7737 45.5016 22.9587"></polygon>
            <polygon id="Fill-50" fill="#00263E" points="47.3158 26.7734 43.5018 22.9594 43.3238 23.1364 47.1378 26.9514"></polygon>
            <polygon id="Fill-52" fill="#00263E" points="45.3236 27.1367 49.1376 30.9507 49.3156 30.7737 45.5016 26.9587"></polygon>
            <polygon id="Fill-54" fill="#00263E" points="47.3158 30.7734 43.5018 26.9594 43.3238 27.1364 47.1378 30.9514"></polygon>
            <polygon id="Fill-56" fill="#00263E" points="45.3236 31.1367 49.1376 34.9507 49.3156 34.7737 45.5016 30.9587"></polygon>
            <polygon id="Fill-58" fill="#00263E" points="47.3158 34.7734 43.5018 30.9594 43.3238 31.1364 47.1378 34.9514"></polygon>
            <polygon id="Fill-60" fill="#00263E" points="45.3236 35.1367 48.2726 38.0857 48.4736 37.9327 45.5016 34.9587"></polygon>
            <polygon id="Fill-62" fill="#00263E" points="47.3158 38.7734 43.5018 34.9594 43.3238 35.1364 47.1378 38.9514"></polygon>
            <polygon id="Fill-64" fill="#00263E" points="45.5014 38.959 45.3234 39.137 45.3324 39.146 45.6534 39.111"></polygon>
            <polygon id="Fill-66" fill="#00263E" points="43.5014 38.959 43.3234 39.137 43.5264 39.341 43.8484 39.306"></polygon>
            <polygon id="Fill-68" fill="#00263E" points="45.1381 14.9512 45.3161 14.7732 43.2421 12.7002 42.9321 12.7462"></polygon>
            <polygon id="Fill-70" fill="#00263E" points="43.1381 14.9512 43.3161 14.7732 41.4981 12.9562 41.1881 13.0022"></polygon>
            <polygon id="Fill-72" fill="#00263E" points="41.3236 15.1367 45.1376 18.9507 45.3156 18.7737 41.5016 14.9587"></polygon>
            <polygon id="Fill-74" fill="#00263E" points="39.3236 15.1367 43.1376 18.9507 43.3156 18.7737 39.5016 14.9587"></polygon>
            <polygon id="Fill-76" fill="#00263E" points="41.3236 19.1367 45.1376 22.9507 45.3156 22.7737 41.5016 18.9587"></polygon>
            <polygon id="Fill-78" fill="#00263E" points="43.3158 22.7734 39.5018 18.9594 39.3238 19.1364 43.1378 22.9514"></polygon>
            <polygon id="Fill-80" fill="#00263E" points="41.3236 23.1367 45.1376 26.9507 45.3156 26.7737 41.5016 22.9587"></polygon>
            <polygon id="Fill-82" fill="#00263E" points="43.3158 26.7734 39.5018 22.9594 39.3238 23.1364 43.1378 26.9514"></polygon>
            <polygon id="Fill-84" fill="#00263E" points="41.3236 27.1367 45.1376 30.9507 45.3156 30.7737 41.5016 26.9587"></polygon>
            <polygon id="Fill-86" fill="#00263E" points="43.3158 30.7734 39.5018 26.9594 39.3238 27.1364 43.1378 30.9514"></polygon>
            <polygon id="Fill-88" fill="#00263E" points="45.3158 34.7734 41.5018 30.9594 41.3238 31.1364 45.1378 34.9514"></polygon>
            <polygon id="Fill-90" fill="#00263E" points="43.3158 34.7734 39.5018 30.9594 39.3238 31.1364 43.1378 34.9514"></polygon>
            <polygon id="Fill-92" fill="#00263E" points="45.3158 38.7734 41.5018 34.9594 41.3238 35.1364 45.1378 38.9514"></polygon>
            <polygon id="Fill-94" fill="#00263E" points="43.3158 38.7734 39.5018 34.9594 39.3238 35.1364 43.1378 38.9514"></polygon>
            <polygon id="Fill-96" fill="#00263E" points="41.5014 38.959 41.3234 39.137 41.7224 39.535 42.0424 39.501"></polygon>
            <polygon id="Fill-98" fill="#00263E" points="39.5014 38.959 39.3234 39.137 39.9164 39.73 40.2364 39.695"></polygon>
            <polygon id="Fill-100" fill="#00263E" points="41.1381 14.9512 41.3161 14.7732 39.7541 13.2122 39.4441 13.2582"></polygon>
            <polygon id="Fill-102" fill="#00263E" points="39.1381 14.9512 39.3161 14.7732 38.0091 13.4682 37.7001 13.5142"></polygon>
            <polygon id="Fill-104" fill="#00263E" points="37.3236 15.1367 41.1376 18.9507 41.3156 18.7737 37.5016 14.9587"></polygon>
            <polygon id="Fill-106" fill="#00263E" points="35.3236 15.1367 39.1376 18.9507 39.3156 18.7737 35.5016 14.9587"></polygon>
            <polygon id="Fill-108" fill="#00263E" points="37.3236 19.1367 41.1376 22.9507 41.3156 22.7737 37.5016 18.9587"></polygon>
            <polygon id="Fill-110" fill="#00263E" points="35.3236 19.1367 39.1376 22.9507 39.3156 22.7737 35.5016 18.9587"></polygon>
            <polygon id="Fill-112" fill="#00263E" points="37.3236 23.1367 41.1376 26.9507 41.3156 26.7737 37.5016 22.9587"></polygon>
            <polygon id="Fill-114" fill="#00263E" points="39.3158 26.7734 35.5018 22.9594 35.3238 23.1364 39.1378 26.9514"></polygon>
            <polygon id="Fill-116" fill="#00263E" points="41.3158 30.7734 37.5018 26.9594 37.3238 27.1364 41.1378 30.9514"></polygon>
            <polygon id="Fill-118" fill="#00263E" points="39.3158 30.7734 35.5018 26.9594 35.3238 27.1364 39.1378 30.9514"></polygon>
            <polygon id="Fill-120" fill="#00263E" points="41.3158 34.7734 37.5018 30.9594 37.3238 31.1364 41.1378 34.9514"></polygon>
            <polygon id="Fill-122" fill="#00263E" points="39.3158 34.7734 35.5018 30.9594 35.3238 31.1364 39.1378 34.9514"></polygon>
            <polygon id="Fill-124" fill="#00263E" points="41.3158 38.7734 37.5018 34.9594 37.3238 35.1364 41.1378 38.9514"></polygon>
            <polygon id="Fill-126" fill="#00263E" points="39.3158 38.7734 35.5018 34.9594 35.3238 35.1364 39.1378 38.9514"></polygon>
            <polygon id="Fill-128" fill="#00263E" points="37.5014 38.959 37.3234 39.137 38.1104 39.924 38.4314 39.89"></polygon>
            <polygon id="Fill-130" fill="#00263E" points="35.5014 38.959 35.3234 39.137 36.3054 40.119 36.6264 40.084"></polygon>
            <polygon id="Fill-132" fill="#00263E" points="37.1381 14.9512 37.3161 14.7732 36.2651 13.7232 35.9551 13.7692"></polygon>
            <polygon id="Fill-134" fill="#00263E" points="35.1381 14.9512 35.3161 14.7732 34.5211 13.9792 34.2111 14.0252"></polygon>
            <polygon id="Fill-136" fill="#00263E" points="33.3236 15.1367 37.1376 18.9507 37.3156 18.7737 33.5016 14.9587"></polygon>
            <polygon id="Fill-138" fill="#00263E" points="31.3236 15.1367 35.1376 18.9507 35.3156 18.7737 31.5016 14.9587"></polygon>
            <polygon id="Fill-140" fill="#00263E" points="33.3236 19.1367 37.1376 22.9507 37.3156 22.7737 33.5016 18.9587"></polygon>
            <polygon id="Fill-142" fill="#00263E" points="31.3236 19.1367 35.1376 22.9507 35.3156 22.7737 31.5016 18.9587"></polygon>
            <polygon id="Fill-144" fill="#00263E" points="33.3236 23.1367 37.1376 26.9507 37.3156 26.7737 33.5016 22.9587"></polygon>
            <polygon id="Fill-146" fill="#00263E" points="31.3236 23.1367 35.1376 26.9507 35.3156 26.7737 31.5016 22.9587"></polygon>
            <polygon id="Fill-148" fill="#00263E" points="37.3158 30.7734 33.5018 26.9594 33.3238 27.1364 37.1378 30.9514"></polygon>
            <polygon id="Fill-150" fill="#00263E" points="35.3158 30.7734 31.5018 26.9594 31.3238 27.1364 35.1378 30.9514"></polygon>
            <polygon id="Fill-152" fill="#00263E" points="37.3158 34.7734 33.5018 30.9594 33.3238 31.1364 37.1378 34.9514"></polygon>
            <polygon id="Fill-154" fill="#00263E" points="35.3158 34.7734 31.5018 30.9594 31.3238 31.1364 35.1378 34.9514"></polygon>
            <polygon id="Fill-156" fill="#00263E" points="37.3158 38.7734 33.5018 34.9594 33.3238 35.1364 37.1378 38.9514"></polygon>
            <polygon id="Fill-158" fill="#00263E" points="35.3158 38.7734 31.5018 34.9594 31.3238 35.1364 35.1378 38.9514"></polygon>
            <polygon id="Fill-160" fill="#00263E" points="33.5014 38.959 33.3234 39.137 34.4994 40.313 34.8204 40.278"></polygon>
            <polygon id="Fill-162" fill="#00263E" points="31.5014 38.959 31.3234 39.137 32.6934 40.508 33.0154 40.473"></polygon>
            <polygon id="Fill-164" fill="#00263E" points="33.1381 14.9512 33.3161 14.7732 32.7771 14.2352 32.4671 14.2802"></polygon>
            <polygon id="Fill-166" fill="#00263E" points="31.1381 14.9512 31.3161 14.7732 31.0331 14.4912 30.7231 14.5362"></polygon>
            <polygon id="Fill-168" fill="#00263E" points="29.3236 15.1367 33.1376 18.9507 33.3156 18.7737 29.5016 14.9587"></polygon>
            <polygon id="Fill-170" fill="#00263E" points="31.1381 18.9512 31.3161 18.7732 27.5441 15.0032 27.4431 15.0172 27.3241 15.1372"></polygon>
            <polygon id="Fill-172" fill="#00263E" points="29.3236 19.1367 33.1376 22.9507 33.3156 22.7737 29.5016 18.9587"></polygon>
            <polygon id="Fill-174" fill="#00263E" points="27.3236 19.1367 31.1376 22.9507 31.3156 22.7737 27.5016 18.9587"></polygon>
            <polygon id="Fill-176" fill="#00263E" points="29.3236 23.1367 33.1376 26.9507 33.3156 26.7737 29.5016 22.9587"></polygon>
            <polygon id="Fill-178" fill="#00263E" points="27.3236 23.1367 31.1376 26.9507 31.3156 26.7737 27.5016 22.9587"></polygon>
            <polygon id="Fill-180" fill="#00263E" points="33.3158 30.7734 29.5018 26.9594 29.3238 27.1364 33.1378 30.9514"></polygon>
            <polygon id="Fill-182" fill="#00263E" points="31.3158 30.7734 27.5018 26.9594 27.3238 27.1364 31.1378 30.9514"></polygon>
            <polygon id="Fill-184" fill="#00263E" points="33.3158 34.7734 29.5018 30.9594 29.3238 31.1364 33.1378 34.9514"></polygon>
            <polygon id="Fill-186" fill="#00263E" points="31.3158 34.7734 27.5018 30.9594 27.3238 31.1364 31.1378 34.9514"></polygon>
            <polygon id="Fill-188" fill="#00263E" points="33.3158 38.7734 29.5018 34.9594 29.3238 35.1364 33.1378 38.9514"></polygon>
            <polygon id="Fill-190" fill="#00263E" points="31.3158 38.7734 27.5018 34.9594 27.3238 35.1364 31.1378 38.9514"></polygon>
            <polygon id="Fill-192" fill="#00263E" points="29.5014 38.959 29.3234 39.137 30.8894 40.702 31.2094 40.668"></polygon>
            <polygon id="Fill-194" fill="#00263E" points="27.5014 38.959 27.3234 39.137 29.0834 40.896 29.4034 40.862"></polygon>
            <polygon id="Fill-196" fill="#00263E" points="29.1381 14.9512 29.3161 14.7732 29.2881 14.7472 28.9791 14.7922"></polygon>
            <polygon id="Fill-198" fill="#00263E" points="29.3158 18.7734 25.7998 15.2584 25.4908 15.3034 29.1378 18.9514"></polygon>
            <polygon id="Fill-200" fill="#00263E" points="27.3158 18.7734 24.0558 15.5144 23.7468 15.5594 27.1378 18.9514"></polygon>
            <polygon id="Fill-202" fill="#00263E" points="25.3236 19.1367 29.1376 22.9507 29.3156 22.7737 25.5016 18.9587"></polygon>
            <polygon id="Fill-204" fill="#00263E" points="23.3236 19.1367 27.1376 22.9507 27.3156 22.7737 23.5016 18.9587"></polygon>
            <polygon id="Fill-206" fill="#00263E" points="25.3236 23.1367 29.1376 26.9507 29.3156 26.7737 25.5016 22.9587"></polygon>
            <polygon id="Fill-208" fill="#00263E" points="23.3236 23.1367 27.1376 26.9507 27.3156 26.7737 23.5016 22.9587"></polygon>
            <polygon id="Fill-210" fill="#00263E" points="29.3158 30.7734 25.5018 26.9594 25.3238 27.1364 29.1378 30.9514"></polygon>
            <polygon id="Fill-212" fill="#00263E" points="23.3236 27.1367 27.1376 30.9507 27.3156 30.7737 23.5016 26.9587"></polygon>
            <polygon id="Fill-214" fill="#00263E" points="29.3158 34.7734 25.5018 30.9594 25.3238 31.1364 29.1378 34.9514"></polygon>
            <polygon id="Fill-216" fill="#00263E" points="27.3158 34.7734 23.5018 30.9594 23.3238 31.1364 27.1378 34.9514"></polygon>
            <polygon id="Fill-218" fill="#00263E" points="29.3158 38.7734 25.5018 34.9594 25.3238 35.1364 29.1378 38.9514"></polygon>
            <polygon id="Fill-220" fill="#00263E" points="27.3158 38.7734 23.5018 34.9594 23.3238 35.1364 27.1378 38.9514"></polygon>
            <polygon id="Fill-222" fill="#00263E" points="25.5014 38.959 25.3234 39.137 27.2774 41.091 27.5994 41.057"></polygon>
            <polygon id="Fill-224" fill="#00263E" points="23.5014 38.959 23.3234 39.137 25.4724 41.286 25.7934 41.251"></polygon>
            <polygon id="Fill-226" fill="#00263E" points="25.3158 18.7734 22.3118 15.7704 22.0028 15.8154 25.1378 18.9514"></polygon>
            <polygon id="Fill-228" fill="#00263E" points="23.3158 18.7734 20.5678 16.0264 20.2578 16.0714 23.1378 18.9514"></polygon>
            <polygon id="Fill-230" fill="#00263E" points="21.3236 19.1367 25.1376 22.9507 25.3156 22.7737 21.5016 18.9587"></polygon>
            <polygon id="Fill-232" fill="#00263E" points="19.3236 19.1367 23.1376 22.9507 23.3156 22.7737 19.5016 18.9587"></polygon>
            <polygon id="Fill-234" fill="#00263E" points="25.3158 26.7734 21.5018 22.9594 21.3238 23.1364 25.1378 26.9514"></polygon>
            <polygon id="Fill-236" fill="#00263E" points="19.3236 23.1367 23.1376 26.9507 23.3156 26.7737 19.5016 22.9587"></polygon>
            <polygon id="Fill-238" fill="#00263E" points="25.3158 30.7734 21.5018 26.9594 21.3238 27.1364 25.1378 30.9514"></polygon>
            <polygon id="Fill-240" fill="#00263E" points="19.3236 27.1367 23.1376 30.9507 23.3156 30.7737 19.5016 26.9587"></polygon>
            <polygon id="Fill-242" fill="#00263E" points="25.3158 34.7734 21.5018 30.9594 21.3238 31.1364 25.1378 34.9514"></polygon>
            <polygon id="Fill-244" fill="#00263E" points="19.3236 31.1367 23.1376 34.9507 23.3156 34.7737 19.5016 30.9587"></polygon>
            <polygon id="Fill-246" fill="#00263E" points="25.3158 38.7734 21.5018 34.9594 21.3238 35.1364 25.1378 38.9514"></polygon>
            <polygon id="Fill-248" fill="#00263E" points="23.3158 38.7734 19.5018 34.9594 19.3238 35.1364 23.1378 38.9514"></polygon>
            <polygon id="Fill-250" fill="#00263E" points="21.5014 38.959 21.3234 39.137 23.6664 41.48 23.9874 41.445"></polygon>
            <polygon id="Fill-252" fill="#00263E" points="19.5014 38.959 19.3234 39.137 21.8604 41.675 22.1824 41.641"></polygon>
            <polygon id="Fill-254" fill="#00263E" points="21.1381 18.9512 21.3161 18.7732 18.8241 16.2812 18.5131 16.3272"></polygon>
            <polygon id="Fill-256" fill="#00263E" points="19.3158 18.7734 17.4548 16.9124 17.3388 17.1534 19.1378 18.9514"></polygon>
            <polygon id="Fill-258" fill="#00263E" points="17.3158 18.7734 16.9718 18.4294 16.9678 18.7824 17.1378 18.9514"></polygon>
            <polygon id="Fill-260" fill="#00263E" points="21.3158 22.7734 17.5018 18.9594 17.3238 19.1364 21.1378 22.9514"></polygon>
            <polygon id="Fill-262" fill="#00263E" points="19.3158 22.7734 16.9528 20.4114 16.9498 20.7624 19.1378 22.9514"></polygon>
            <polygon id="Fill-264" fill="#00263E" points="17.3158 22.7734 16.9338 22.3914 16.9298 22.7444 17.1378 22.9514"></polygon>
            <polygon id="Fill-266" fill="#00263E" points="21.3158 26.7734 17.5018 22.9594 17.3238 23.1364 21.1378 26.9514"></polygon>
            <polygon id="Fill-268" fill="#00263E" points="19.3158 26.7734 16.9158 24.3734 16.9118 24.7254 19.1378 26.9514"></polygon>
            <polygon id="Fill-270" fill="#00263E" points="17.3158 26.7734 16.8958 26.3544 16.8928 26.7064 17.1378 26.9514"></polygon>
            <polygon id="Fill-272" fill="#00263E" points="21.3158 30.7734 17.5018 26.9594 17.3238 27.1364 21.1378 30.9514"></polygon>
            <polygon id="Fill-274" fill="#00263E" points="19.3158 30.7734 16.8778 28.3354 16.8738 28.6874 19.1378 30.9514"></polygon>
            <polygon id="Fill-276" fill="#00263E" points="17.3158 30.7734 16.8578 30.3164 16.8548 30.6684 17.1378 30.9514"></polygon>
            <polygon id="Fill-278" fill="#00263E" points="21.3158 34.7734 17.5018 30.9594 17.3238 31.1364 21.1378 34.9514"></polygon>
            <polygon id="Fill-280" fill="#00263E" points="19.3158 34.7734 16.8388 32.2974 16.8368 32.6494 19.1378 34.9514"></polygon>
            <polygon id="Fill-282" fill="#00263E" points="17.3158 34.7734 16.8208 34.2784 16.8168 34.6304 17.1378 34.9514"></polygon>
            <polygon id="Fill-284" fill="#00263E" points="21.3158 38.7734 17.5018 34.9594 17.3238 35.1364 21.1378 38.9514"></polygon>
            <polygon id="Fill-286" fill="#00263E" points="19.3158 38.7734 16.8008 36.2594 16.7978 36.6114 19.1378 38.9514"></polygon>
            <polygon id="Fill-288" fill="#00263E" points="17.3158 38.7734 16.7828 38.2404 16.7788 38.5924 17.1378 38.9514"></polygon>
            <polygon id="Fill-290" fill="#00263E" points="20.3764 41.835 17.5014 38.959 17.3234 39.137 20.0564 41.869"></polygon>
            <polygon id="Fill-292" fill="#00263E" points="16.8734 40.332 16.9674 40.78 17.7964 41.61 18.2234 41.682"></polygon>
        </g>
    </g>
</svg>