<svg id="Layer_1" data-name="Layer 1" xmlns="http://www.w3.org/2000/svg" viewBox="0 0 80 80"><title>pop-mount-icon</title><circle cx="30.31" cy="35.02" r="21.83" style="fill:#ff99d1"/><path d="M63.17,48.86a2,2,0,0,0-2,2,18.68,18.68,0,0,1-1.33,6.91l-2.3-1.4a16.45,16.45,0,0,0,1.33-6.52,16.65,16.65,0,0,0-7.65-14,16.67,16.67,0,1,0-18,0,16.6,16.6,0,0,0-6.29,20.59L24.6,57.87a19,19,0,0,1-1.36-7,2,2,0,0,0-4,0,23,23,0,1,0,45.93,0A2,2,0,0,0,63.17,48.86Zm-35.88-27a14.92,14.92,0,1,1,22.19,13c-.17.1-.36.19-.54.28s-.38.19-.57.27-.35.17-.53.24c-.33.13-.67.26-1,.37l-.46.14c-.3.09-.6.17-.91.24l-.31.07c-.41.08-.83.14-1.25.19l-.34,0c-.44,0-.89.07-1.34.07s-.91,0-1.35-.07l-.34,0c-.42,0-.84-.11-1.25-.19l-.3-.07c-.31-.07-.62-.15-.92-.24l-.47-.14c-.34-.11-.68-.24-1-.37s-.35-.16-.53-.24l-.57-.27-.54-.28h0A14.91,14.91,0,0,1,27.29,21.87Zm23.2,15.88a18.16,18.16,0,0,1-8.28,2,18.69,18.69,0,0,1-4.42-.53.5.5,0,0,1-.36-.61.49.49,0,0,1,.6-.36,17.71,17.71,0,0,0,4.18.5A17.16,17.16,0,0,0,50,36.86a.5.5,0,1,1,.45.89ZM42.21,69.83A18.9,18.9,0,0,1,27.66,63l2.58-1.57a16.61,16.61,0,0,0,24-.07l2.59,1.56A18.92,18.92,0,0,1,42.21,69.83Zm14.31-3a.46.46,0,0,1-.33.13.5.5,0,0,1-.34-.87,20.5,20.5,0,0,0,6.57-12,.5.5,0,0,1,1,.16A21.52,21.52,0,0,1,56.52,66.85Z" style="fill:#00263e"/><circle cx="56.58" cy="15.73" r="0.76" style="fill:#00263e"/><circle cx="56.58" cy="18.02" r="0.76" style="fill:#00263e"/><circle cx="56.58" cy="20.31" r="0.76" style="fill:#00263e"/><circle cx="56.58" cy="22.6" r="0.76" style="fill:#00263e"/><circle cx="56.58" cy="24.89" r="0.76" style="fill:#00263e"/><circle cx="56.58" cy="27.17" r="0.76" style="fill:#00263e"/><circle cx="54.29" cy="13.44" r="0.76" style="fill:#00263e"/><circle cx="54.29" cy="15.73" r="0.76" style="fill:#00263e"/><circle cx="54.29" cy="18.02" r="0.76" style="fill:#00263e"/><circle cx="54.29" cy="20.31" r="0.76" style="fill:#00263e"/><circle cx="54.29" cy="22.6" r="0.76" style="fill:#00263e"/><circle cx="54.29" cy="24.89" r="0.76" style="fill:#00263e"/><circle cx="54.29" cy="27.17" r="0.76" style="fill:#00263e"/><circle cx="54.29" cy="29.46" r="0.76" style="fill:#00263e"/><circle cx="54.29" cy="31.75" r="0.76" style="fill:#00263e"/><circle cx="52" cy="11.15" r="0.76" style="fill:#00263e"/><circle cx="52" cy="13.44" r="0.76" style="fill:#00263e"/><circle cx="52" cy="15.73" r="0.76" style="fill:#00263e"/><circle cx="52" cy="18.02" r="0.76" style="fill:#00263e"/><circle cx="52" cy="20.31" r="0.76" style="fill:#00263e"/><circle cx="52" cy="22.6" r="0.76" style="fill:#00263e"/><circle cx="52" cy="24.89" r="0.76" style="fill:#00263e"/><circle cx="52" cy="27.17" r="0.76" style="fill:#00263e"/><circle cx="52" cy="29.46" r="0.76" style="fill:#00263e"/><circle cx="52" cy="31.75" r="0.76" style="fill:#00263e"/><circle cx="52" cy="34.04" r="0.76" style="fill:#00263e"/><circle cx="49.71" cy="8.86" r="0.76" style="fill:#00263e"/><circle cx="49.71" cy="11.15" r="0.76" style="fill:#00263e"/><circle cx="49.71" cy="13.44" r="0.76" style="fill:#00263e"/><circle cx="49.71" cy="15.73" r="0.76" style="fill:#00263e"/><circle cx="49.71" cy="18.02" r="0.76" style="fill:#00263e"/><circle cx="49.71" cy="20.31" r="0.76" style="fill:#00263e"/><circle cx="49.71" cy="22.6" r="0.76" style="fill:#00263e"/><circle cx="49.71" cy="24.89" r="0.76" style="fill:#00263e"/><circle cx="49.71" cy="27.17" r="0.76" style="fill:#00263e"/><circle cx="49.71" cy="29.46" r="0.76" style="fill:#00263e"/><circle cx="49.71" cy="31.75" r="0.76" style="fill:#00263e"/><circle cx="49.71" cy="34.04" r="0.76" style="fill:#00263e"/><circle cx="49.71" cy="36.33" r="0.76" style="fill:#00263e"/><circle cx="47.42" cy="8.86" r="0.76" style="fill:#00263e"/><circle cx="47.42" cy="11.15" r="0.76" style="fill:#00263e"/><circle cx="47.42" cy="13.44" r="0.76" style="fill:#00263e"/><circle cx="47.42" cy="15.73" r="0.76" style="fill:#00263e"/><circle cx="47.42" cy="18.02" r="0.76" style="fill:#00263e"/><circle cx="47.42" cy="20.31" r="0.76" style="fill:#00263e"/><circle cx="47.42" cy="22.6" r="0.76" style="fill:#00263e"/><circle cx="47.42" cy="24.89" r="0.76" style="fill:#00263e"/><circle cx="47.42" cy="27.17" r="0.76" style="fill:#00263e"/><circle cx="47.42" cy="29.46" r="0.76" style="fill:#00263e"/><circle cx="47.42" cy="31.75" r="0.76" style="fill:#00263e"/><circle cx="47.42" cy="34.04" r="0.76" style="fill:#00263e"/><circle cx="47.42" cy="36.33" r="0.76" style="fill:#00263e"/><circle cx="45.13" cy="6.57" r="0.76" style="fill:#00263e"/><circle cx="45.13" cy="8.86" r="0.76" style="fill:#00263e"/><circle cx="45.13" cy="11.15" r="0.76" style="fill:#00263e"/><circle cx="45.13" cy="13.44" r="0.76" style="fill:#00263e"/><circle cx="45.13" cy="15.73" r="0.76" style="fill:#00263e"/><circle cx="45.13" cy="18.02" r="0.76" style="fill:#00263e"/><circle cx="45.13" cy="20.31" r="0.76" style="fill:#00263e"/><circle cx="45.13" cy="22.6" r="0.76" style="fill:#00263e"/><circle cx="45.13" cy="24.89" r="0.76" style="fill:#00263e"/><circle cx="45.13" cy="27.17" r="0.76" style="fill:#00263e"/><circle cx="45.13" cy="29.46" r="0.76" style="fill:#00263e"/><circle cx="45.13" cy="31.75" r="0.76" style="fill:#00263e"/><circle cx="45.13" cy="34.04" r="0.76" style="fill:#00263e"/><circle cx="45.13" cy="36.33" r="0.76" style="fill:#00263e"/><circle cx="42.84" cy="6.57" r="0.76" style="fill:#00263e"/><circle cx="42.84" cy="8.86" r="0.76" style="fill:#00263e"/><circle cx="42.84" cy="11.15" r="0.76" style="fill:#00263e"/><circle cx="42.84" cy="13.44" r="0.76" style="fill:#00263e"/><circle cx="42.84" cy="15.73" r="0.76" style="fill:#00263e"/><circle cx="42.84" cy="18.02" r="0.76" style="fill:#00263e"/><circle cx="42.84" cy="20.31" r="0.76" style="fill:#00263e"/><circle cx="42.84" cy="22.6" r="0.76" style="fill:#00263e"/><circle cx="42.84" cy="24.89" r="0.76" style="fill:#00263e"/><circle cx="42.84" cy="27.17" r="0.76" style="fill:#00263e"/><circle cx="42.84" cy="29.46" r="0.76" style="fill:#00263e"/><circle cx="42.84" cy="31.75" r="0.76" style="fill:#00263e"/><circle cx="42.84" cy="34.04" r="0.76" style="fill:#00263e"/><circle cx="42.84" cy="36.33" r="0.76" style="fill:#00263e"/><circle cx="40.55" cy="6.57" r="0.76" style="fill:#00263e"/><circle cx="40.55" cy="8.86" r="0.76" style="fill:#00263e"/><circle cx="40.55" cy="11.15" r="0.76" style="fill:#00263e"/><circle cx="40.55" cy="13.44" r="0.76" style="fill:#00263e"/><circle cx="40.55" cy="15.73" r="0.76" style="fill:#00263e"/><circle cx="40.55" cy="18.02" r="0.76" style="fill:#00263e"/><circle cx="40.55" cy="20.31" r="0.76" style="fill:#00263e"/><circle cx="40.55" cy="22.6" r="0.76" style="fill:#00263e"/><circle cx="40.55" cy="24.89" r="0.76" style="fill:#00263e"/><circle cx="40.55" cy="27.17" r="0.76" style="fill:#00263e"/><circle cx="40.55" cy="29.46" r="0.76" style="fill:#00263e"/><circle cx="40.55" cy="31.75" r="0.76" style="fill:#00263e"/><circle cx="40.55" cy="34.04" r="0.76" style="fill:#00263e"/><circle cx="40.55" cy="36.33" r="0.76" style="fill:#00263e"/><circle cx="38.26" cy="6.57" r="0.76" style="fill:#00263e"/><circle cx="38.26" cy="8.86" r="0.76" style="fill:#00263e"/><circle cx="38.26" cy="11.15" r="0.76" style="fill:#00263e"/><circle cx="38.26" cy="13.44" r="0.76" style="fill:#00263e"/><circle cx="38.26" cy="15.73" r="0.76" style="fill:#00263e"/><circle cx="38.26" cy="18.02" r="0.76" style="fill:#00263e"/><circle cx="38.26" cy="20.31" r="0.76" style="fill:#00263e"/><circle cx="38.26" cy="22.6" r="0.76" style="fill:#00263e"/><circle cx="38.26" cy="24.89" r="0.76" style="fill:#00263e"/><circle cx="38.26" cy="27.17" r="0.76" style="fill:#00263e"/><circle cx="38.26" cy="29.46" r="0.76" style="fill:#00263e"/><circle cx="38.26" cy="31.75" r="0.76" style="fill:#00263e"/><circle cx="38.26" cy="34.04" r="0.76" style="fill:#00263e"/><circle cx="38.26" cy="36.33" r="0.76" style="fill:#00263e"/><circle cx="35.97" cy="8.86" r="0.76" style="fill:#00263e"/><circle cx="35.97" cy="11.15" r="0.76" style="fill:#00263e"/><circle cx="35.97" cy="13.44" r="0.76" style="fill:#00263e"/><circle cx="35.97" cy="15.73" r="0.76" style="fill:#00263e"/><circle cx="35.97" cy="18.02" r="0.76" style="fill:#00263e"/><circle cx="35.97" cy="20.31" r="0.76" style="fill:#00263e"/><circle cx="35.97" cy="22.6" r="0.76" style="fill:#00263e"/><circle cx="35.97" cy="24.89" r="0.76" style="fill:#00263e"/><circle cx="35.97" cy="27.17" r="0.76" style="fill:#00263e"/><circle cx="35.97" cy="29.46" r="0.76" style="fill:#00263e"/><circle cx="35.97" cy="31.75" r="0.76" style="fill:#00263e"/><circle cx="35.97" cy="34.04" r="0.76" style="fill:#00263e"/><circle cx="35.97" cy="36.33" r="0.76" style="fill:#00263e"/><circle cx="33.68" cy="8.86" r="0.76" style="fill:#00263e"/><circle cx="33.68" cy="11.15" r="0.76" style="fill:#00263e"/><circle cx="33.68" cy="13.44" r="0.76" style="fill:#00263e"/><circle cx="33.68" cy="15.73" r="0.76" style="fill:#00263e"/><circle cx="33.68" cy="18.02" r="0.76" style="fill:#00263e"/><circle cx="33.68" cy="20.31" r="0.76" style="fill:#00263e"/><circle cx="33.68" cy="22.6" r="0.76" style="fill:#00263e"/><circle cx="33.68" cy="24.89" r="0.76" style="fill:#00263e"/><circle cx="33.68" cy="27.17" r="0.76" style="fill:#00263e"/><circle cx="33.68" cy="29.46" r="0.76" style="fill:#00263e"/><circle cx="33.68" cy="31.75" r="0.76" style="fill:#00263e"/><circle cx="33.68" cy="34.04" r="0.76" style="fill:#00263e"/><circle cx="33.68" cy="36.33" r="0.76" style="fill:#00263e"/><circle cx="31.39" cy="11.15" r="0.76" style="fill:#00263e"/><circle cx="31.39" cy="13.44" r="0.76" style="fill:#00263e"/><circle cx="31.39" cy="15.73" r="0.76" style="fill:#00263e"/><circle cx="31.39" cy="18.02" r="0.76" style="fill:#00263e"/><circle cx="31.39" cy="20.31" r="0.76" style="fill:#00263e"/><circle cx="31.39" cy="22.6" r="0.76" style="fill:#00263e"/><circle cx="31.39" cy="24.89" r="0.76" style="fill:#00263e"/><circle cx="31.39" cy="27.17" r="0.76" style="fill:#00263e"/><circle cx="31.39" cy="29.46" r="0.76" style="fill:#00263e"/><circle cx="31.39" cy="31.75" r="0.76" style="fill:#00263e"/><circle cx="29.1" cy="13.44" r="0.76" style="fill:#00263e"/><circle cx="29.1" cy="15.73" r="0.76" style="fill:#00263e"/><circle cx="29.1" cy="18.02" r="0.76" style="fill:#00263e"/><circle cx="29.1" cy="20.31" r="0.76" style="fill:#00263e"/><circle cx="29.1" cy="22.6" r="0.76" style="fill:#00263e"/><circle cx="29.1" cy="24.89" r="0.76" style="fill:#00263e"/><circle cx="29.1" cy="27.17" r="0.76" style="fill:#00263e"/><circle cx="29.1" cy="29.46" r="0.76" style="fill:#00263e"/><circle cx="26.81" cy="18.02" r="0.76" style="fill:#00263e"/><circle cx="26.81" cy="20.31" r="0.76" style="fill:#00263e"/><circle cx="26.81" cy="22.6" r="0.76" style="fill:#00263e"/><circle cx="26.81" cy="24.89" r="0.76" style="fill:#00263e"/><path d="M43.11,45.74a.5.5,0,0,0,.5-.5v-2a.5.5,0,0,0-.5-.5.5.5,0,0,0-.5.5v2A.5.5,0,0,0,43.11,45.74Z" style="fill:#00b0e8"/><path d="M43.11,49.74a.5.5,0,0,0,.5-.5v-2a.5.5,0,0,0-.5-.5.5.5,0,0,0-.5.5v2A.5.5,0,0,0,43.11,49.74Z" style="fill:#00b0e8"/><path d="M43.11,53.74a.5.5,0,0,0,.5-.5v-2a.5.5,0,0,0-.5-.5.5.5,0,0,0-.5.5v2A.5.5,0,0,0,43.11,53.74Z" style="fill:#00b0e8"/><path d="M46.31,53.15a.51.51,0,0,0-.71,0l-2,2a.5.5,0,0,0-.49-.42.49.49,0,0,0-.48.42l-2-2a.51.51,0,0,0-.71,0,.5.5,0,0,0,0,.71l2.84,2.84a.49.49,0,0,0,.35.15.51.51,0,0,0,.36-.15l2.84-2.84A.51.51,0,0,0,46.31,53.15Z" style="fill:#00b0e8"/></svg>