<svg id="Layer_1" data-name="Layer 1" xmlns="http://www.w3.org/2000/svg" viewBox="0 0 80 80"><title>popwallet-removable-icon</title><circle cx="47.08" cy="42.79" r="16.11" style="fill:#ff99d1"/><path d="M45.22,43.44l-6.55-9.2c-1.72-2.4-5-4.31-7.41-4.33a2.68,2.68,0,0,0-2.61,1.32.7.7,0,0,0-.08.2,2.37,2.37,0,0,0-.65.76c-.53,1.05-.23,2.49.83,4l6.64,9.13c1.73,2.39,5,4.26,7.44,4.26a2.69,2.69,0,0,0,2.61-1.34s0-.09,0-.13A2.38,2.38,0,0,0,46,47.4C46.55,46.35,46.27,44.91,45.22,43.44Zm-14-11.78c1.88,0,4.63,1.67,6,3.6l6.55,9.19c.76,1.07.83,1.82.67,2.14s-.76.36-1.05.38c-1.88,0-4.62-1.67-6-3.6l-6.55-9.2c-.75-1.06-.83-1.81-.66-2.13s.7-.38,1-.38Z" style="fill:#00263e"/><path d="M75.18,46.72H73.65l.14.7a.56.56,0,0,1-.09.45.48.48,0,0,1-.38.15H67.93a1,1,0,0,1-.94-.79l-.32-1.78-1.48.26.32,1.8a2.55,2.55,0,0,0,2.42,2h5.39a2,2,0,0,0,1.54-.7,2,2,0,0,0,.4-1.69Z" style="fill:#00263e"/><path d="M14,17.08a2.92,2.92,0,0,0-2,1.51,3,3,0,0,0,0,2.59,4.1,4.1,0,0,0,3.68,2.39,3.55,3.55,0,0,0,.79-.09,2.91,2.91,0,0,0,2-1.51,3.08,3.08,0,0,0,0-2.59A4.08,4.08,0,0,0,14,17.08Zm2.88,4.1a1.19,1.19,0,0,1-.84.59,2.33,2.33,0,0,1-2.48-1.29,1.26,1.26,0,0,1,0-1.09,1.18,1.18,0,0,1,.83-.6,1.75,1.75,0,0,1,.4,0,2.36,2.36,0,0,1,2.08,1.34A1.26,1.26,0,0,1,16.84,21.18Z" style="fill:#00263e"/><path d="M77.23,45.05l-6.41-33a2.78,2.78,0,0,0-2.64-2.21H47.4a2.12,2.12,0,0,0-1.64.75,2.1,2.1,0,0,0-.46,1.46,2,2,0,0,0-1.3.68,2,2,0,0,0-.4,1.69L48,37.12,33.65,15.31a4.24,4.24,0,0,0-3.55-1.94L5.78,13.25h0a1.39,1.39,0,0,0-.6.14h0a4.63,4.63,0,0,0-3.23,2.94,3.83,3.83,0,0,0,.22,3.22L35.2,69.74a4.21,4.21,0,0,0,3.54,1.94l24.36.12a4.36,4.36,0,0,0,3.45-2.48,3.82,3.82,0,0,0,.34-3.42,1.23,1.23,0,0,0-.19-.4L66,64.43l-.14-.23h0L56.18,49.52h1.74a1.91,1.91,0,0,0,1.46-.64,2.25,2.25,0,0,0,.5-1.3,2,2,0,0,0,1.48-.71,2,2,0,0,0,.35-.69h5.8a2.65,2.65,0,0,0,2.28,1.41h5.38a2.12,2.12,0,0,0,1.64-.74A2.15,2.15,0,0,0,77.23,45.05ZM3.59,16.86a2.59,2.59,0,0,1,.77-1.13l0,.08.22.32L3.44,18A2.89,2.89,0,0,1,3.59,16.86Zm0,1.69a1.33,1.33,0,0,1-.11-.41l.13.08,1.19-1.86.7,1.07-1.3,2Zm.76,1.15,1.3-2,.7,1.06-1.3,2ZM5.18,21l1.3-2L7.18,20l-1.29,2ZM6,22.29l1.29-2,.76,1.14-.07,0-1.28,2Zm3.41,5.18.08-.13-.21-.14,0,0-.7-1.07.5-.79-.21-.13-.45.69-.7-1.06.92-1.45-.21-.13-.86,1.35-.7-1.07,1.3-2,.7,1.07-.3.47.21.13L9,22.84l.7,1.06L9,25l.21.13.65-1,.7,1.07L9.46,27l.21.13,1.08-1.68.7,1.06-1.3,2Zm.85,1.29,1.3-2,.7,1.07-1.3,2Zm.85,1.3,1.3-2,.7,1.06-1.29,2ZM12,31.35l1.29-2L14,30.38l-1.3,2Zm3.41,5.18.19-.3-.21-.14-.13.21-.7-1.06.61-1L15,34.14l-.56.87-.7-1.07,1-1.62-.21-.13-1,1.52-.7-1.06,1.3-2,.7,1.06-.19.3.21.13.13-.2.7,1.07-.6,1,.21.13.54-.85.7,1.06-1,1.61.21.13,1-1.51.7,1.07-1.3,2Zm.85,1.3,1.3-2,.7,1.06-1.3,2Zm.85,1.29,1.3-2,.7,1.07-1.29,2Zm.86,1.3,1.29-2.05L20,39.44l-1.3,2Zm3.41,5.18.3-.48L21.48,45l-.24.39-.71-1.07.73-1.14L21.05,43l-.67,1L19.68,43l1.14-1.8-.21-.13-1.08,1.7-.7-1.07,1.3-2,.7,1.07-.08.12L21,41l0,0,.7,1.07-.49.78.21.13.43-.68.7,1.06-.91,1.44.21.14.85-1.35.71,1.07-1.3,2Zm.78,1.19.1.06,1.27-2,.7,1.06L22.94,48Zm.92,1.4,1.3-2,.7,1.07-1.29,2ZM24,49.48l1.29-2,.7,1.06-1.29,2Zm3.41,5.18.41-.65-.21-.14-.35.56-.71-1.07.84-1.3-.21-.14-.78,1.22-.7-1.07,1.25-2L26.69,50,25.5,51.84l-.7-1.07,1.3-2,1.55,2.36-.38.61.21.13.32-.51.7,1.07-.8,1.26.21.14.74-1.17.71,1.06L28.14,55.6l.21.14,1.16-1.83.7,1.07-1.3,2Zm1.7,2.59,1.3-2,.7,1.06-1.3,2Zm.86,1.29,1.29-2,.7,1.07-1.29,2Zm.85,1.3,1.3-2,.7,1.06-1.3,2ZM34.18,65l.11-.17-.22-.13,0,.07-.7-1.07.52-.82-.21-.14-.46.73-.71-1.06,1-1.48-.22-.14-.88,1.39-.7-1.07,1.3-2,.7,1.07-.27.43.21.13.21-.33.7,1.06-.69,1.09.21.14.63-1,.71,1.07-1.11,1.74.21.14,1-1.65.7,1.06-1.3,2ZM35,66.31l1.3-2,.7,1.07-1.3,2Zm.86,1.3,1.29-2,.28.42a5.33,5.33,0,0,0,.46.58l-1.33,2.1Zm3.55,2.32.06-.09-.22-.14-.14.23h-.39a2.5,2.5,0,0,1-.87-.18l1.18-1.87-.21-.13-1.21,1.9a2.4,2.4,0,0,1-.89-.76l1.35-2.13a4.23,4.23,0,0,0,.95.68l-.06.09.21.13.07-.11a4.64,4.64,0,0,0,1.17.34l-1,1.59.21.13,1.08-1.7.29,0h1.07l-1.27,2Zm3.34,0,.62-1-.21-.14L42.48,70H41.11l1.27-2h1.37l-.42.67.21.13.51-.8h1.37l-1.27,2Zm4.84,0-.09-.06,0,.06H46.12L47.3,68.1,47.09,68l-1.27,2H44.45l1.27-2,3,0-1.09,1.72.21.14L49.06,68h1.37l-1.27,2Zm3.51,0,.51-.81L51.43,69l-.6.95H49.46l1.27-2H52.1l-.53.83.21.13.62-1h1.37L52.5,70Zm3.34,0,1.08-1.7-.21-.14L54.17,70H52.8l1.27-2h1.49l.13.08.05-.07h1.37l-1.2,1.89.18.12Zm1.67,0,1.27-2h1.37l-1.27,2Zm3.34,0,.41-.64-.21-.14-.5.78H57.81l1.27-2h1.37l-.63,1,.21.14L60.75,68h1.37l-1.27,2ZM65,68.48a2.68,2.68,0,0,1-1.93,1.57h-.26l1-1.53-.21-.14-1.06,1.67H61.15l1.27-2h1.37l-.07.11.21.14.16-.25h1.12A4.14,4.14,0,0,1,65,68.48Zm.1-2.22v0L41,66.18A2.48,2.48,0,0,1,38.93,65L6,15H6l24.11.12a2.52,2.52,0,0,1,2.1,1.15l16.7,25.36L50,47.42a2.65,2.65,0,0,0,2.53,2.1h1.55ZM58.25,47.9a.41.41,0,0,1-.33.12H52.54a1.15,1.15,0,0,1-1-.89l-6.42-33a.56.56,0,0,1,.09-.45.48.48,0,0,1,.38-.16h0l6.19,31.85a2.79,2.79,0,0,0,2.65,2.2h4A.63.63,0,0,1,58.25,47.9Zm3.47-3.47a.37.37,0,0,0,0-.11,2.36,2.36,0,0,1,.08-.45.94.94,0,0,1,0-.16l.09-.19,1.09.91Zm1.68,0L62,43.3a.6.6,0,0,0,.06-.11,1.75,1.75,0,0,1,.62-.56l2.16,1.8Zm1.84,0L63,42.52a1.89,1.89,0,0,1,.34-.09,2.83,2.83,0,0,1,.58,0l.21,0,.29,0,2.35,2Zm-.3-1.79.1,0,.23.11a2.9,2.9,0,0,1,.33.2l.19.13a3.09,3.09,0,0,1,.39.33l.12.12a3.84,3.84,0,0,1,.35.43s.06.1.09.15Zm10.52,3.09a.38.38,0,0,1-.29.11H69.79a.92.92,0,0,1-.83-.7l0-.2a4.65,4.65,0,0,0-.24-.83.36.36,0,0,0,0-.09,6,6,0,0,0-.35-.72.57.57,0,0,1-.08-.13,5.41,5.41,0,0,0-.46-.61l-.11-.13a5.39,5.39,0,0,0-.54-.53L67,41.8a6.19,6.19,0,0,0-.59-.41l-.13-.08-.63-.3L65.46,41a4.6,4.6,0,0,0-.7-.2l-.18,0a4.63,4.63,0,0,0-.74-.07h-.17a5.36,5.36,0,0,0-.69.06,3.58,3.58,0,0,0-2.32,1.5,3.13,3.13,0,0,0-.39.72,4.59,4.59,0,0,0-.22,2.56.35.35,0,0,1,0,.28.31.31,0,0,1-.24.08H54.39a1,1,0,0,1-.93-.79l-6.41-33h0a.4.4,0,0,1,.06-.35.37.37,0,0,1,.29-.11H68.18a1,1,0,0,1,.92.79l6.42,33A.46.46,0,0,1,75.46,45.73Z" style="fill:#00263e"/><path d="M32,19.9,30.35,21a.51.51,0,0,0-.14.7.49.49,0,0,0,.48.21.44.44,0,0,0,.22-.07l1.66-1.11a.49.49,0,0,0,.14-.69A.5.5,0,0,0,32,19.9Z" style="fill:#00b0e8"/><path d="M35.36,17.69l-1.67,1.1a.5.5,0,0,0,.34.92.54.54,0,0,0,.21-.08l1.67-1.11a.5.5,0,0,0-.55-.83Z" style="fill:#00b0e8"/><path d="M38.69,15.48,37,16.59a.5.5,0,0,0-.14.69.52.52,0,0,0,.48.22.58.58,0,0,0,.22-.08l1.66-1.1a.5.5,0,0,0-.55-.84Z" style="fill:#00b0e8"/><path d="M40.8,13.8l-3.25-.39a.5.5,0,0,0-.12,1l2.78.33-.17,3a.5.5,0,0,0,.47.53h.09a.51.51,0,0,0,.44-.46l.2-3.45A.5.5,0,0,0,40.8,13.8Z" style="fill:#00b0e8"/></svg>