<svg id="Layer_1" data-name="Layer 1" xmlns="http://www.w3.org/2000/svg" viewBox="0 0 80 80"><title>popmini-stand-icon</title><circle cx="61.36" cy="23.98" r="16.11" style="fill:#ff99d1"/><path d="M62.54,29.26a3.47,3.47,0,0,0,.64-.06,4.06,4.06,0,0,0,3.22-3.86,2.88,2.88,0,0,0-1-2.29,3,3,0,0,0-2.52-.59,4,4,0,0,0-3.22,3.86,2.86,2.86,0,0,0,2.91,2.94Zm.64-5.08a1.87,1.87,0,0,1,.32,0,1.14,1.14,0,0,1,.75.26,1.17,1.17,0,0,1,.4.94,2.32,2.32,0,0,1-1.8,2.14,1.28,1.28,0,0,1-1.07-.22,1.18,1.18,0,0,1-.4-.94A2.33,2.33,0,0,1,63.18,24.18Z" style="fill:#00263e"/><polygon points="9.01 43.18 12.82 47 12.99 46.82 9.18 43 9.01 43.18" style="fill:#00263e"/><polygon points="9.01 39.18 12.82 43 12.99 42.82 9.18 39 9.01 39.18" style="fill:#00263e"/><polygon points="14.99 46.82 11.18 43 11.01 43.18 14.82 47 14.99 46.82" style="fill:#00263e"/><polygon points="14.99 50.82 11.18 47 11.01 47.18 14.82 51 14.99 50.82" style="fill:#00263e"/><path d="M13.82,53.64,11.18,51l-.18.18,2.68,2.67Z" style="fill:#00263e"/><path d="M13,55.18l0,0a.14.14,0,0,1,0-.06Z" style="fill:#00263e"/><path d="M13.18,51l-.18.18,1.53,1.53c.05-.07.11-.13.16-.19Z" style="fill:#00263e"/><polygon points="9.01 47.18 12.82 51 12.99 50.82 9.18 47 9.01 47.18" style="fill:#00263e"/><polygon points="11.01 39.18 14.82 43 14.99 42.82 11.18 39 11.01 39.18" style="fill:#00263e"/><polygon points="13.01 39.18 16.82 43 17 42.82 13.18 39 13.01 39.18" style="fill:#00263e"/><polygon points="17 46.82 13.18 43 13.01 43.18 16.82 47 17 46.82" style="fill:#00263e"/><path d="M15,47.18,17.77,50l.22-.14L15.18,47Z" style="fill:#00263e"/><path d="M15.18,51l-.18.18.51.51.18-.18Z" style="fill:#00263e"/><path d="M13,47.18l3.59,3.59.2-.15L13.18,47Z" style="fill:#00263e"/><path d="M17,47.18l2.05,2,.24-.12L17.18,47Z" style="fill:#00263e"/><path d="M19,47.18l1.44,1.44.27-.09L19.18,47Z" style="fill:#00263e"/><polygon points="15.01 43.18 18.82 47 19 46.82 15.18 43 15.01 43.18" style="fill:#00263e"/><polygon points="17 39.18 20.82 43 21 42.82 17.18 39 17 39.18" style="fill:#00263e"/><polygon points="15.01 39.18 18.82 43 19 42.82 15.18 39 15.01 39.18" style="fill:#00263e"/><polygon points="21 46.82 17.18 43 17 43.18 20.82 47 21 46.82" style="fill:#00263e"/><polygon points="27 42.82 23.18 39 23 39.18 26.82 43 27 42.82" style="fill:#00263e"/><polygon points="29 34.82 25.18 31 25 31.18 28.82 35 29 34.82" style="fill:#00263e"/><path d="M21.18,47l-.18.18,1,1,.3,0Z" style="fill:#00263e"/><path d="M31.92,37.74l-.13-.12L29.18,35l-.18.18L31.83,38C31.85,37.92,31.89,37.83,31.92,37.74Z" style="fill:#00263e"/><polygon points="27 30.82 26.06 29.88 25.81 29.99 26.82 31 27 30.82" style="fill:#00263e"/><polygon points="27 34.82 23.21 31.04 23.11 31.08 23 31.18 26.82 35 27 34.82" style="fill:#00263e"/><polygon points="23 34.82 20.36 32.19 20.11 32.29 22.82 35 23 34.82" style="fill:#00263e"/><polygon points="19 34.82 17.51 33.34 17.26 33.44 18.82 35 19 34.82" style="fill:#00263e"/><polygon points="21 34.82 18.94 32.76 18.69 32.86 20.82 35 21 34.82" style="fill:#00263e"/><polygon points="31 38.82 27.18 35 27 35.18 30.82 39 31 38.82" style="fill:#00263e"/><polygon points="25 34.82 21.79 31.61 21.54 31.71 24.82 35 25 34.82" style="fill:#00263e"/><polygon points="25 30.82 24.64 30.46 24.39 30.56 24.82 31 25 30.82" style="fill:#00263e"/><polygon points="19 39.18 22.82 43 23 42.82 19.18 39 19 39.18" style="fill:#00263e"/><polygon points="21 43.18 24.82 47 25 46.82 21.18 43 21 43.18" style="fill:#00263e"/><polygon points="25 42.82 21.18 39 21 39.18 24.82 43 25 42.82" style="fill:#00263e"/><polygon points="29 38.82 25.18 35 25 35.18 28.82 39 29 38.82" style="fill:#00263e"/><path d="M23.9,47.72,23.18,47l-.18.18.7.69Z" style="fill:#00263e"/><polygon points="21 35.18 24.82 39 25 38.82 21.18 35 21 35.18" style="fill:#00263e"/><polygon points="23 38.82 19.18 35 19 35.18 22.82 39 23 38.82" style="fill:#00263e"/><polygon points="27 38.82 23.18 35 23 35.18 26.82 39 27 38.82" style="fill:#00263e"/><polygon points="19 43.18 22.82 47 23 46.82 19.18 43 19 43.18" style="fill:#00263e"/><polygon points="34.99 26.82 34.61 26.43 34.36 26.53 34.82 27 34.99 26.82" style="fill:#00263e"/><polygon points="58.99 22.82 55.18 19 55.01 19.18 58.82 23 58.99 22.82" style="fill:#00263e"/><polygon points="54.99 18.82 54.55 18.38 54.3 18.48 54.82 19 54.99 18.82" style="fill:#00263e"/><polygon points="56.99 22.82 53.18 19 53.01 19.18 56.82 23 56.99 22.82" style="fill:#00263e"/><polygon points="56.99 18.82 55.98 17.8 55.73 17.9 56.82 19 56.99 18.82" style="fill:#00263e"/><polygon points="58.99 18.82 57.4 17.23 57.15 17.33 58.82 19 58.99 18.82" style="fill:#00263e"/><polygon points="56.99 26.82 53.18 23 53.01 23.18 56.82 27 56.99 26.82" style="fill:#00263e"/><polygon points="49.01 23.18 52.82 27 52.99 26.82 49.18 23 49.01 23.18" style="fill:#00263e"/><polygon points="54.99 22.82 51.7 19.53 51.45 19.63 54.82 23 54.99 22.82" style="fill:#00263e"/><polygon points="60.99 18.82 58.83 16.65 58.58 16.75 60.82 19 60.99 18.82" style="fill:#00263e"/><polygon points="54.99 26.82 51.18 23 51.01 23.18 54.82 27 54.99 26.82" style="fill:#00263e"/><polygon points="52.99 22.82 50.28 20.1 50.03 20.2 52.82 23 52.99 22.82" style="fill:#00263e"/><polygon points="67 14.82 65.95 13.78 65.7 13.88 66.82 15 67 14.82" style="fill:#00263e"/><polygon points="65 14.82 64.53 14.35 64.28 14.45 64.82 15 65 14.82" style="fill:#00263e"/><polygon points="69 18.82 65.18 15 65 15.18 68.82 19 69 18.82" style="fill:#00263e"/><polygon points="69 14.82 68.29 14.11 67.75 13.92 68.82 15 69 14.82" style="fill:#00263e"/><polygon points="65 18.82 61.68 15.5 61.43 15.6 64.82 19 65 18.82" style="fill:#00263e"/><polygon points="63.01 19.18 66.82 23 67 22.82 63.18 19 63.01 19.18" style="fill:#00263e"/><polygon points="67 18.82 63.18 15 63.01 15.18 66.82 19 67 18.82" style="fill:#00263e"/><polygon points="62.99 18.82 60.25 16.08 60 16.18 62.82 19 62.99 18.82" style="fill:#00263e"/><polygon points="69 22.82 65.18 19 65 19.18 68.82 23 69 22.82" style="fill:#00263e"/><polygon points="36.99 26.82 36.03 25.86 35.78 25.96 36.82 27 36.99 26.82" style="fill:#00263e"/><polygon points="21 38.82 17.18 35 17 35.18 20.82 39 21 38.82" style="fill:#00263e"/><polygon points="50.99 22.82 48.86 20.68 48.6 20.78 50.82 23 50.99 22.82" style="fill:#00263e"/><polygon points="38.99 26.82 37.46 25.28 37.21 25.38 38.82 27 38.99 26.82" style="fill:#00263e"/><polygon points="32.99 30.82 30.34 28.16 30.08 28.26 32.82 31 32.99 30.82" style="fill:#00263e"/><polygon points="7 51.18 10.82 55 10.99 54.82 7.18 51 7 51.18" style="fill:#00263e"/><polygon points="34.99 30.82 31.76 27.58 31.51 27.68 34.82 31 34.99 30.82" style="fill:#00263e"/><polygon points="31 34.82 27.18 31 27 31.18 30.82 35 31 34.82" style="fill:#00263e"/><polygon points="12.99 54.82 9.18 51 9.01 51.18 12.82 55 12.99 54.82" style="fill:#00263e"/><polygon points="29 30.82 27.49 29.31 27.23 29.41 28.82 31 29 30.82" style="fill:#00263e"/><polygon points="31 30.82 28.91 28.73 28.66 28.84 30.82 31 31 30.82" style="fill:#00263e"/><polygon points="40.99 26.82 38.88 24.71 38.63 24.81 40.82 27 40.99 26.82" style="fill:#00263e"/><polygon points="46.99 22.82 46.01 21.83 45.76 21.93 46.82 23 46.99 22.82" style="fill:#00263e"/><polygon points="48.99 26.82 45.18 23 45.01 23.18 48.82 27 48.99 26.82" style="fill:#00263e"/><polygon points="50.99 26.82 47.18 23 47.01 23.18 50.82 27 50.99 26.82" style="fill:#00263e"/><polygon points="48.99 22.82 47.43 21.25 47.18 21.36 48.82 23 48.99 22.82" style="fill:#00263e"/><polygon points="42.99 26.82 40.31 24.13 40.06 24.23 42.82 27 42.99 26.82" style="fill:#00263e"/><polygon points="43.01 27.18 46.82 31 46.99 30.82 43.18 27 43.01 27.18" style="fill:#00263e"/><polygon points="44.99 22.82 44.58 22.41 44.33 22.51 44.82 23 44.99 22.82" style="fill:#00263e"/><polygon points="44.99 26.82 41.73 23.56 41.48 23.66 44.82 27 44.99 26.82" style="fill:#00263e"/><polygon points="46.99 26.82 43.18 23 43.01 23.18 46.82 27 46.99 26.82" style="fill:#00263e"/><path d="M45,31.18l2.3,2.3.24-.12L45.18,31Z" style="fill:#00263e"/><path d="M44.94,33.12l1,1L46.2,34,45,32.77C45,32.88,45,33,44.94,33.12Z" style="fill:#00263e"/><path d="M47,31.18l1.64,1.64.24-.12L47.18,31Z" style="fill:#00263e"/><polygon points="41.18 27 41.01 27.18 44.82 31 44.99 30.82 41.18 27" style="fill:#00263e"/><path d="M44.56,34.51l.14,0-.1-.11Z" style="fill:#00263e"/><path d="M51,27.18l3.14,3.13.25-.1L51.18,27Z" style="fill:#00263e"/><path d="M39,27.18l3.57,3.56.4.05L39.18,27Z" style="fill:#00263e"/><path d="M49,31.18l1,1,.24-.12L49.18,31Z" style="fill:#00263e"/><path d="M49,27.18l3.75,3.74.24-.11L49.18,27Z" style="fill:#00263e"/><polygon points="17 34.82 16.09 33.91 15.84 34.01 16.82 35 17 34.82" style="fill:#00263e"/><polygon points="47.01 27.18 50.82 31 50.99 30.82 47.18 27 47.01 27.18" style="fill:#00263e"/><polygon points="45.01 27.18 48.82 31 48.99 30.82 45.18 27 45.01 27.18" style="fill:#00263e"/><path d="M35,31.18l.82.82.7.7.22-.14L35.18,31Z" style="fill:#00263e"/><path d="M31.18,31l-.18.18,2.41,2.41.86.86.19-.17-.87-.86Z" style="fill:#00263e"/><path d="M33.18,31l-.18.18,1.51,1.5.84.85.2-.16-.83-.83Z" style="fill:#00263e"/><path d="M33,35.18l.3.3c.05-.07.11-.13.16-.19L33.18,35Z" style="fill:#00263e"/><polygon points="35.01 27.18 38.82 31 38.99 30.82 35.18 27 35.01 27.18" style="fill:#00263e"/><path d="M37,27.18l3.72,3.72.24,0,0,0L37.18,27Z" style="fill:#00263e"/><path d="M39,31.18l.18.18.26-.1L39.18,31Z" style="fill:#00263e"/><path d="M37,31.18l.79.79.24-.12L37.18,31Z" style="fill:#00263e"/><polygon points="33.17 27.01 33.01 27.18 36.82 31 36.99 30.82 33.18 27.01 33.17 27.01" style="fill:#00263e"/><polygon points="69 23.18 69.92 24.1 69.95 23.78 69.18 23 69 23.18" style="fill:#00263e"/><path d="M67,23.18l2,2,.28-.07L67.18,23Z" style="fill:#00263e"/><path d="M65,23.18l2.43,2.43.28-.08L65.18,23Z" style="fill:#00263e"/><path d="M63,23.18l.15.15a1.84,1.84,0,0,1,.33,0l-.3-.3Z" style="fill:#00263e"/><polygon points="61.01 19.18 64.82 23 65 22.82 61.18 19 61.01 19.18" style="fill:#00263e"/><polygon points="29.18 31 29 31.18 32.52 34.7 32.82 35 32.99 34.82 32.67 34.49 29.18 31" style="fill:#00263e"/><path d="M65.52,25.7l.35.35.28-.08-.6-.6C65.55,25.48,65.53,25.59,65.52,25.7Z" style="fill:#00263e"/><polygon points="67 19.18 70.1 22.28 70.13 21.95 67.18 19 67 19.18" style="fill:#00263e"/><polygon points="69.18 15 69 15.18 70.64 16.82 70.67 16.5 69.18 15" style="fill:#00263e"/><polygon points="67 15.18 70.46 18.64 70.49 18.32 67.18 15 67 15.18" style="fill:#00263e"/><polygon points="69 19.18 70.28 20.46 70.31 20.14 69.18 19 69 19.18" style="fill:#00263e"/><polygon points="57.01 19.18 60.82 23 60.99 22.82 57.18 19 57.01 19.18" style="fill:#00263e"/><path d="M59,27.18l.86.86.26-.1L59.18,27Z" style="fill:#00263e"/><polygon points="59.01 19.18 62.82 23 62.99 22.82 59.18 19 59.01 19.18" style="fill:#00263e"/><polygon points="55.01 23.18 58.82 27 58.99 26.82 55.18 23 55.01 23.18" style="fill:#00263e"/><path d="M55,27.18l2,2,.25-.1-2-2Z" style="fill:#00263e"/><path d="M57,27.18l1.4,1.4.26-.1L57.18,27Z" style="fill:#00263e"/><path d="M53,27.18l2.54,2.54.25-.1L53.18,27Z" style="fill:#00263e"/><path d="M61,23.18l.77.76.2-.15L61.18,23Z" style="fill:#00263e"/><path d="M59,23.18,60.86,25a1.71,1.71,0,0,1,.13-.23L59.18,23Z" style="fill:#00263e"/><path d="M57.18,23l-.18.18,3.57,3.57a2.58,2.58,0,0,1,0-.4Z" style="fill:#00263e"/><path d="M51,31.18l.36.36.25-.11L51.18,31Z" style="fill:#00263e"/><polygon points="8.99 50.82 6.43 48.26 6.37 48.55 8.82 51 8.99 50.82" style="fill:#00263e"/><polygon points="8.99 54.82 5.71 51.53 5.65 51.83 8.82 55 8.99 54.82" style="fill:#00263e"/><polygon points="7 50.82 6.07 49.9 6.01 50.19 6.82 51 7 50.82" style="fill:#00263e"/><polygon points="7 46.82 6.8 46.62 6.73 46.91 6.82 47 7 46.82" style="fill:#00263e"/><polygon points="8.99 46.82 7.16 44.98 7.09 45.27 8.82 47 8.99 46.82" style="fill:#00263e"/><polygon points="10.99 50.82 7.18 47 7 47.18 10.82 51 10.99 50.82" style="fill:#00263e"/><polygon points="7 54.82 5.35 53.17 5.29 53.46 6.82 55 7 54.82" style="fill:#00263e"/><polygon points="7 58.82 4.63 56.45 4.56 56.74 6.82 59 7 58.82" style="fill:#00263e"/><polygon points="4.99 54.81 4.99 54.83 5 54.82 4.99 54.81" style="fill:#00263e"/><polygon points="8.99 58.82 5.18 55 5 55.18 8.82 59 8.99 58.82" style="fill:#00263e"/><polygon points="17 38.82 13.24 35.06 13.05 35.14 13.01 35.18 16.82 39 17 38.82" style="fill:#00263e"/><polygon points="14.99 34.82 14.66 34.49 14.41 34.59 14.82 35 14.99 34.82" style="fill:#00263e"/><polygon points="14.99 38.82 11.81 35.64 11.56 35.74 14.82 39 14.99 38.82" style="fill:#00263e"/><polygon points="5 58.82 4.26 58.09 4.2 58.38 4.82 59 5 58.82" style="fill:#00263e"/><polygon points="19 38.82 15.18 35 15.01 35.18 18.82 39 19 38.82" style="fill:#00263e"/><polygon points="12.99 38.82 10.39 36.21 10.14 36.31 12.82 39 12.99 38.82" style="fill:#00263e"/><polygon points="8.99 42.82 7.88 41.7 7.82 41.99 8.82 43 8.99 42.82" style="fill:#00263e"/><polygon points="10.99 42.82 8.24 40.07 8.18 40.35 10.82 43 10.99 42.82" style="fill:#00263e"/><polygon points="10.99 46.82 7.52 43.34 7.46 43.63 10.82 47 10.99 46.82" style="fill:#00263e"/><polygon points="10.99 38.82 8.96 36.79 8.9 37.08 10.82 39 10.99 38.82" style="fill:#00263e"/><polygon points="7 55.18 10.82 59 10.99 58.82 7.18 55 7 55.18" style="fill:#00263e"/><polygon points="25 39.18 28.82 43 29 42.82 25.18 39 25 39.18" style="fill:#00263e"/><path d="M27,43.18l1.37,1.37.22-.14L27.18,43Z" style="fill:#00263e"/><path d="M23,43.18l3,3,.21-.15-3-3Z" style="fill:#00263e"/><path d="M25,43.18l2.19,2.19.21-.15L25.18,43Z" style="fill:#00263e"/><path d="M29,43.18l.57.57.21-.15-.6-.6Z" style="fill:#00263e"/><path d="M29,39.18l2.76,2.75.13-.22L29.18,39Z" style="fill:#00263e"/><path d="M32.57,40.75h0l0,0Z" style="fill:#00263e"/><path d="M27,39.18,30.77,43l.22-.14L27.18,39Z" style="fill:#00263e"/><path d="M31.18,39l-.18.18,1,1a1.86,1.86,0,0,1-.25-.6Z" style="fill:#00263e"/><path d="M12.84,56.67,11.18,55l-.18.18L12.83,57l.08-.08A2,2,0,0,1,12.84,56.67Z" style="fill:#00263e"/><path d="M9,59.18l.89.89.17-.19L9.18,59Z" style="fill:#00263e"/><polygon points="3.84 60.02 6.82 63 7 62.82 3.9 59.73 3.84 60.02" style="fill:#00263e"/><path d="M7,63.18l.2.2.15-.21L7.18,63Z" style="fill:#00263e"/><path d="M5,63.18l1.39,1.38c0-.07.09-.14.14-.21L5.18,63Z" style="fill:#00263e"/><polygon points="4.07 64.25 5.21 65.39 5.42 65.25 3.18 63 4.07 64.25" style="fill:#00263e"/><path d="M5,59.18l3.06,3.06.16-.2-3-3Z" style="fill:#00263e"/><polygon points="5 62.82 3.54 61.37 3.48 61.66 4.82 63 5 62.82" style="fill:#00263e"/><path d="M9,55.18,11.83,58l.17-.18L9.18,55Z" style="fill:#00263e"/><path d="M31.18,35l-.18.18.91.91.55.55.14-.22L32,35.81Z" style="fill:#00263e"/><path d="M7,59.18l2,2L9.12,61,7.18,59Z" style="fill:#00263e"/><path d="M72,18a2,2,0,0,0,0-.35,4.65,4.65,0,0,0-2-3.77,3.85,3.85,0,0,0-3.33-.56L10.38,34.61a4.25,4.25,0,0,0-2.66,3L2.3,61.4a4.53,4.53,0,0,0,1.78,4.12,3.79,3.79,0,0,0,2.32,1,2.19,2.19,0,0,0,.63-.1s2-.72,4.33-1.58c5.79,4,15.75,6.7,27.1,6.7,17.89,0,32.39-6.62,32.39-14.77,0-3.12-2.13-6-5.76-8.4a9.38,9.38,0,0,0,2.64-4.88A3.43,3.43,0,0,0,67,40.81l-.21-.23,5.12-22.39a1.21,1.21,0,0,0,0-.19h0ZM5.48,64.37c-.09-.06-.19-.12-.29-.2A2.85,2.85,0,0,1,4,61.76L9.43,38A2.5,2.5,0,0,1,11,36.25L67.23,14.89a2.34,2.34,0,0,1,1.73.42,2.65,2.65,0,0,1,.85,1l-.08,0L13.55,37.64a4.21,4.21,0,0,0-2.66,3ZM17,56.56a.88.88,0,0,0,.48.33c-.11.18-.22.37-.32.56-1.37.29-2.46.17-2.92-.35a1.2,1.2,0,0,1-.25-1c.16-1.45,1.64-3.38,3.78-4.92,3.17-2.27,6.57-2.8,7.49-1.76a1.2,1.2,0,0,1,.25,1,4,4,0,0,1-.61,1.6,7.72,7.72,0,0,0-.79.14,1,1,0,0,0-.16-.58.89.89,0,0,0-1.23-.2,1.48,1.48,0,0,0-.59,1,1.88,1.88,0,0,0,0,.41,11.77,11.77,0,0,0-2.27,1.41,13.38,13.38,0,0,0-1,.94,1.79,1.79,0,0,0-1.64.14A.88.88,0,0,0,17,56.56Zm1.27,3.12a6.64,6.64,0,0,1,2.69-4,7.2,7.2,0,0,1,5.18-1.83,16.53,16.53,0,0,0-4.33,2.5,15.86,15.86,0,0,0-3.55,3.87A2.69,2.69,0,0,1,18.3,59.68Zm8.36,6.26a11.39,11.39,0,0,1-5.78,2.17,2.65,2.65,0,0,1-2.14-.83.5.5,0,0,1,.78-.64c.73.9,3.4.57,6.59-1.54a.49.49,0,0,1,.69.15A.5.5,0,0,1,26.66,65.94Zm.25-3.4c-2.19,1.74-4.51,2.72-6.11,2.72a2,2,0,0,1-1.61-.61c-1.1-1.34.57-4.47,3.73-7C25.11,55.94,27.44,55,29,55a2,2,0,0,1,1.61.61C31.74,56.92,30.07,60,26.91,62.54ZM52.05,42.9a.82.82,0,0,0,.49.33q-.18.29-.33.57c-1.31.28-2.37.18-2.86-.3a8.27,8.27,0,0,0,1.8-3.88,5,5,0,0,0,0-.67,14.1,14.1,0,0,1,1.68-1.42c3.16-2.27,6.56-2.8,7.49-1.76a1.27,1.27,0,0,1,.25,1,4.32,4.32,0,0,1-.61,1.6,7.9,7.9,0,0,0-.8.14.87.87,0,0,0-1.38-.78,1.44,1.44,0,0,0-.59,1.05,1.87,1.87,0,0,0,0,.41,11.71,11.71,0,0,0-2.26,1.41,11.9,11.9,0,0,0-1,.94,1.79,1.79,0,0,0-1.64.14A.88.88,0,0,0,52.05,42.9ZM35.47,39.09a.87.87,0,0,0,.49.33q-.18.28-.33.57c-1.36.29-2.45.17-2.92-.35a1.21,1.21,0,0,1-.25-1c.16-1.45,1.65-3.38,3.79-4.91,3.16-2.27,6.56-2.81,7.49-1.77A1.3,1.3,0,0,1,44,33a4.39,4.39,0,0,1-.61,1.6c-.26,0-.53.08-.8.13a.92.92,0,0,0-.16-.57.87.87,0,0,0-1.22-.2,1.45,1.45,0,0,0-.6,1,1.89,1.89,0,0,0,0,.41,11.77,11.77,0,0,0-2.27,1.41,13.28,13.28,0,0,0-1,.93,1.79,1.79,0,0,0-1.64.15A.88.88,0,0,0,35.47,39.09Zm1.27,3.13a6.63,6.63,0,0,1,2.69-4.06,7.19,7.19,0,0,1,5.18-1.82,16,16,0,0,0-4.33,2.5,15.65,15.65,0,0,0-3.55,3.86A2.6,2.6,0,0,1,36.74,42.22Zm4.63-2c2.18-1.73,4.51-2.72,6.1-2.72a2,2,0,0,1,1.61.62c1.1,1.34-.57,4.46-3.73,7-2.19,1.73-4.51,2.72-6.1,2.72a2,2,0,0,1-1.62-.62C36.53,45.84,38.2,42.72,41.37,40.21Zm12,5.82A6.68,6.68,0,0,1,56,42a7.23,7.23,0,0,1,5.18-1.82,16.53,16.53,0,0,0-4.33,2.5,15.68,15.68,0,0,0-3.55,3.87A2.69,2.69,0,0,1,53.32,46Zm8,5.72a11.39,11.39,0,0,1-5.78,2.17,2.64,2.64,0,0,1-2.14-.83.5.5,0,0,1,.07-.7.5.5,0,0,1,.71.07c.73.9,3.4.57,6.59-1.54a.5.5,0,0,1,.55.83Zm.57-2.86c-2.19,1.74-4.51,2.72-6.1,2.72A2,2,0,0,1,54.21,51c-1.1-1.35.57-4.47,3.74-7,2.18-1.74,4.51-2.72,6.1-2.72a2,2,0,0,1,1.62.61C66.77,43.26,65.09,46.39,61.93,48.89Zm3.29-9.19a4.58,4.58,0,0,0-1.17-.14l-.35,0a3.39,3.39,0,0,0-1.84-1.09A5.27,5.27,0,0,0,62.31,37a3,3,0,0,0-.69-2.36c-1.71-1.92-5.94-1.27-9.81,1.51a13.23,13.23,0,0,0-1.27,1,1.21,1.21,0,0,1-.1-.14,3.64,3.64,0,0,0-3-1.26l-.35,0a3.51,3.51,0,0,0-1.84-1.1,5.1,5.1,0,0,0,.44-1.52A2.91,2.91,0,0,0,45,30.79c-1.72-1.93-5.94-1.28-9.82,1.51-2.56,1.84-4.28,4.19-4.5,6.14a3,3,0,0,0,.68,2.36h0a3.82,3.82,0,0,0,3,1.11c.22,0,.45,0,.68,0A.9.9,0,0,0,35,42a3.72,3.72,0,0,0,.74,2.79,5.33,5.33,0,0,0-.17.85,3.42,3.42,0,0,0,.71,2.62,3.62,3.62,0,0,0,3,1.26c2,0,4.74-1.16,7.19-3.1a17.61,17.61,0,0,0,1.79-1.63,3.92,3.92,0,0,0,2.71.9,5.22,5.22,0,0,0,.67,0l0,.17a4,4,0,0,0,.22,1.8L32.36,55A3.28,3.28,0,0,0,29,53.21l-.35,0a3.43,3.43,0,0,0-1.84-1.09,5.18,5.18,0,0,0,.44-1.52,3,3,0,0,0-.68-2.37c-1.72-1.92-5.94-1.27-9.82,1.51-2.56,1.84-4.29,4.2-4.5,6.15A3,3,0,0,0,13,58.27h0a3.84,3.84,0,0,0,2.95,1.1,5.27,5.27,0,0,0,.68,0,1,1,0,0,0,0,.17,4.12,4.12,0,0,0,.1,1.5L7.23,64.59,12.6,41.07a2.49,2.49,0,0,1,1.57-1.79L70.17,18Z" style="fill:#00263e"/></svg>