<svg id="Layer_1" data-name="Layer 1" xmlns="http://www.w3.org/2000/svg" viewBox="0 0 80 80"><title>pop-swappable-icon</title><circle cx="40" cy="40" r="25.12" style="fill:#ff99d1"/><path d="M37.73,43.11a.49.49,0,0,0-.7,0,.5.5,0,0,0,0,.71c.51.45,1,.9,1.52,1.32a.51.51,0,0,0,.32.12.5.5,0,0,0,.32-.88Z" style="fill:#00b0e8"/><path d="M35.58,41.06l0,0h3.27a.5.5,0,0,0,.5-.5.51.51,0,0,0-.5-.5H34.35a.5.5,0,0,0-.5.5V45a.5.5,0,0,0,.5.5.5.5,0,0,0,.5-.5V41.73s0,0,0,0l.72.71a.52.52,0,0,0,.35.14.5.5,0,0,0,.34-.86Zm-.71,0,0,0V41h0Z" style="fill:#00b0e8"/><path d="M36.36,23.09c.5.3,1,.62,1.52,1l.25-1c-.43-.27-.85-.55-1.26-.79a.5.5,0,1,0-.51.85Z" style="fill:#00b0e8"/><path d="M34.87,22.19a.5.5,0,0,0,.23-.94c-.63-.33-1.25-.62-1.85-.87a.51.51,0,0,0-.65.27.5.5,0,0,0,.27.66c.57.23,1.16.51,1.77.83A.59.59,0,0,0,34.87,22.19Z" style="fill:#00b0e8"/><path d="M31.29,19.68c-.34-.1-.67-.19-1-.26a.5.5,0,0,0-.59.39.49.49,0,0,0,.38.59c.3.07.61.14.93.24l.14,0a.5.5,0,0,0,.14-1Z" style="fill:#00b0e8"/><path d="M55.75,42.46l-.51,0a.49.49,0,0,0-.22.64,18.7,18.7,0,0,1,.74,1.81.49.49,0,0,0,.47.34.45.45,0,0,0,.16,0,.51.51,0,0,0,.31-.64c-.21-.61-.47-1.24-.77-1.9A.5.5,0,0,0,55.75,42.46Z" style="fill:#00b0e8"/><path d="M52.91,51.56A9.94,9.94,0,0,1,51,51.27a.51.51,0,0,0-.61.37.5.5,0,0,0,.37.6,10.35,10.35,0,0,0,2.07.32h0a.5.5,0,0,0,0-1Z" style="fill:#00b0e8"/><path d="M56.64,50.11a.51.51,0,0,0-.69.17,3,3,0,0,1-.35.45,2.49,2.49,0,0,1-.92.58.5.5,0,0,0,.18,1,.57.57,0,0,0,.18,0,3.64,3.64,0,0,0,1.27-.81,3.81,3.81,0,0,0,.5-.64A.51.51,0,0,0,56.64,50.11Z" style="fill:#00b0e8"/><path d="M57.25,46.56a.5.5,0,1,0-1,.19,7.81,7.81,0,0,1,.16,1.53c0,.11,0,.22,0,.33a.52.52,0,0,0,.47.53h0a.51.51,0,0,0,.5-.47c0-.13,0-.26,0-.39A9,9,0,0,0,57.25,46.56Z" style="fill:#00b0e8"/><path d="M45.67,49c-.55-.32-1.12-.66-1.69-1a.49.49,0,0,0-.69.15.5.5,0,0,0,.15.69c.59.38,1.16.73,1.73,1.05a.45.45,0,0,0,.25.07.5.5,0,0,0,.25-.93Z" style="fill:#00b0e8"/><path d="M40.76,45.65a.5.5,0,1,0-.61.79c.54.42,1.08.83,1.62,1.21a.52.52,0,0,0,.29.09.51.51,0,0,0,.41-.21.49.49,0,0,0-.12-.69C41.83,46.46,41.3,46.07,40.76,45.65Z" style="fill:#00b0e8"/><path d="M49.2,50.68c-.58-.22-1.19-.49-1.79-.78a.5.5,0,0,0-.67.23.49.49,0,0,0,.23.66c.63.31,1.26.59,1.87.82a.39.39,0,0,0,.18,0,.48.48,0,0,0,.46-.32A.5.5,0,0,0,49.2,50.68Z" style="fill:#00b0e8"/><path d="M21.27,52.41a13.09,13.09,0,0,0,5.44,5" style="fill:#fff"/><path d="M27,56.43a12.18,12.18,0,0,1-4.93-4.55A1,1,0,1,0,20.43,53a13.87,13.87,0,0,0,6,5.37,1,1,0,0,0,.32.06,1,1,0,0,0,.33-2Z" style="fill:#00263e"/><path d="M33.56,52.3a11.35,11.35,0,0,0-3.2-5.07A11.33,11.33,0,0,0,25.3,44a37.73,37.73,0,0,0-7.52-4.84c-4.08-1.91-7.27-2-9-.31s-1.6,4.88.31,9a44,44,0,0,0,8.76,11.88C23.51,65.37,30.67,70,35.38,70a4.53,4.53,0,0,0,3.34-1.23C41.82,65.7,38.71,58.7,33.56,52.3Zm-9-6.76c.76-.76,3.06.31,5.15,2.4s3.15,4.38,2.4,5.14-3.06-.32-5.15-2.4S23.75,46.29,24.51,45.54Zm12.8,21.85c-2.12,2.11-10-1.09-18-9.07A42.3,42.3,0,0,1,10.93,47c-1.48-3.17-1.74-5.68-.71-6.71a2.64,2.64,0,0,1,1.92-.62A12.1,12.1,0,0,1,16.93,41a34.33,34.33,0,0,1,6,3.71,5.66,5.66,0,0,1-1.55.71,1.87,1.87,0,0,1-1.77-.18,1,1,0,0,0-1.41,1.41,3.2,3.2,0,0,0,2.33.9,5.35,5.35,0,0,0,1.38-.2,5.81,5.81,0,0,0,.86-.3,12.19,12.19,0,0,0,3.1,4.68,12.12,12.12,0,0,0,4.68,3.09c-.61,1.44-.88,3.33.39,4.61A1,1,0,1,0,32.34,58c-.74-.74,0-2.6.55-3.33C37.38,60.62,39,65.75,37.31,67.39Z" style="fill:#00263e"/><circle cx="72.69" cy="34.1" r="1" style="fill:#00263e"/><circle cx="72.69" cy="29.86" r="1" style="fill:#00263e"/><circle cx="70.57" cy="31.98" r="1" style="fill:#00263e"/><circle cx="68.45" cy="34.1" r="1" style="fill:#00263e"/><circle cx="70.57" cy="27.74" r="1" style="fill:#00263e"/><circle cx="68.45" cy="29.86" r="1" style="fill:#00263e"/><circle cx="66.32" cy="31.98" r="1" style="fill:#00263e"/><circle cx="70.57" cy="23.49" r="1" style="fill:#00263e"/><circle cx="68.45" cy="25.62" r="1" style="fill:#00263e"/><circle cx="66.32" cy="27.74" r="1" style="fill:#00263e"/><circle cx="64.2" cy="29.86" r="1" style="fill:#00263e"/><circle cx="62.08" cy="31.98" r="1" style="fill:#00263e"/><circle cx="68.45" cy="21.37" r="1" style="fill:#00263e"/><circle cx="66.32" cy="23.49" r="1" style="fill:#00263e"/><circle cx="64.2" cy="25.62" r="1" style="fill:#00263e"/><circle cx="62.08" cy="27.74" r="1" style="fill:#00263e"/><circle cx="59.96" cy="29.86" r="1" style="fill:#00263e"/><circle cx="66.32" cy="19.25" r="1" style="fill:#00263e"/><circle cx="64.2" cy="21.37" r="1" style="fill:#00263e"/><circle cx="62.08" cy="23.49" r="1" style="fill:#00263e"/><circle cx="59.96" cy="25.62" r="1" style="fill:#00263e"/><circle cx="57.84" cy="27.74" r="1" style="fill:#00263e"/><circle cx="64.2" cy="17.13" r="1" style="fill:#00263e"/><circle cx="62.08" cy="19.25" r="1" style="fill:#00263e"/><circle cx="59.96" cy="21.37" r="1" style="fill:#00263e"/><circle cx="57.84" cy="23.49" r="1" style="fill:#00263e"/><circle cx="55.72" cy="25.62" r="1" style="fill:#00263e"/><circle cx="62.08" cy="15.01" r="1" style="fill:#00263e"/><circle cx="59.96" cy="17.13" r="1" style="fill:#00263e"/><circle cx="57.84" cy="19.25" r="1" style="fill:#00263e"/><circle cx="55.72" cy="21.37" r="1" style="fill:#00263e"/><circle cx="53.6" cy="23.49" r="1" style="fill:#00263e"/><circle cx="59.96" cy="12.89" r="1" style="fill:#00263e"/><circle cx="57.84" cy="15.01" r="1" style="fill:#00263e"/><circle cx="55.72" cy="17.13" r="1" style="fill:#00263e"/><circle cx="53.6" cy="19.25" r="1" style="fill:#00263e"/><circle cx="51.48" cy="21.37" r="1" style="fill:#00263e"/><circle cx="57.84" cy="10.77" r="1" style="fill:#00263e"/><circle cx="55.72" cy="12.89" r="1" style="fill:#00263e"/><circle cx="53.6" cy="15.01" r="1" style="fill:#00263e"/><circle cx="51.48" cy="17.13" r="1" style="fill:#00263e"/><path d="M48.65,18.54a1,1,0,0,1,1.41,0,1,1,0,0,1,0,1.42Z" style="fill:#00263e"/><circle cx="55.72" cy="8.64" r="1" style="fill:#00263e"/><circle cx="53.6" cy="10.77" r="1" style="fill:#00263e"/><circle cx="51.48" cy="12.89" r="1" style="fill:#00263e"/><circle cx="49.35" cy="15.01" r="1" style="fill:#00263e"/><path d="M46.53,16.42a1,1,0,0,1,1.41,0,1,1,0,0,1,0,1.42Z" style="fill:#00263e"/><circle cx="51.48" cy="8.64" r="1" style="fill:#00263e"/><circle cx="49.35" cy="10.77" r="1" style="fill:#00263e"/><circle cx="47.23" cy="12.89" r="1" style="fill:#00263e"/><circle cx="49.35" cy="6.52" r="1" style="fill:#00263e"/><circle cx="47.23" cy="8.64" r="1" style="fill:#00263e"/><circle cx="45.11" cy="10.77" r="1" style="fill:#00263e"/><circle cx="45.11" cy="6.52" r="1" style="fill:#00263e"/><path d="M65,14.59A44.14,44.14,0,0,0,53.09,5.83c-4.08-1.9-7.26-2-9-.31-1.33,1.34-1.54,3.6-.65,6.48l-.91.91c-1.75,1.76-2,4.6-1.1,7.86L40.22,22c-1.37,1.36-1.62,3.6-.71,6.29a10,10,0,0,0,.36.94l-1.76,1.63C36.47,32.5,38.47,36,41,38.53c1.9,1.91,4.32,3.5,6.12,3.5a2.1,2.1,0,0,0,1.57-.61l1.5-1.62a9.74,9.74,0,0,0,3.79.9,4.85,4.85,0,0,0,3.55-1.36l1.09-1.09a11.8,11.8,0,0,0,3.3.51A6.44,6.44,0,0,0,66.65,37l.89-.88a10.87,10.87,0,0,0,3.15.56A4.56,4.56,0,0,0,74,35.43C77.86,31.61,72.22,21.84,65,14.59ZM47.3,40c-.39.18-2.38-.42-4.86-2.9s-3.08-4.48-2.95-4.81L40.8,31.1a22.51,22.51,0,0,0,3.55,4.56,21.35,21.35,0,0,0,4,3.19Zm8.83-2.09c-1.6,1.61-6,.66-10.36-3.68a18,18,0,0,1-4.37-6.59c-.64-1.91-.56-3.45.23-4.24l.58-.57a29.1,29.1,0,0,0,6.24,8.9,27,27,0,0,0,8.12,5.74Zm9.1-2.35c-2.83,2.84-9.59.54-15.36-5.24-5.94-5.94-8.64-13.27-5.89-16l.27-.27c.07.15.11.29.18.44a44.54,44.54,0,0,0,8.76,11.87,44.64,44.64,0,0,0,12.3,9ZM72.62,34c-2.11,2.11-10-1.09-18-9.07a41.93,41.93,0,0,1-8.36-11.31C44.77,10.47,44.5,8,45.54,6.93a2.67,2.67,0,0,1,1.92-.62,12.15,12.15,0,0,1,4.79,1.33A42.68,42.68,0,0,1,63.56,16C71.54,24,74.74,31.9,72.62,34Z" style="fill:#00263e"/></svg>