<?xml version="1.0" encoding="UTF-8"?>
<svg width="24px" height="24px" viewBox="0 0 24 24" version="1.1" xmlns="http://www.w3.org/2000/svg" xmlns:xlink="http://www.w3.org/1999/xlink">
    <!-- Generator: Sketch 55 (78076) - https://sketchapp.com -->
    <title>icon-quantity-white</title>
    <desc>Created with Sketch.</desc>
    <g id="icon-quantity" stroke="none" stroke-width="1" fill="none" fill-rule="evenodd">
        <path d="M10.8825,2.2925 C11.2725,1.9025 11.9125,1.9025 12.2925,2.2925 L16.8825,6.8825 C17.2725,7.2725 17.2725,7.9025 16.8825,8.2925 C16.4925,8.6825 15.8625,8.6825 15.4725,8.2925 L11.5925,4.4125 L7.7025,8.2925 C7.3125,8.6825 6.6825,8.6825 6.2925,8.2925 C5.9025,7.9025 5.9025,7.2725 6.2925,6.8825 L10.8825,2.2925 Z M10.8825,21.2925 L6.2925,16.7025 C5.9025,16.3125 5.9025,15.6825 6.2925,15.2925 C6.6825,14.9025 7.3125,14.9025 7.7025,15.2925 L11.5925,19.1725 L15.4725,15.2925 C15.8625,14.9025 16.4925,14.9025 16.8825,15.2925 C17.2725,15.6825 17.2725,16.3125 16.8825,16.7025 L12.2925,21.2925 C11.9125,21.6825 11.2725,21.6825 10.8825,21.2925 Z" id="Combined-Shape" fill="#FFFFFF" fill-rule="nonzero"></path>
    </g>
</svg>