
<svg width="34px" height="33px" viewBox="0 0 34 33" version="1.1" xmlns="http://www.w3.org/2000/svg" xmlns:xlink="http://www.w3.org/1999/xlink">
    <defs>
        <polygon id="path-1" points="0 0.704202899 33.3330435 0.704202899 33.3330435 13.0433333 0 13.0433333"></polygon>
    </defs>
    <g id="symbols" stroke="none" stroke-width="1" fill="none" fill-rule="evenodd">
        <g id="components/PDP/detail-view/sm" transform="translate(-11.000000, -477.000000)">
            <g id="Base-Color" transform="translate(8.000000, 474.000000)">
                <g id="icon/pop-base-icon">
                    <g id="Group-12" transform="translate(3.333333, 3.333333)">
                        <g id="Group-3" transform="translate(0.000000, 18.840580)">
                            <mask id="mask-2" fill="white">
                                <use xlink:href="#path-1"></use>
                            </mask>
                            <g id="Clip-2"></g>
                            <path d="M24.7721739,0.78826087 L24.6228986,1.49695652 L9.1142029,1.4157971 L8.97507246,0.704202899 C3.35478261,1.8042029 -0.000289855072,3.97956522 -0.000289855072,6.5215942 C-0.000289855072,10.7578261 8.58811594,13.0433333 16.6663768,13.0433333 C24.746087,13.0433333 33.3330435,10.7578261 33.3330435,6.5215942 C33.3330435,4.05637681 30.1330435,1.91289855 24.7721739,0.78826087" id="Fill-1" fill="#00263E" mask="url(#mask-2)"></path>
                        </g>
                        <path d="M12.1575362,21.7391304 L10.4662319,24.5565217 C10.4662319,25.8028986 13.2430435,26.8115942 16.6662319,26.8115942 C20.0908696,26.8115942 22.8662319,25.8028986 22.8662319,24.5565217 L21.1763768,21.7391304" id="Fill-4" fill="#00263E"></path>
                        <path d="M16.6666667,27.5362319 C13.2246377,27.5362319 9.74202899,26.5130435 9.74202899,24.5565217 L9.74202899,24.3565217 L11.5362319,21.3666667 L12.7782609,22.1115942 L11.2347826,24.6855072 C11.5362319,25.1811594 13.4188406,26.0869565 16.6666667,26.0869565 C19.9144928,26.0869565 21.7956522,25.1811594 22.0985507,24.6855072 L20.5550725,22.1115942 L21.7971014,21.3666667 L23.5898551,24.3565217 L23.5898551,24.5565217 C23.5898551,26.5130435 20.1072464,27.5362319 16.6666667,27.5362319" id="Fill-6" fill="#FFFFFF"></path>
                        <path d="M32.6086957,6.52173913 C32.6086957,3.32028986 25.4710145,0.724637681 16.6666667,0.724637681 C7.86231884,0.724637681 0.724637681,3.32028986 0.724637681,6.52173913 C0.724637681,7.89275362 2.04202899,9.15217391 4.23188406,10.1449275 L3.98550725,10.1449275 L3.98550725,11.5275362 C3.98550725,13.3 5.42898551,14.9028986 7.76231884,16.0695652 L7.76231884,17.9304348 C7.76231884,20.4347826 11.8637681,22.4637681 16.9217391,22.4637681 C21.9797101,22.4637681 25.5710145,20.4347826 25.5710145,17.9304348 L25.5710145,16.2478261 C27.9376812,15.0695652 29.3478261,13.3942029 29.3478261,11.5275362 L29.3478261,10.1449275 L29.1,10.1449275 C31.2913043,9.15217391 32.6086957,7.89275362 32.6086957,6.52173913" id="Fill-8" fill="#FFFFFF"></path>
                        <path d="M16.6666667,11.5942029 C7.69855072,11.5942029 1.44927536,8.92028986 1.44927536,6.52173913 C1.44927536,4.12318841 7.69855072,1.44927536 16.6666667,1.44927536 C25.6333333,1.44927536 31.884058,4.12318841 31.884058,6.52173913 C31.884058,8.92028986 25.6333333,11.5942029 16.6666667,11.5942029 L16.6666667,11.5942029 Z M28.6231884,11.5275362 C28.6231884,14.742029 23.5304348,17.2594203 17.0289855,17.2594203 C10.3521739,17.2594203 4.71014493,14.6347826 4.71014493,11.5275362 L4.71014493,11.142029 C7.92753623,12.3884058 12.3623188,13.0434783 16.6666667,13.0434783 C20.9710145,13.0434783 25.4057971,12.3884058 28.6231884,11.142029 L28.6231884,11.5275362 Z M24.8463768,17.9304348 C24.8463768,19.8028986 21.8826087,21.7391304 16.9202899,21.7391304 C11.9507246,21.7391304 8.48695652,19.7318841 8.48695652,17.9304348 L8.48695652,17.1913043 C10.8202899,18.1434783 13.7724638,18.7086957 17.0289855,18.7086957 C20.0144928,18.7086957 22.6942029,18.2057971 24.8463768,17.3449275 L24.8463768,17.9304348 Z M33.3333333,6.52173913 C33.3333333,2.28550725 24.7463768,0 16.6666667,0 C8.58695652,0 0,2.28550725 0,6.52173913 C0,8.14057971 1.26086957,9.47246377 3.26086957,10.5028986 L3.26086957,11.5275362 C3.26086957,13.4811594 4.69130435,15.2246377 7.03768116,16.5072464 L7.03768116,17.9304348 C7.03768116,20.8782609 11.3797101,23.1884058 16.9202899,23.1884058 C22.3521739,23.1884058 26.2956522,20.9782609 26.2956522,17.9304348 L26.2956522,16.6753623 C28.6521739,15.3898551 30.0724638,13.5869565 30.0724638,11.5275362 L30.0724638,10.5028986 C32.073913,9.47246377 33.3333333,8.14057971 33.3333333,6.52173913 L33.3333333,6.52173913 Z" id="Fill-10" fill="#00263E"></path>
                    </g>
                </g>
            </g>
        </g>
    </g>
</svg>