<svg id="Layer_1" data-name="Layer 1" xmlns="http://www.w3.org/2000/svg" viewBox="0 0 80 80"><title>pop-wireless-charging-icon</title><circle cx="41.05" cy="32.52" r="9.58" style="fill:#ff99d1"/><path d="M46.76,30.17a.27.27,0,0,0-.22-.12h-3.6l1-13a.24.24,0,0,0-.18-.26.25.25,0,0,0-.29.12l-7.88,15.2a.25.25,0,0,0,0,.25.26.26,0,0,0,.21.12h3.6l-1,13a.25.25,0,0,0,.18.26h.07a.25.25,0,0,0,.22-.13l7.88-15.2A.28.28,0,0,0,46.76,30.17Z" style="fill:#00263e"/><circle cx="31.41" cy="55.5" r="1" style="fill:#00263e"/><path d="M49.41,36.5a1,1,0,0,0-.93.69c-.5-.19-1-.36-1.54-.52a1,1,0,0,0-.53-.17h-.06l-.45-.09-.57,1.1A17.25,17.25,0,0,1,50,39.32c5.52,3.18,5.55,8.36.07,11.55s-14.43,3.18-19.94,0-5.54-8.37-.06-11.55a18.5,18.5,0,0,1,7-2.2l.09-1.23A22.65,22.65,0,0,0,32.24,37a1,1,0,0,0-.83-.47,1,1,0,0,0-1,1,1.16,1.16,0,0,0,0,.18c-.4.19-.79.39-1.16.61a11.53,11.53,0,0,0-2.9,2.33s0-.08,0-.12a1,1,0,1,0-.65.93,6.87,6.87,0,0,0-.62,1.12,1,1,0,0,0-.73,1,1,1,0,0,0,.25.64,5.82,5.82,0,0,0-.07.93,7,7,0,0,0,.06.8,1,1,0,0,0-.24.63,1,1,0,0,0,.67.93,7.51,7.51,0,0,0,.59,1.12,1.09,1.09,0,0,0-.26,0,1,1,0,1,0,1,1,11.57,11.57,0,0,0,2.95,2.37c.34.19.7.38,1.06.55,0,0,0,0,0,0a1,1,0,0,0,1,1,1,1,0,0,0,.74-.34,24.05,24.05,0,0,0,8,1.31A23.59,23.59,0,0,0,48.56,53a1,1,0,0,0,.85.51,1,1,0,0,0,1-1,1.14,1.14,0,0,0-.06-.33l.52-.27a9.57,9.57,0,0,0,4.22-4.46,1.2,1.2,0,0,0,.32.06,1,1,0,0,0,1-1,1,1,0,0,0-.87-1c0-.14,0-.28,0-.42s0-.42,0-.63a1,1,0,0,0-.11-2,1.16,1.16,0,0,0-.41.09,7.79,7.79,0,0,0-1.64-2.34,1,1,0,0,0-.77-.72,13.45,13.45,0,0,0-1.79-1.24L50.26,38a1,1,0,0,0,.15-.51A1,1,0,0,0,49.41,36.5Z" style="fill:#00263e"/><circle cx="40.41" cy="55.5" r="1" style="fill:#00263e"/><circle cx="49.41" cy="55.5" r="1" style="fill:#00263e"/><circle cx="34.41" cy="55.5" r="1" style="fill:#00263e"/><circle cx="37.41" cy="55.5" r="1" style="fill:#00263e"/><circle cx="46.41" cy="55.5" r="1" style="fill:#00263e"/><circle cx="52.41" cy="55.5" r="1" style="fill:#00263e"/><circle cx="55.41" cy="49.5" r="1" style="fill:#00263e"/><circle cx="55.41" cy="40.5" r="1" style="fill:#00263e"/><circle cx="52.41" cy="52.5" r="1" style="fill:#00263e"/><circle cx="55.41" cy="52.5" r="1" style="fill:#00263e"/><circle cx="43.41" cy="55.5" r="1" style="fill:#00263e"/><circle cx="28.41" cy="52.5" r="1" style="fill:#00263e"/><circle cx="22.41" cy="49.5" r="1" style="fill:#00263e"/><circle cx="22.41" cy="46.5" r="1" style="fill:#00263e"/><circle cx="58.41" cy="46.5" r="1" style="fill:#00263e"/><circle cx="58.41" cy="49.5" r="1" style="fill:#00263e"/><circle cx="58.41" cy="43.5" r="1" style="fill:#00263e"/><circle cx="22.41" cy="43.5" r="1" style="fill:#00263e"/><circle cx="28.41" cy="55.5" r="1" style="fill:#00263e"/><circle cx="25.41" cy="52.5" r="1" style="fill:#00263e"/><path d="M39.14,35.74,39.05,37a23.78,23.78,0,0,1,4.22.2L43.86,36A26.55,26.55,0,0,0,39.14,35.74Z" style="fill:#00263e"/><path d="M63.58,46.51a.42.42,0,0,0,0-.16c-.3-3.58-2.79-6.89-7.1-9.38l-.31-.16a.94.94,0,0,0-.51-.27,30.44,30.44,0,0,0-8.32-2.81l-.95,1.83A31.6,31.6,0,0,1,51.6,37a1,1,0,0,0-.19.55,1,1,0,0,0,1,1,1,1,0,0,0,1-.83c.71.32,1.41.66,2.06,1a17.24,17.24,0,0,1,2.06,1.4,1.06,1.06,0,0,0-.09.4,1,1,0,0,0,1,1,1,1,0,0,0,.51-.16,10.18,10.18,0,0,1,1.53,2,1.06,1.06,0,0,0,0,.19,1,1,0,0,0,.6.91,6.38,6.38,0,0,1,.35,1.1,1,1,0,0,0,0,2,.5.5,0,0,0,.13,0,7.07,7.07,0,0,1-.13,1,1,1,0,0,0-1,1,1,1,0,0,0,.38.77,9.5,9.5,0,0,1-1.41,2.07,1,1,0,0,0-1-.84,1,1,0,0,0-1,1,1,1,0,0,0,.85,1,17,17,0,0,1-2,1.49,1,1,0,0,0-1.83.54.93.93,0,0,0,.12.44A27.34,27.34,0,0,1,50,57.73a.94.94,0,0,0-.61-.23,1,1,0,0,0-.92.64l-1.1.23a1,1,0,0,0-1-.87,1,1,0,0,0-1,1,1.18,1.18,0,0,0,0,.2c-.37.06-.73.12-1.11.16a1,1,0,0,0,.07-.36,1,1,0,1,0-1.84.51l-1.35.06a1.05,1.05,0,0,0,.19-.57,1,1,0,1,0-1.79.58l-1.39,0a.94.94,0,0,0,.18-.54,1,1,0,0,0-2,0,1.12,1.12,0,0,0,.09.41l-1.14-.14a1.08,1.08,0,0,0,0-.27,1,1,0,0,0-2,0l-1.06-.21a1,1,0,0,0-1.68-.43,27,27,0,0,1-4.52-1.68,1,1,0,0,0,.25-.65,1,1,0,0,0-1-1,1,1,0,0,0-.94.74,16.27,16.27,0,0,1-2.71-2,1,1,0,0,0,.65.26,1,1,0,1,0-1-1,1,1,0,0,0,.27.67,10.83,10.83,0,0,1-2.16-2.69,1,1,0,0,0-.11-2,.94.94,0,0,0-.57.2,6.58,6.58,0,0,1-.24-1.65,1,1,0,1,0,.81-1.55,1,1,0,0,0-.69.29,6.53,6.53,0,0,1,.4-1.35.94.94,0,0,0,.29.06A1,1,0,0,0,20,42.73,12.21,12.21,0,0,1,21.56,41a1,1,0,0,0,.85.52,1,1,0,0,0,1-1,1,1,0,0,0-.37-.76,19,19,0,0,1,1.59-1l.49-.26a1,1,0,0,0,.29.06,1,1,0,0,0,.94-.7l1.1-.46a.75.75,0,0,0,0,.16,1,1,0,0,0,2,0,1,1,0,0,0-.37-.76,31.34,31.34,0,0,1,5.22-1.27l.15,0a1,1,0,0,0,.45-.12c.6-.08,1.21-.15,1.82-.21a1,1,0,0,0,.48.27l.07-1H35.79A2.23,2.23,0,0,1,34,33.51,30,30,0,0,0,23.62,37c-4.28,2.49-6.74,5.82-7,9.42a.5.5,0,0,0,0,.12s0,4.54,0,6.05c.17,3.51,2.78,6.76,7,9.18a33.47,33.47,0,0,0,15.89,3.94,9,9,0,0,1-3,3.06c-3.19,1.9-7.46,1.51-12.35-1.12-4.62-2.49-8.72-3.09-12.16-1.78a11.42,11.42,0,0,0-6.25,6.32,1,1,0,0,0,.59,1.28,1.07,1.07,0,0,0,.35.06,1,1,0,0,0,.94-.66,9.58,9.58,0,0,1,5.1-5.14c2.87-1.08,6.4-.52,10.48,1.68,7,3.77,11.66,2.67,14.32,1.08a11.26,11.26,0,0,0,4.29-4.81,32.65,32.65,0,0,0,14.85-3.91c4.18-2.42,6.29-5.6,6.88-9.18,0-.06,0-3.89,0-5.42,0,0,0,0,0-.06s0,0,0-.07Z" style="fill:#00263e"/><path d="M39.34,33.06l-.15,2h.39a1,1,0,0,0,1.65,0c.47,0,.94,0,1.41.07a1,1,0,0,0,.77.38,1,1,0,0,0,.67-.27l.17,0,1-1.86A39.68,39.68,0,0,0,39.34,33.06Z" style="fill:#00263e"/><path d="M23.67,28.5a17.5,17.5,0,0,1,35,0,17.32,17.32,0,0,1-1.13,6.12l.88.49a18.15,18.15,0,0,0,1.25-6.61,18.5,18.5,0,1,0-36.09,5.7l.91-.44A17.23,17.23,0,0,1,23.67,28.5Z" style="fill:#00b0e8"/><path d="M20.06,36.3A22.51,22.51,0,1,1,61.8,37.45c.27.23.54.45.79.69a23.5,23.5,0,1,0-43.36-1.23C19.5,36.7,19.78,36.49,20.06,36.3Z" style="fill:#00b0e8"/><path d="M28.67,28.5A12.51,12.51,0,0,1,41.17,16l.48,0,0-.06a2.25,2.25,0,0,1,.84-.89A12.08,12.08,0,0,0,41.17,15a13.51,13.51,0,0,0-13.5,13.5,13.37,13.37,0,0,0,.56,3.82l.95-.3A12.33,12.33,0,0,1,28.67,28.5Z" style="fill:#00b0e8"/><path d="M33.67,28.5a7.51,7.51,0,0,1,5.21-7.14l.62-1.19a8.5,8.5,0,0,0-6.83,8.33,8.35,8.35,0,0,0,.43,2.61l.79-.12.12-.24A7.61,7.61,0,0,1,33.67,28.5Z" style="fill:#00b0e8"/><path d="M48.52,31.36l.59.14a8.43,8.43,0,0,0-3.5-10.23l-.09,1.14a7.49,7.49,0,0,1,3.15,6.09,7.3,7.3,0,0,1-.07.94,2.26,2.26,0,0,1-.06,1.9Z" style="fill:#00b0e8"/><path d="M45.53,15.74a2.28,2.28,0,0,1,.39,1.2,12.48,12.48,0,0,1,7,15.67l.93.34a13.43,13.43,0,0,0-8.37-17.21Z" style="fill:#00b0e8"/></svg>