
<svg width="24px" height="24px" viewBox="0 0 24 24" version="1.1" xmlns="http://www.w3.org/2000/svg" xmlns:xlink="http://www.w3.org/1999/xlink">
    <defs>
        <polygon id="path-1" points="0 1.53846154e-05 23.0779385 1.53846154e-05 23.0779385 23.0769231 0 23.0769231"></polygon>
        <polygon id="path-3" points="0 4.61538462e-05 23.0779231 4.61538462e-05 23.0779231 23.0769231 0 23.0769231"></polygon>
    </defs>
    <g id="system" stroke="none" stroke-width="1" fill="none" fill-rule="evenodd">
        <g id="icons-buttons-fields" transform="translate(-110.000000, -95.000000)">
            <rect fill="#FFFFFF" x="0" y="0" width="1280" height="2900"></rect>
            <g id="branding/eyecon" transform="translate(110.000000, 95.000000)">
                <g id="Group-11" transform="translate(0.307692, 0.461538)">
                    <g id="Group-3">
                        <mask id="mask-2" fill="white">
                            <use xlink:href="#path-1"></use>
                        </mask>
                        <g id="Clip-2"></g>
                        <path d="M19.6974,3.37916923 C15.1920154,-1.12636923 7.88570769,-1.12636923 3.38016923,3.37916923 C-1.12675385,7.88470769 -1.12675385,15.1908615 3.38016923,19.6977846 C7.88570769,24.2033231 15.1920154,24.2033231 19.6974,19.6977846 C24.2047846,15.1908615 24.2047846,7.88470769 19.6974,3.37916923" id="Fill-1" fill="#FFFFFF" mask="url(#mask-2)"></path>
                    </g>
                    <g id="Group-6">
                        <mask id="mask-4" fill="white">
                            <use xlink:href="#path-3"></use>
                        </mask>
                        <g id="Clip-5"></g>
                        <path d="M17.1144615,19.5607385 C13.5841538,23.0910462 7.67892308,22.9084308 3.92446154,19.1538154 C0.168153846,15.3973538 -0.0144615385,9.49258462 3.51584615,5.96166154 C7.04492308,2.43304615 12.9513846,2.61535385 16.7064615,6.37027692 C20.4607692,10.1252 20.6433846,16.0318154 17.1144615,19.5607385 M19.6973846,3.3792 C15.192,-1.12633846 7.88569231,-1.12633846 3.38015385,3.3792 C-1.12676923,7.88458462 -1.12676923,15.1908923 3.38015385,19.6978154 C7.88569231,24.2033538 15.192,24.2033538 19.6973846,19.6978154 C24.2047692,15.1908923 24.2047692,7.88458462 19.6973846,3.3792" id="Fill-4" fill="#FF3EB5" mask="url(#mask-4)"></path>
                    </g>
                    <path d="M12.3539385,18.8810462 C10.5525538,20.6844308 7.2644,20.3176615 5.01070769,18.0658154 C2.75886154,15.8121231 2.39409231,12.5241231 4.19547692,10.7227385 C5.99686154,8.91950769 9.28532308,9.28566154 11.5390154,11.5376615 C13.7922462,13.7912 14.1571692,17.0796615 12.3539385,18.8810462 M13.9857846,9.09027692 C10.9820923,6.08612308 6.41686154,5.78089231 3.78686154,8.41073846 C1.15886154,11.0387385 1.46393846,15.6058154 4.46686154,18.6096615 C7.47070769,21.6121231 12.0377846,21.9172 14.6657846,19.2892 C17.2953231,16.6598154 16.9900923,12.0945846 13.9857846,9.09027692" id="Fill-7" fill="#EF3340"></path>
                    <path d="M8.1394,17.6573385 C7.76324615,18.0334923 6.85093846,17.7282615 6.09893846,16.9776462 C5.34816923,16.2270308 5.04493846,15.3134923 5.41924615,14.9371846 C5.79555385,14.5628769 6.7074,14.8661077 7.4594,15.6167231 C8.21001538,16.3691846 8.51509231,17.2810308 8.1394,17.6573385 M9.36278462,13.7138 C7.85970769,12.2125692 5.79047692,11.8459538 4.73970769,12.8984154 C3.68847692,13.9491846 4.0534,16.0190308 5.55632308,17.5214923 C7.05770769,19.0231846 9.12678462,19.3876462 10.1780154,18.3368769 C11.2306308,17.2861077 10.8658615,15.2150308 9.36278462,13.7138" id="Fill-9" fill="#00263E"></path>
                </g>
            </g>
        </g>
    </g>
</svg>