<?xml version="1.0" encoding="UTF-8"?>
<svg width="18px" height="18px" viewBox="0 0 12 12" version="1.1" xmlns="http://www.w3.org/2000/svg" xmlns:xlink="http://www.w3.org/1999/xlink">
    <!-- Generator: Sketch 55 (78076) - https://sketchapp.com -->
    <title>icon-tooltip</title>
    <desc>Created with Sketch.</desc>
    <g id="icon-tooltip" stroke="none" stroke-width="1" fill="none" fill-rule="evenodd">
        <path d="M6,0 C9.312,0 12,2.688 12,6 C12,9.312 9.312,12 6,12 C2.688,12 0,9.312 0,6 C0,2.688 2.688,0 6,0 Z M6,11 C8.7625,11 11,8.7625 11,6 C11,3.2375 8.7625,1 6,1 C3.2375,1 1,3.2375 1,6 C1,8.7625 3.2375,11 6,11 Z M5.379,3.024 L5.379,2.97 C5.379,2.646 5.649,2.439 6,2.439 C6.351,2.439 6.621,2.646 6.621,2.97 L6.621,3.024 C6.621,3.348 6.351,3.564 6,3.564 C5.649,3.564 5.379,3.348 5.379,3.024 Z M5.46,8.505 L5.46,4.743 C5.46,4.437 5.694,4.194 6,4.194 C6.306,4.194 6.549,4.437 6.549,4.743 L6.549,8.505 C6.549,8.811 6.306,9.045 6,9.045 C5.703,9.045 5.46,8.811 5.46,8.505 Z" id="Combined-Shape" fill="#00263E" fill-rule="nonzero"></path>
    </g>
</svg>