<svg id="Layer_1" data-name="Layer 1" xmlns="http://www.w3.org/2000/svg" viewBox="0 0 80 80"><title>pop-stand-grip-icon</title><circle cx="61.38" cy="24" r="16.11" style="fill:#ff99d1"/><path d="M64.16,44.84l-.29.13L56.16,47.9a2.31,2.31,0,0,1,1.44.77c1.51,1.84-.78,6.11-5.11,9.54s-9.06,4.72-10.57,2.88c-.64-.79-.59-2,0-3.45l-.12.1-.65-.8a3.73,3.73,0,0,1-.67-3.09l-26,9.88c5.91,3.59,15.32,5.92,25.92,5.92C58.3,69.65,72.8,63,72.8,54.88,72.8,51,69.52,47.47,64.16,44.84ZM52.51,61.92c-3.19,2.53-6.47,3.91-8.87,3.91a3.59,3.59,0,0,1-2.91-1.16.87.87,0,1,1,1.35-1.11c1,1.26,5.25.24,9.35-3a.87.87,0,1,1,1.08,1.37Z" style="fill:#00263e"/><path d="M62.57,29.28a3,3,0,0,1-1.88-.64,2.93,2.93,0,0,1-1-2.3,4.07,4.07,0,0,1,3.22-3.86,3.08,3.08,0,0,1,2.52.59,2.91,2.91,0,0,1,1,2.29,4.06,4.06,0,0,1-3.22,3.86A3.55,3.55,0,0,1,62.57,29.28Zm1-5.11a1.63,1.63,0,0,0-.31,0,2.33,2.33,0,0,0-1.81,2.14,1.2,1.2,0,0,0,.4.94,1.23,1.23,0,0,0,1.07.22,2.33,2.33,0,0,0,1.81-2.14,1.21,1.21,0,0,0-.4-.94A1.16,1.16,0,0,0,63.52,24.17Z" style="fill:#00263e"/><polygon points="14.99 50.82 11.18 47 11.01 47.18 14.82 51 14.99 50.82" style="fill:#00263e"/><polygon points="29 34.82 25.18 31 25 31.18 28.82 35 29 34.82" style="fill:#00263e"/><polygon points="19 38.82 15.18 35 15.01 35.18 18.82 39 19 38.82" style="fill:#00263e"/><polygon points="9.01 39.18 12.82 43 12.99 42.82 9.18 39 9.01 39.18" style="fill:#00263e"/><polygon points="12.99 46.82 9.18 43 9.01 43.18 12.82 47 12.99 46.82" style="fill:#00263e"/><polygon points="31 34.82 27.18 31 27 31.18 30.82 35 31 34.82" style="fill:#00263e"/><polygon points="11.01 39.18 14.82 43 14.99 42.82 11.18 39 11.01 39.18" style="fill:#00263e"/><polygon points="17 42.82 13.18 39 13.01 39.18 16.82 43 17 42.82" style="fill:#00263e"/><polygon points="11.01 43.18 14.82 47 14.99 46.82 11.18 43 11.01 43.18" style="fill:#00263e"/><polygon points="17 50.82 13.18 47 13.01 47.18 16.82 51 17 50.82" style="fill:#00263e"/><polygon points="9.01 47.18 12.82 51 12.99 50.82 9.18 47 9.01 47.18" style="fill:#00263e"/><polygon points="36.99 30.82 33.18 27.01 33.17 27.01 33.01 27.18 36.82 31 36.99 30.82" style="fill:#00263e"/><polygon points="34.99 30.82 31.76 27.58 31.51 27.68 34.82 31 34.99 30.82" style="fill:#00263e"/><polygon points="34.99 26.82 34.61 26.43 34.36 26.53 34.82 27 34.99 26.82" style="fill:#00263e"/><polygon points="29 30.82 27.49 29.31 27.23 29.41 28.82 31 29 30.82" style="fill:#00263e"/><polygon points="34.99 34.82 31.18 31 31 31.18 34.82 35 34.99 34.82" style="fill:#00263e"/><polygon points="32.99 30.82 30.34 28.16 30.08 28.26 32.82 31 32.99 30.82" style="fill:#00263e"/><polygon points="31 30.82 28.91 28.73 28.66 28.84 30.82 31 31 30.82" style="fill:#00263e"/><polygon points="36.99 34.82 33.18 31 33.01 31.18 36.82 35 36.99 34.82" style="fill:#00263e"/><polygon points="29 31.18 32.82 35 32.99 34.82 29.18 31 29 31.18" style="fill:#00263e"/><polygon points="38.99 30.82 35.18 27 35.01 27.18 38.82 31 38.99 30.82" style="fill:#00263e"/><polygon points="25 34.82 21.79 31.61 21.54 31.71 24.82 35 25 34.82" style="fill:#00263e"/><polygon points="27 34.82 23.21 31.04 23.11 31.08 23 31.18 26.82 35 27 34.82" style="fill:#00263e"/><polygon points="23 34.82 20.36 32.19 20.11 32.29 22.82 35 23 34.82" style="fill:#00263e"/><polygon points="31 38.82 27.18 35 27 35.18 30.82 39 31 38.82" style="fill:#00263e"/><polygon points="25 30.82 24.64 30.46 24.39 30.56 24.82 31 25 30.82" style="fill:#00263e"/><polygon points="17 34.82 16.09 33.91 15.84 34.01 16.82 35 17 34.82" style="fill:#00263e"/><polygon points="21 34.82 18.94 32.76 18.69 32.86 20.82 35 21 34.82" style="fill:#00263e"/><polygon points="29 38.82 25.18 35 25 35.18 28.82 39 29 38.82" style="fill:#00263e"/><polygon points="21 38.82 17.18 35 17 35.18 20.82 39 21 38.82" style="fill:#00263e"/><polygon points="19 34.82 17.51 33.34 17.26 33.44 18.82 35 19 34.82" style="fill:#00263e"/><polygon points="21 42.82 17.18 39 17 39.18 20.82 43 21 42.82" style="fill:#00263e"/><polygon points="17 46.82 13.18 43 13.01 43.18 16.82 47 17 46.82" style="fill:#00263e"/><polygon points="15.01 39.18 18.82 43 19 42.82 15.18 39 15.01 39.18" style="fill:#00263e"/><polygon points="21 46.82 17.18 43 17 43.18 20.82 47 21 46.82" style="fill:#00263e"/><polygon points="19 46.82 15.18 43 15.01 43.18 18.82 47 19 46.82" style="fill:#00263e"/><polygon points="27 38.82 23.18 35 23 35.18 26.82 39 27 38.82" style="fill:#00263e"/><polygon points="23 42.82 19.18 39 19 39.18 22.82 43 23 42.82" style="fill:#00263e"/><polygon points="25 42.82 21.18 39 21 39.18 24.82 43 25 42.82" style="fill:#00263e"/><polygon points="21 35.18 24.82 39 25 38.82 21.18 35 21 35.18" style="fill:#00263e"/><polygon points="27 42.82 23.18 39 23 39.18 26.82 43 27 42.82" style="fill:#00263e"/><polygon points="23 38.82 19.18 35 19 35.18 22.82 39 23 38.82" style="fill:#00263e"/><polygon points="27 30.82 26.06 29.88 25.81 29.99 26.82 31 27 30.82" style="fill:#00263e"/><polygon points="62.99 18.82 60.25 16.08 60 16.18 62.82 19 62.99 18.82" style="fill:#00263e"/><polygon points="65 18.82 61.68 15.5 61.43 15.6 64.82 19 65 18.82" style="fill:#00263e"/><polygon points="67 22.82 63.18 19 63.01 19.18 66.82 23 67 22.82" style="fill:#00263e"/><polygon points="69 22.82 65.18 19 65 19.18 68.82 23 69 22.82" style="fill:#00263e"/><polygon points="60.99 18.82 58.83 16.65 58.58 16.75 60.82 19 60.99 18.82" style="fill:#00263e"/><polygon points="58.99 18.82 57.4 17.23 57.15 17.33 58.82 19 58.99 18.82" style="fill:#00263e"/><polygon points="58.99 22.82 55.18 19 55.01 19.18 58.82 23 58.99 22.82" style="fill:#00263e"/><polygon points="54.99 18.82 54.55 18.38 54.3 18.48 54.82 19 54.99 18.82" style="fill:#00263e"/><polygon points="60.99 22.82 57.18 19 57.01 19.18 60.82 23 60.99 22.82" style="fill:#00263e"/><polygon points="61.01 19.18 64.82 23 65 22.82 61.18 19 61.01 19.18" style="fill:#00263e"/><polygon points="56.99 18.82 55.98 17.8 55.73 17.9 56.82 19 56.99 18.82" style="fill:#00263e"/><polygon points="65 14.82 64.53 14.35 64.28 14.45 64.82 15 65 14.82" style="fill:#00263e"/><polygon points="69 18.82 65.18 15 65 15.18 68.82 19 69 18.82" style="fill:#00263e"/><polygon points="69 14.82 68.29 14.11 67.75 13.92 68.82 15 69 14.82" style="fill:#00263e"/><polygon points="67 18.82 63.18 15 63.01 15.18 66.82 19 67 18.82" style="fill:#00263e"/><polygon points="67 14.82 65.95 13.78 65.7 13.88 66.82 15 67 14.82" style="fill:#00263e"/><polygon points="59.01 19.18 62.82 23 62.99 22.82 59.18 19 59.01 19.18" style="fill:#00263e"/><path d="M57,23.18l3.57,3.57a2.58,2.58,0,0,1,0-.4L57.18,23Z" style="fill:#00263e"/><path d="M63.18,23l-.18.18.15.15a1.84,1.84,0,0,1,.33,0Z" style="fill:#00263e"/><path d="M61.18,23l-.18.18.77.76.2-.15Z" style="fill:#00263e"/><path d="M59.18,23l-.18.18L60.86,25a1.71,1.71,0,0,1,.13-.23Z" style="fill:#00263e"/><polygon points="36.99 26.82 36.03 25.86 35.78 25.96 36.82 27 36.99 26.82" style="fill:#00263e"/><polygon points="48.99 26.82 45.18 23 45.01 23.18 48.82 27 48.99 26.82" style="fill:#00263e"/><polygon points="44.99 30.82 41.18 27 41.01 27.18 44.82 31 44.99 30.82" style="fill:#00263e"/><polygon points="44.99 22.82 44.58 22.41 44.33 22.51 44.82 23 44.99 22.82" style="fill:#00263e"/><polygon points="44.99 26.82 41.73 23.56 41.48 23.66 44.82 27 44.99 26.82" style="fill:#00263e"/><polygon points="46.99 30.82 43.18 27 43.01 27.18 46.82 31 46.99 30.82" style="fill:#00263e"/><polygon points="39.01 27.18 42.82 31 42.99 30.82 39.18 27 39.01 27.18" style="fill:#00263e"/><polygon points="40.99 30.82 37.18 27 37.01 27.18 40.82 31 40.99 30.82" style="fill:#00263e"/><polygon points="42.99 26.82 40.31 24.13 40.06 24.23 42.82 27 42.99 26.82" style="fill:#00263e"/><polygon points="38.99 26.82 37.46 25.28 37.21 25.38 38.82 27 38.99 26.82" style="fill:#00263e"/><polygon points="40.99 26.82 38.88 24.71 38.63 24.81 40.82 27 40.99 26.82" style="fill:#00263e"/><polygon points="56.99 22.82 53.18 19 53.01 19.18 56.82 23 56.99 22.82" style="fill:#00263e"/><polygon points="54.99 26.82 51.18 23 51.01 23.18 54.82 27 54.99 26.82" style="fill:#00263e"/><polygon points="49.01 23.18 52.82 27 52.99 26.82 49.18 23 49.01 23.18" style="fill:#00263e"/><polygon points="46.99 22.82 46.01 21.83 45.76 21.93 46.82 23 46.99 22.82" style="fill:#00263e"/><polygon points="56.99 26.82 53.18 23 53.01 23.18 56.82 27 56.99 26.82" style="fill:#00263e"/><polygon points="54.99 22.82 51.7 19.53 51.45 19.63 54.82 23 54.99 22.82" style="fill:#00263e"/><polygon points="52.99 22.82 50.28 20.1 50.03 20.2 52.82 23 52.99 22.82" style="fill:#00263e"/><polygon points="48.99 22.82 47.43 21.25 47.18 21.36 48.82 23 48.99 22.82" style="fill:#00263e"/><polygon points="50.99 26.82 47.18 23 47.01 23.18 50.82 27 50.99 26.82" style="fill:#00263e"/><polygon points="50.99 22.82 48.86 20.68 48.6 20.78 50.82 23 50.99 22.82" style="fill:#00263e"/><polygon points="46.99 26.82 43.18 23 43.01 23.18 46.82 27 46.99 26.82" style="fill:#00263e"/><path d="M37,35.18l1,1,.23-.13L37.18,35Z" style="fill:#00263e"/><path d="M35,35.18,36.79,37l.22-.14L35.18,35Z" style="fill:#00263e"/><path d="M31,35.18l3.51,3.51.2-.16L31.18,35Z" style="fill:#00263e"/><path d="M33,35.18l2.62,2.61.2-.15L33.18,35Z" style="fill:#00263e"/><path d="M33,39.18l.5.49.17-.18L33.18,39Z" style="fill:#00263e"/><polygon points="35.01 31.18 38.82 35 38.99 34.82 35.18 31 35.01 31.18" style="fill:#00263e"/><path d="M23,47.18l.7.69.2-.15L23.18,47Z" style="fill:#00263e"/><path d="M39,35.18l.39.39.25-.11L39.18,35Z" style="fill:#00263e"/><path d="M41,31.18l3.31,3.3.39.05L41.18,31Z" style="fill:#00263e"/><polygon points="37.01 31.18 40.82 35 40.99 34.82 37.18 31 37.01 31.18" style="fill:#00263e"/><polygon points="21 43.18 24.82 47 25 46.82 21.18 43 21 43.18" style="fill:#00263e"/><path d="M27,43.18l1.37,1.37.22-.14L27.18,43Z" style="fill:#00263e"/><path d="M25,43.18l2.19,2.19.21-.15L25.18,43Z" style="fill:#00263e"/><path d="M23,43.18l3,3,.21-.15-3-3Z" style="fill:#00263e"/><path d="M43,31.18l3,3L46.2,34l-3-3Z" style="fill:#00263e"/><polygon points="25 39.18 28.82 43 29 42.82 25.18 39 25 39.18" style="fill:#00263e"/><path d="M27,39.18,30.77,43l.22-.14L27.18,39Z" style="fill:#00263e"/><path d="M29,39.18l2.76,2.75.13-.22L29.18,39Z" style="fill:#00263e"/><path d="M31,39.18l1.57,1.57.15-.21L31.18,39Z" style="fill:#00263e"/><path d="M29,43.18l.57.57.21-.15-.6-.6Z" style="fill:#00263e"/><polygon points="29 35.18 32.82 39 32.99 38.82 29.18 35 29 35.18" style="fill:#00263e"/><path d="M39,31.18l3.44,3.44.31,0L39.18,31Z" style="fill:#00263e"/><path d="M65,23.18l2.43,2.43.28-.08L65.18,23Z" style="fill:#00263e"/><polygon points="55.01 23.18 58.82 27 58.99 26.82 55.18 23 55.01 23.18" style="fill:#00263e"/><path d="M67,23.18l2,2,.28-.07L67.18,23Z" style="fill:#00263e"/><path d="M65.52,25.7l.35.35.28-.08-.6-.6C65.55,25.48,65.53,25.59,65.52,25.7Z" style="fill:#00263e"/><path d="M59,27.18l.86.86.26-.1L59.18,27Z" style="fill:#00263e"/><polygon points="69 23.18 69.92 24.1 69.95 23.78 69.18 23 69 23.18" style="fill:#00263e"/><polygon points="67 19.18 70.1 22.28 70.13 21.95 67.18 19 67 19.18" style="fill:#00263e"/><polygon points="69.18 15 69 15.18 70.64 16.82 70.67 16.5 69.18 15" style="fill:#00263e"/><polygon points="67 15.18 70.46 18.64 70.49 18.32 67.18 15 67 15.18" style="fill:#00263e"/><polygon points="69 19.18 70.28 20.46 70.31 20.14 69.18 19 69 19.18" style="fill:#00263e"/><path d="M49,31.18l1,1,.24-.12L49.18,31Z" style="fill:#00263e"/><path d="M45,31.18l2.3,2.3.24-.12L45.18,31Z" style="fill:#00263e"/><polygon points="47.01 27.18 50.82 31 50.99 30.82 47.18 27 47.01 27.18" style="fill:#00263e"/><polygon points="14.99 34.82 14.66 34.49 14.41 34.59 14.82 35 14.99 34.82" style="fill:#00263e"/><path d="M47,31.18l1.64,1.64.24-.12L47.18,31Z" style="fill:#00263e"/><polygon points="45.01 27.18 48.82 31 48.99 30.82 45.18 27 45.01 27.18" style="fill:#00263e"/><path d="M51,27.18l3.14,3.13.25-.1L51.18,27Z" style="fill:#00263e"/><path d="M49,27.18l3.75,3.74.24-.11L49.18,27Z" style="fill:#00263e"/><path d="M53,27.18l2.54,2.54.25-.1L53.18,27Z" style="fill:#00263e"/><path d="M55,27.18l2,2,.25-.1-2-2Z" style="fill:#00263e"/><path d="M57,27.18l1.4,1.4.26-.1L57.18,27Z" style="fill:#00263e"/><path d="M51,31.18l.36.36.25-.11L51.18,31Z" style="fill:#00263e"/><polygon points="5 62.82 3.54 61.37 3.48 61.66 4.82 63 5 62.82" style="fill:#00263e"/><polygon points="8.99 54.82 5.71 51.53 5.65 51.83 8.82 55 8.99 54.82" style="fill:#00263e"/><polygon points="7 50.82 6.07 49.9 6.01 50.19 6.82 51 7 50.82" style="fill:#00263e"/><polygon points="7 46.82 6.8 46.62 6.73 46.91 6.82 47 7 46.82" style="fill:#00263e"/><polygon points="8.99 50.82 6.43 48.26 6.37 48.55 8.82 51 8.99 50.82" style="fill:#00263e"/><polygon points="7 58.82 4.63 56.45 4.56 56.74 6.82 59 7 58.82" style="fill:#00263e"/><polygon points="7 51.18 10.82 55 10.99 54.82 7.18 51 7 51.18" style="fill:#00263e"/><polygon points="8.99 58.82 5.18 55 5 55.18 8.82 59 8.99 58.82" style="fill:#00263e"/><polygon points="5 58.82 4.26 58.09 4.2 58.38 4.82 59 5 58.82" style="fill:#00263e"/><polygon points="4.99 54.81 4.99 54.83 5 54.82 4.99 54.81" style="fill:#00263e"/><polygon points="7 54.82 5.35 53.17 5.29 53.46 6.82 55 7 54.82" style="fill:#00263e"/><polygon points="10.99 38.82 8.96 36.79 8.9 37.08 10.82 39 10.99 38.82" style="fill:#00263e"/><polygon points="10.99 42.82 8.24 40.07 8.18 40.35 10.82 43 10.99 42.82" style="fill:#00263e"/><polygon points="12.99 38.82 10.39 36.21 10.14 36.31 12.82 39 12.99 38.82" style="fill:#00263e"/><polygon points="14.99 38.82 11.81 35.64 11.56 35.74 14.82 39 14.99 38.82" style="fill:#00263e"/><polygon points="17 38.82 13.24 35.06 13.05 35.14 13.01 35.18 16.82 39 17 38.82" style="fill:#00263e"/><polygon points="8.99 46.82 7.16 44.98 7.09 45.27 8.82 47 8.99 46.82" style="fill:#00263e"/><polygon points="12.99 54.82 9.18 51 9.01 51.18 12.82 55 12.99 54.82" style="fill:#00263e"/><polygon points="8.99 42.82 7.88 41.7 7.82 41.99 8.82 43 8.99 42.82" style="fill:#00263e"/><polygon points="10.99 50.82 7.18 47 7 47.18 10.82 51 10.99 50.82" style="fill:#00263e"/><polygon points="10.99 46.82 7.52 43.34 7.46 43.63 10.82 47 10.99 46.82" style="fill:#00263e"/><path d="M13,51.18l2.94,2.94.19-.17-2.95-3Z" style="fill:#00263e"/><path d="M15,51.18l2,2L17.2,53l-2-2Z" style="fill:#00263e"/><path d="M17,51.18l1.09,1.09.2-.16L17.18,51Z" style="fill:#00263e"/><polygon points="11.01 51.18 14.82 55 14.99 54.82 11.18 51 11.01 51.18" style="fill:#00263e"/><path d="M13,55.18l.85.85.18-.17L13.18,55Z" style="fill:#00263e"/><polygon points="19 43.18 22.82 47 23 46.82 19.18 43 19 43.18" style="fill:#00263e"/><polygon points="15.01 47.18 18.82 51 19 50.82 15.18 47 15.01 47.18" style="fill:#00263e"/><path d="M19,47.18l2.42,2.42.2-.16L19.18,47Z" style="fill:#00263e"/><path d="M21,47.18l1.55,1.55.21-.15L21.18,47Z" style="fill:#00263e"/><path d="M19,51.18l.19.19.2-.16L19.18,51Z" style="fill:#00263e"/><path d="M17,47.18l3.3,3.3a1.56,1.56,0,0,1,.2-.16L17.18,47Z" style="fill:#00263e"/><polygon points="4.07 64.25 5.21 65.39 5.42 65.25 3.18 63 4.07 64.25" style="fill:#00263e"/><path d="M7,63.18l.2.2.15-.21L7.18,63Z" style="fill:#00263e"/><polygon points="3.84 60.02 6.82 63 7 62.82 3.9 59.73 3.84 60.02" style="fill:#00263e"/><path d="M5,59.18l3.06,3.06.16-.2-3-3Z" style="fill:#00263e"/><path d="M5,63.18l1.39,1.38c0-.07.09-.14.14-.21L5.18,63Z" style="fill:#00263e"/><path d="M9,59.18l.89.89.17-.19L9.18,59Z" style="fill:#00263e"/><polygon points="7 55.18 10.82 59 10.99 58.82 7.18 55 7 55.18" style="fill:#00263e"/><path d="M9,55.18,11.83,58l.17-.18L9.18,55Z" style="fill:#00263e"/><path d="M7,59.18l2,2L9.12,61,7.18,59Z" style="fill:#00263e"/><path d="M11,55.18,12.83,57l.18-.18L11.18,55Z" style="fill:#00263e"/><path d="M47.62,49.67c.16-.15.32-.28.48-.41A2.09,2.09,0,0,0,47.62,49.67Z" style="fill:#00263e"/><path d="M72,18a1.37,1.37,0,0,0,0-.35,4.63,4.63,0,0,0-2-3.77,3.92,3.92,0,0,0-3.33-.56L10.41,34.64a4.19,4.19,0,0,0-2.66,3L2.33,61.42A4.53,4.53,0,0,0,4.1,65.54a3.79,3.79,0,0,0,2.33.95,2.66,2.66,0,0,0,.63-.09h.08a1.54,1.54,0,0,0,.56-.1L39.57,54.2a4.52,4.52,0,0,0,.7,2.95,7.14,7.14,0,0,0-.53,1.94,4.08,4.08,0,0,0,.83,3.11,4.33,4.33,0,0,0,3.56,1.48c2.68,0,6.21-1.53,9.45-4.1,3.53-2.8,5.91-6.22,6.2-8.91A4.08,4.08,0,0,0,59,47.56a3.75,3.75,0,0,0-.53-.52L63.87,45a4.24,4.24,0,0,0,2.67-3L72,18.21c0-.06,0-.13,0-.19h0ZM5.51,64.39a2.61,2.61,0,0,1-.3-.2A2.85,2.85,0,0,1,4,61.78L9.45,38.06A2.5,2.5,0,0,1,11,36.27L67.25,14.91a2.37,2.37,0,0,1,1.73.43,2.46,2.46,0,0,1,.85,1l-.08,0L13.57,37.66a4.27,4.27,0,0,0-2.66,3ZM35.82,45a.85.85,0,0,0,1.2.21,2.2,2.2,0,0,1,1.08.44.69.69,0,0,0-.05.13c-2.76,1.11-5.11,1.11-6,.16a1.77,1.77,0,0,1-.36-1.42c.21-1.86,2.08-4.31,4.79-6.25,4.14-3,8.37-3.53,9.59-2.16a1.7,1.7,0,0,1,.36,1.41,7.49,7.49,0,0,1-2.07,3.83A2.5,2.5,0,0,1,44,40.18a.88.88,0,0,0-1.09-1.37A1.58,1.58,0,0,0,42.26,40a2.91,2.91,0,0,0,.16,1.19,5.75,5.75,0,0,0-2.16,1,5.14,5.14,0,0,0-1.6,1.76A2.45,2.45,0,0,0,36,43.72.89.89,0,0,0,35.82,45Zm12.25.43a13.38,13.38,0,0,0-4.42,2.37,12.51,12.51,0,0,0-3,3.39A1.73,1.73,0,0,1,40.38,50a5.69,5.69,0,0,1,2.3-3.47C44.91,44.73,47.29,44.5,48.07,45.38Zm-6.89-1a3.81,3.81,0,0,1,2.21-1l.33.43a9.53,9.53,0,0,0-2.12,1.3A9.9,9.9,0,0,0,40,46.67l-.33-.38A3.8,3.8,0,0,1,41.18,44.41Zm.13,9.89a8.41,8.41,0,0,1,3.43-5.18c2.39-1.9,5.17-2.73,6.94-2.27A21.72,21.72,0,0,0,46,50.18a21,21,0,0,0-4.62,5A3.33,3.33,0,0,1,41.31,54.3Zm11.18,3.91c-.34.27-.67.51-1,.75h0l-.19.13A18.17,18.17,0,0,1,49,60.46l-.07,0h0c-.26.14-.53.27-.79.39h0l-.29.12h0a11.47,11.47,0,0,1-2.73.83h0l-.18,0a7.94,7.94,0,0,1-.81.06h-.1a3.19,3.19,0,0,1-.54,0h0l-.19,0h0a3.62,3.62,0,0,1-.47-.13l-.09,0h0a2,2,0,0,1-.33-.16h0a1.88,1.88,0,0,1-.51-.42,1.59,1.59,0,0,1-.22-.35l-.06-.13h0a1.59,1.59,0,0,0-.07-.2c0-.13-.06-.26-.08-.4s0,0,0-.08h0c0-.13,0-.26,0-.39v-.07h0c0-.14,0-.28.05-.43v0h0c0-.1,0-.2.06-.31h0l0-.11h0a6.51,6.51,0,0,1,.33-.93,9,9,0,0,1,.46-.94l.09-.15c.19-.31.38-.63.61-.95h0l.42-.56.06-.08c.17-.22.35-.43.53-.64h0l0-.06c.15-.18.32-.35.48-.53l0,0,.12-.13h0l.57-.56v0l0,0,.75-.69.07-.06h0c.25-.22.52-.44.79-.65s.41-.31.62-.47.63-.45,1-.66l.24-.17.95-.57.24-.14c.32-.17.63-.34,1-.49l.22-.1c.32-.15.63-.28.93-.4l.19-.07a8.19,8.19,0,0,1,1-.31l.11,0a6.41,6.41,0,0,1,2.74-.23,2.74,2.74,0,0,1,.53.14l.09,0h0a2.55,2.55,0,0,1,.33.17h0a2.07,2.07,0,0,1,.5.43C59.11,50.51,56.82,54.78,52.49,58.21ZM64.83,41.54a2.5,2.5,0,0,1-1.58,1.79L56,46.11a5,5,0,0,0-.56,0,8,8,0,0,0-1.35.13A5,5,0,0,0,50,45l-.58-.7a3.93,3.93,0,0,0-4-1l-.26-.33a9.81,9.81,0,0,0,3-5.28,3.47,3.47,0,0,0-.79-2.77c-2-2.27-7.27-1.44-11.92,1.91-3.14,2.25-5.25,5.12-5.51,7.48a3.47,3.47,0,0,0,.8,2.77h0a4.53,4.53,0,0,0,3.48,1.28,12,12,0,0,0,4.13-.89l.69.79a5,5,0,0,0-.44,1.55,3.36,3.36,0,0,0,.7,2.57l0,0L7.25,64.61l5.37-23.52A2.48,2.48,0,0,1,14.2,39.3L70.2,18Z" style="fill:#00263e"/><circle cx="57.03" cy="49.03" r="1" style="fill:#00263e"/><circle cx="57.03" cy="52.03" r="1" style="fill:#00263e"/><circle cx="54.03" cy="49.03" r="1" style="fill:#00263e"/><circle cx="54.03" cy="52.03" r="1" style="fill:#00263e"/><circle cx="54.03" cy="55.03" r="1" style="fill:#00263e"/><circle cx="54.03" cy="58.03" r="1" style="fill:#00263e"/><circle cx="51.03" cy="49.03" r="1" style="fill:#00263e"/><circle cx="51.03" cy="52.03" r="1" style="fill:#00263e"/><circle cx="51.03" cy="55.03" r="1" style="fill:#00263e"/><circle cx="51.03" cy="58.03" r="1" style="fill:#00263e"/><circle cx="48.03" cy="52.03" r="1" style="fill:#00263e"/><circle cx="48.03" cy="55.03" r="1" style="fill:#00263e"/><circle cx="48.03" cy="58.03" r="1" style="fill:#00263e"/><circle cx="48.03" cy="61.03" r="1" style="fill:#00263e"/><circle cx="45.03" cy="55.03" r="1" style="fill:#00263e"/><circle cx="45.03" cy="58.03" r="1" style="fill:#00263e"/><circle cx="45.03" cy="61.03" r="1" style="fill:#00263e"/><circle cx="42.03" cy="58.03" r="1" style="fill:#00263e"/><circle cx="42.03" cy="61.03" r="1" style="fill:#00263e"/></svg>