<?xml version="1.0" encoding="UTF-8"?>
<svg width="24px" height="24px" viewBox="0 0 24 24" version="1.1" xmlns="http://www.w3.org/2000/svg" xmlns:xlink="http://www.w3.org/1999/xlink">
    <!-- Generator: Sketch 55 (78076) - https://sketchapp.com -->
    <title>icon-social-instagram-white</title>
    <desc>Created with Sketch.</desc>
    <g id="icon-social-instagram" stroke="none" stroke-width="1" fill="none" fill-rule="evenodd">
        <path d="M11.9962143,0.0476238095 C15.2542143,0.0476238095 15.6626905,0.0614333333 16.9422143,0.119814286 C18.219119,0.178052381 19.091119,0.380861905 19.8542143,0.677433333 C20.6430714,0.983957143 21.3120714,1.39414762 21.9789762,2.06105238 C22.6459286,2.72800476 23.0560714,3.39700476 23.3626429,4.18581429 C23.6592143,4.94890952 23.8620238,5.82090952 23.9202619,7.09781429 C23.9786429,8.3773381 23.9924524,8.7858619 23.9924524,12.0438143 C23.9924524,15.3018143 23.9786429,15.7103381 23.9202619,16.9898619 C23.8620238,18.266719 23.6592143,19.1387667 23.3626429,19.9018143 C23.0560714,20.6906714 22.6459286,21.3596714 21.9789762,22.0265762 C21.3120714,22.6935286 20.6430714,23.1036714 19.8542143,23.4102905 C19.091119,23.7068143 18.219119,23.9096238 16.9422143,23.9679095 C15.6626905,24.0262429 15.2542143,24.0400524 11.9962143,24.0400524 C8.7382619,24.0400524 8.32969048,24.0262429 7.05021429,23.9679095 C5.77330952,23.9096238 4.90130952,23.7068143 4.13821429,23.4102905 C3.34940476,23.1036714 2.68035714,22.6935286 2.01345238,22.0265762 C1.3465,21.3596714 0.936357143,20.6906238 0.629785714,19.9018143 C0.333214286,19.1387667 0.130452381,18.266719 0.0721666667,16.9898619 C0.0137857143,15.7103381 2.38095234e-05,15.3018143 2.38095234e-05,12.0438143 C2.38095234e-05,8.78581429 0.0137857143,8.3773381 0.0721666667,7.09781429 C0.130452381,5.82090952 0.333214286,4.94890952 0.629785714,4.18581429 C0.936357143,3.39700476 1.3465,2.72800476 2.01345238,2.06105238 C2.68035714,1.39414762 3.34940476,0.983957143 4.13821429,0.677433333 C4.90130952,0.380861905 5.77330952,0.178052381 7.05021429,0.119814286 C8.32969048,0.0614333333 8.7382619,0.0476238095 11.9962143,0.0476238095 Z M11.9962143,2.2091 C8.79307143,2.2091 8.41369048,2.22129048 7.14869048,2.27900476 C5.97911905,2.33238571 5.34388095,2.52781429 4.92116667,2.6921 C4.3612619,2.90971905 3.96159524,3.16967143 3.54183333,3.58948095 C3.12207143,4.00924286 2.86207143,4.4088619 2.64445238,4.96881429 C2.48021429,5.39152857 2.28478571,6.02671905 2.23140476,7.1963381 C2.17369048,8.46129048 2.1615,8.84071905 2.1615,12.0438143 C2.1615,15.2469571 2.17369048,15.6263857 2.23140476,16.8913381 C2.28478571,18.0609571 2.48021429,18.6961476 2.64445238,19.1188619 C2.86207143,19.6787667 3.12207143,20.0784333 3.54183333,20.4981952 C3.96159524,20.9180048 4.3612619,21.1779571 4.92116667,21.3955762 C5.34388095,21.5598143 5.97911905,21.7552905 7.1487381,21.8086238 C8.4135,21.8663381 8.79283333,21.8785762 11.9962143,21.8785762 C15.1995952,21.8785762 15.5789286,21.8663381 16.8436905,21.8086238 C18.0133095,21.7552905 18.6485,21.5598143 19.0712143,21.3955762 C19.6311667,21.1779571 20.0308333,20.9180048 20.4505952,20.4981952 C20.8703571,20.0784333 21.1303095,19.6787667 21.3479762,19.1188619 C21.5122143,18.6961476 21.7076429,18.0609571 21.7610238,16.8912905 C21.8186905,15.6263857 21.8309286,15.2469571 21.8309286,12.0438143 C21.8309286,8.84071905 21.8186905,8.46129048 21.7610238,7.1963381 C21.7076429,6.02671905 21.5122143,5.39152857 21.3479762,4.96881429 C21.1303095,4.4088619 20.8703571,4.00924286 20.4505952,3.58943333 C20.0308333,3.16967143 19.6311667,2.90971905 19.0712143,2.6921 C18.6485,2.52781429 18.0133095,2.33238571 16.8436905,2.27900476 C15.5787381,2.22129048 15.1993571,2.2091 11.9962143,2.2091 Z M11.9962143,16.0425762 C14.2046429,16.0425762 15.9949762,14.2522429 15.9949762,12.0438143 C15.9949762,9.83538571 14.2046429,8.0451 11.9962143,8.0451 C9.78778571,8.0451 7.99745238,9.83538571 7.99745238,12.0438143 C7.99745238,14.2522429 9.78778571,16.0425762 11.9962143,16.0425762 Z M11.9962143,5.88362381 C15.3984048,5.88362381 18.1564048,8.64162381 18.1564048,12.0438143 C18.1564048,15.4460524 15.3984048,18.2040524 11.9962143,18.2040524 C8.59402381,18.2040524 5.83597619,15.4460524 5.83597619,12.0438143 C5.83597619,8.64162381 8.59402381,5.88362381 11.9962143,5.88362381 Z M19.8393619,5.64023333 C19.8393619,6.43528095 19.1948857,7.07975714 18.3998381,7.07975714 C17.6047905,7.07975714 16.9602667,6.43528095 16.9602667,5.64023333 C16.9602667,4.84518571 17.6047905,4.20070952 18.3998381,4.20070952 C19.1948857,4.20070952 19.8393619,4.84518571 19.8393619,5.64023333 Z" id="Combined-Shape" fill="#FFFFFF"></path>
    </g>
</svg>