<?xml version="1.0" encoding="UTF-8"?>
<svg width="24px" height="24px" viewBox="0 0 24 24" version="1.1" xmlns="http://www.w3.org/2000/svg" xmlns:xlink="http://www.w3.org/1999/xlink">
    <!-- Generator: Sketch 55 (78076) - https://sketchapp.com -->
    <title>icon-social-youtube-white</title>
    <desc>Created with Sketch.</desc>
    <g id="icon-social-youtube" stroke="none" stroke-width="1" fill="none" fill-rule="evenodd">
        <path d="M9.6,16.4675618 L9.6,8.98698367 L15.8352389,12.7272727 L9.6,16.4675618 Z M23.4986048,6.72552809 C23.2224225,5.65288634 22.4092851,4.80786796 21.3766638,4.5211323 C19.5050253,4 11.9999012,4 11.9999012,4 C11.9999012,4 4.49497469,4 2.62333621,4.5211323 C1.5907149,4.80786796 0.777577479,5.65288634 0.501592789,6.72552809 C0,8.67007611 0,12.7272727 0,12.7272727 C0,12.7272727 0,16.7844693 0.501592789,18.7290174 C0.777577479,19.8016591 1.5907149,20.6466775 2.62333621,20.9334132 C4.49497469,21.4545455 11.9999012,21.4545455 11.9999012,21.4545455 C11.9999012,21.4545455 19.5050253,21.4545455 21.3766638,20.9334132 C22.4092851,20.6466775 23.2224225,19.8016591 23.4986048,18.7290174 C24,16.7844693 24,12.7272727 24,12.7272727 C24,12.7272727 24,8.67007611 23.4986048,6.72552809 L23.4986048,6.72552809 Z" id="Fill-1" fill="#FFFFFF"></path>
    </g>
</svg>