<?xml version="1.0" encoding="UTF-8"?>
<svg width="18px" height="18px" viewBox="0 0 18 18" version="1.1" xmlns="http://www.w3.org/2000/svg" xmlns:xlink="http://www.w3.org/1999/xlink">
    <!-- Generator: Sketch 55 (78076) - https://sketchapp.com -->
    <title>icon-Cancel -white</title>
    <desc>Created with Sketch.</desc>
    <g id="icon-Cancel-" stroke="none" stroke-width="1" fill="none" fill-rule="evenodd">
        <path d="M9,1.5 C4.8525,1.5 1.5,4.8525 1.5,9 C1.5,13.1475 4.8525,16.5 9,16.5 C13.1475,16.5 16.5,13.1475 16.5,9 C16.5,4.8525 13.1475,1.5 9,1.5 Z M12.225,12.225 C11.9325,12.5175 11.46,12.5175 11.1675,12.225 L9,10.0575 L6.8325,12.225 C6.54,12.5175 6.0675,12.5175 5.775,12.225 C5.63456049,12.0848764 5.5556358,11.8946382 5.5556358,11.69625 C5.5556358,11.4978618 5.63456049,11.3076236 5.775,11.1675 L7.9425,9 L5.775,6.8325 C5.63456049,6.69237636 5.5556358,6.50213823 5.5556358,6.30375 C5.5556358,6.10536177 5.63456049,5.91512364 5.775,5.775 C6.0675,5.4825 6.54,5.4825 6.8325,5.775 L9,7.9425 L11.1675,5.775 C11.46,5.4825 11.9325,5.4825 12.225,5.775 C12.5175,6.0675 12.5175,6.54 12.225,6.8325 L10.0575,9 L12.225,11.1675 C12.51,11.4525 12.51,11.9325 12.225,12.225 Z" id="icon/navigation/cancel_24px" fill="#FFFFFF" fill-rule="nonzero"></path>
    </g>
</svg>