
<svg width="160px" height="15.7px" viewBox="0 0 509 50" version="1.1" xmlns="http://www.w3.org/2000/svg" xmlns:xlink="http://www.w3.org/1999/xlink">
    <defs>
        <polygon id="path-1" points="0.40395 0 50.4062 0 50.4062 49.9999 0.40395 49.9999"></polygon>
    </defs>
    <g id="symbols" stroke="none" stroke-width="1" fill="none" fill-rule="evenodd">
        <g id="branding/logo/horizontal">
            <g id="pop_logo_rgb_horizontal">
                <path d="M473.9806,43.2408 C472.8476,42.4398 472.0436,40.9678 472.0436,39.3658 C472.0436,36.6938 474.1796,34.6188 476.8556,34.6188 C478.1916,34.6188 479.1256,35.0878 479.7936,35.5568 C483.3366,38.1628 487.2116,39.7678 491.7546,39.7678 C495.9626,39.7678 498.5056,38.0958 498.5056,35.3578 L498.5056,35.2208 C498.5056,32.6158 496.9006,31.2798 489.0836,29.2748 C479.6606,26.8688 473.5786,24.2628 473.5786,14.9768 L473.5786,14.8408 C473.5786,6.3548 480.3956,0.7418 489.9506,0.7418 C495.6306,0.7418 500.5766,2.2138 504.7846,4.8868 C505.9206,5.5538 507.0576,6.9568 507.0576,8.9608 C507.0576,11.6338 504.9176,13.7068 502.2456,13.7068 C501.2416,13.7068 500.4436,13.4378 499.6386,12.9728 C496.2326,10.9648 493.0256,9.8318 489.8176,9.8318 C485.8726,9.8318 483.8016,11.6338 483.8016,13.9068 L483.8016,14.0398 C483.8016,17.1138 485.8096,18.1178 493.8926,20.1888 C503.3816,22.6608 508.7256,26.0678 508.7256,34.2208 L508.7256,34.3538 C508.7256,43.6428 501.6436,48.8548 491.5526,48.8548 C485.4076,48.8548 479.1926,46.9838 473.9806,43.2408" id="Fill-1" fill="#F9B37B"></path>
                <path d="M437.6671,10.8995 L427.7791,10.8995 C425.1701,10.8995 423.0321,8.7625 423.0321,6.1535 C423.0321,3.5515 425.1701,1.4105 427.7791,1.4105 L457.8481,1.4105 C460.4531,1.4105 462.5911,3.5515 462.5911,6.1535 C462.5911,8.7625 460.4531,10.8995 457.8481,10.8995 L447.9601,10.8995 L447.9601,43.4415 C447.9601,46.3165 445.6841,48.5865 442.8121,48.5865 C439.9401,48.5865 437.6671,46.3165 437.6671,43.4415 L437.6671,10.8995 Z" id="Fill-3" fill="#FF3EB5"></path>
                <path d="M376.0831,43.0406 L376.0831,6.5576 C376.0831,3.6826 378.3561,1.4126 381.2281,1.4126 L407.1551,1.4126 C409.6951,1.4126 411.7661,3.4826 411.7661,6.0216 C411.7661,8.5616 409.6951,10.5656 407.1551,10.5656 L386.3071,10.5656 L386.3071,20.0546 L404.1471,20.0546 C406.6871,20.0546 408.7581,22.1246 408.7581,24.6646 C408.7581,27.2036 406.6871,29.2076 404.1471,29.2076 L386.3071,29.2076 L386.3071,39.0326 L407.4881,39.0326 C410.0271,39.0326 412.0981,41.1036 412.0981,43.6426 C412.0981,46.1816 410.0271,48.1856 407.4881,48.1856 L381.2281,48.1856 C378.3561,48.1856 376.0831,45.9126 376.0831,43.0406" id="Fill-5" fill="#00B0E8"></path>
                <path d="M323.9191,6.1554 C323.9191,3.2834 326.1921,1.0104 329.0651,1.0104 C331.9361,1.0104 334.2091,3.2834 334.2091,6.1554 L334.2091,21.8594 L353.1881,3.0144 C354.4571,1.7444 355.7271,1.0104 357.5311,1.0104 C360.4061,1.0104 362.2741,3.2174 362.2741,5.7564 C362.2741,7.3584 361.5391,8.5614 360.4061,9.6284 L347.2381,21.9264 L361.6071,39.9664 C362.4071,40.9704 363.0121,42.0374 363.0121,43.5764 C363.0121,46.4474 360.8051,48.5884 357.8011,48.5884 C355.7931,48.5884 354.5901,47.5844 353.4531,46.1154 L340.0921,28.6064 L334.2091,34.0874 L334.2091,43.4394 C334.2091,46.3144 331.9361,48.5884 329.0651,48.5884 C326.1921,48.5884 323.9191,46.3144 323.9191,43.4394 L323.9191,6.1554 Z" id="Fill-7" fill="#CC3AB2"></path>
                <path d="M267.9508,24.9327 L267.9508,24.7997 C267.9508,11.5017 277.9718,0.6097 292.3398,0.6097 C299.3558,0.6097 304.0988,2.4817 307.9778,5.3527 C309.0438,6.1537 309.9818,7.6267 309.9818,9.4317 C309.9818,12.2367 307.7078,14.4427 304.8998,14.4427 C303.4968,14.4427 302.5628,13.9077 301.8278,13.4397 C298.9528,11.2987 295.9498,10.0997 292.2728,10.0997 C284.3858,10.0997 278.7098,16.6467 278.7098,24.6667 L278.7098,24.7997 C278.7098,32.8157 284.2528,39.4997 292.2728,39.4997 C296.6178,39.4997 299.4888,38.1637 302.4268,35.8237 C303.2318,35.1557 304.3008,34.6867 305.5048,34.6867 C308.1108,34.6867 310.3138,36.8277 310.3138,39.4337 C310.3138,41.0357 309.5128,42.3057 308.5758,43.1057 C304.3678,46.7817 299.4218,48.9887 291.9368,48.9887 C278.1748,48.9887 267.9508,38.3637 267.9508,24.9327" id="Fill-9" fill="#80C342"></path>
                <path d="M207.1407,24.9327 L207.1407,24.7997 C207.1407,11.5017 217.6337,0.6097 232.0647,0.6097 C246.4987,0.6097 256.8557,11.3687 256.8557,24.6667 L256.8557,24.7997 C256.8557,38.0977 246.3627,48.9887 231.9317,48.9887 C217.4967,48.9887 207.1407,38.2307 207.1407,24.9327 M246.0967,24.9327 L246.0967,24.7997 C246.0967,16.7797 240.2177,10.0997 231.9317,10.0997 C223.6457,10.0997 217.8997,16.6467 217.8997,24.6667 L217.8997,24.7997 C217.8997,32.8157 223.7787,39.4997 232.0647,39.4997 C240.3507,39.4997 246.0967,32.9487 246.0967,24.9327" id="Fill-11" fill="#FFCF01"></path>
                <path d="M161.8805,43.2408 C160.7475,42.4398 159.9425,40.9678 159.9425,39.3658 C159.9425,36.6938 162.0835,34.6188 164.7555,34.6188 C166.0915,34.6188 167.0255,35.0878 167.6935,35.5568 C171.2365,38.1628 175.1115,39.7678 179.6545,39.7678 C183.8665,39.7678 186.4015,38.0958 186.4015,35.3578 L186.4015,35.2208 C186.4015,32.6158 184.7995,31.2798 176.9835,29.2748 C167.5605,26.8688 161.4785,24.2628 161.4785,14.9768 L161.4785,14.8408 C161.4785,6.3548 168.2955,0.7418 177.8505,0.7418 C183.5305,0.7418 188.4765,2.2138 192.6875,4.8868 C193.8205,5.5538 194.9575,6.9568 194.9575,8.9608 C194.9575,11.6338 192.8195,13.7068 190.1445,13.7068 C189.1445,13.7068 188.3395,13.4378 187.5425,12.9728 C184.1315,10.9648 180.9245,9.8318 177.7175,9.8318 C173.7755,9.8318 171.7055,11.6338 171.7055,13.9068 L171.7055,14.0398 C171.7055,17.1138 173.7095,18.1178 181.7925,20.1888 C191.2815,22.6608 196.6255,26.0678 196.6255,34.2208 L196.6255,34.3538 C196.6255,43.6428 189.5465,48.8548 179.4555,48.8548 C173.3065,48.8548 167.0915,46.9838 161.8805,43.2408" id="Fill-13" fill="#F57321"></path>
                <path d="M112.0026,6.5563 C112.0026,3.6843 114.2756,1.4113 117.1476,1.4113 L131.1136,1.4113 C142.2716,1.4113 149.0216,8.0253 149.0216,17.5803 L149.0216,17.7133 C149.0216,28.5383 140.6026,34.1523 130.1096,34.1523 L122.2926,34.1523 L122.2926,43.4423 C122.2926,46.3133 120.0196,48.5873 117.1476,48.5873 C114.2756,48.5873 112.0026,46.3133 112.0026,43.4423 L112.0026,6.5563 Z M130.4456,24.9993 C135.5906,24.9993 138.5986,21.9243 138.5986,17.9163 L138.5986,17.7803 C138.5986,13.1733 135.3916,10.7013 130.2466,10.7013 L122.2926,10.7013 L122.2926,24.9993 L130.4456,24.9993 Z" id="Fill-15" fill="#00263E"></path>
                <g id="Group-19" transform="translate(48.000000, 0.000000)">
                    <mask id="mask-2" fill="white">
                        <use xlink:href="#path-1"></use>
                    </mask>
                    <g id="Clip-18"></g>
                    <path d="M43.0817,7.3214 C33.3197,-2.4406 17.4897,-2.4406 7.7277,7.3214 C-2.0373,17.0834 -2.0373,32.9134 7.7277,42.6784 C17.4897,52.4404 33.3197,52.4404 43.0817,42.6784 C52.8477,32.9134 52.8477,17.0834 43.0817,7.3214 M37.4857,42.3814 C29.8367,50.0304 17.0417,49.6354 8.9067,41.5004 C0.7677,33.3614 0.3727,20.5674 8.0217,12.9174 C15.6677,5.2714 28.4657,5.6674 36.6007,13.8024 C44.7357,21.9374 45.1317,34.7354 37.4857,42.3814 M20.6897,29.7134 C23.9467,32.9664 24.7367,37.4534 22.4567,39.7304 C20.1797,42.0074 15.6957,41.2164 12.4427,37.9644 C9.1867,34.7074 8.3957,30.2234 10.6727,27.9464 C12.9497,25.6664 17.4337,26.4604 20.6897,29.7134 M16.5667,33.8364 C14.9367,32.2104 12.9607,31.5524 12.1457,32.3644 C11.3337,33.1794 11.9917,35.1584 13.6177,36.7854 C15.2477,38.4114 17.2247,39.0724 18.0397,38.2574 C18.8537,37.4424 18.1927,35.4664 16.5667,33.8364 M30.7067,19.6964 C24.1987,13.1864 14.3077,12.5264 8.6097,18.2234 C2.9147,23.9174 3.5767,33.8124 10.0817,40.3214 C16.5907,46.8264 26.4857,47.4884 32.1797,41.7934 C37.8777,36.0964 37.2167,26.2044 30.7067,19.6964 M27.1707,40.9084 C23.2677,44.8154 16.1437,44.0214 11.2607,39.1424 C6.3817,34.2594 5.5907,27.1354 9.4947,23.2324 C13.3977,19.3254 20.5217,20.1194 25.4047,24.9984 C30.2877,29.8814 31.0787,37.0054 27.1707,40.9084" id="Fill-17" fill="#00263E" mask="url(#mask-2)"></path>
                </g>
                <path d="M0.0001,6.5563 C0.0001,3.6843 2.2731,1.4113 5.1451,1.4113 L19.1111,1.4113 C30.2681,1.4113 37.0191,8.0253 37.0191,17.5803 L37.0191,17.7133 C37.0191,28.5383 28.6001,34.1523 18.1071,34.1523 L10.2901,34.1523 L10.2901,43.4423 C10.2901,46.3133 8.0201,48.5873 5.1451,48.5873 C2.2731,48.5873 0.0001,46.3133 0.0001,43.4423 L0.0001,6.5563 Z M18.4431,24.9993 C23.5881,24.9993 26.5961,21.9243 26.5961,17.9163 L26.5961,17.7803 C26.5961,13.1733 23.3881,10.7013 18.2431,10.7013 L10.2901,10.7013 L10.2901,24.9993 L18.4431,24.9993 Z" id="Fill-20" fill="#00263E"></path>
            </g>
        </g>
    </g>
</svg>