<?xml version="1.0" encoding="UTF-8"?>
<svg width="80px" height="80px" viewBox="0 0 80 80" version="1.1" xmlns="http://www.w3.org/2000/svg" xmlns:xlink="http://www.w3.org/1999/xlink">
    <!-- Generator: Sketch 55.1 (78136) - https://sketchapp.com -->
    <title>icon/purchases/security_rounded</title>
    <desc>Created with Sketch.</desc>
    <defs>
        <polygon id="path-1" points="0 0.401065151 35.0199 0.401065151 35.0199 57 0 57"></polygon>
    </defs>
    <g id="icon/purchases/security" stroke="none" stroke-width="1" fill="none" fill-rule="evenodd">
        <circle id="Oval" fill="#FFE3F1" cx="40" cy="40" r="29"></circle>
        <g id="Group-18" transform="translate(22.000000, 11.000000)">
            <g id="Group-3" transform="translate(0.000000, 0.598600)">
                <mask id="mask-2" fill="white">
                    <use xlink:href="#path-1"></use>
                </mask>
                <g id="Clip-2"></g>
                <path d="M5.9629,25.2012 L3.0619,23.5142 L9.5709,19.7262 L9.5639,23.9842 C9.5619,25.0892 10.4549,25.9862 11.5599,25.9882 L11.5639,25.9882 C12.6659,25.9882 13.5619,25.0962 13.5639,23.9922 L13.5759,17.3972 L20.9889,13.0842 L20.9839,17.3412 C20.9839,18.4462 21.8769,19.3432 22.9819,19.3442 L22.9839,19.3442 C24.0879,19.3442 24.9839,18.4502 24.9839,17.3472 L24.9879,13.9662 L32.0299,18.0582 L12.8619,29.2112 L5.9629,25.2012 Z M11.7949,54.2642 L2.0019,48.5722 L2.0669,25.2502 L11.8599,30.9422 L11.7949,54.2642 Z M13.5939,8.1352 C13.5979,6.8712 14.2769,5.6912 15.3679,5.0562 L15.6439,4.8962 C16.7589,4.2482 18.0929,4.2462 19.2119,4.8902 C20.3329,5.5382 20.9999,6.6982 20.9959179,7.9972 L20.9919,10.7672 L13.5799,15.0802 L13.5939,8.1352 Z M31.2939,20.8022 L31.4339,20.8962 L31.5719,20.6682 L31.5499,20.6522 L32.7339,19.9632 L33.0139,20.1522 L33.0099,21.6432 L31.8039,20.8252 L31.6639,21.0542 L33.0089,21.9662 L33.0049,23.4572 L30.1089,21.4912 L31.2939,20.8022 Z M19.7649,27.5092 L20.1929,27.8012 L20.3329,27.5722 L20.0209,27.3602 L21.2059,26.6712 L22.2209,27.3602 L22.3599,27.1322 L21.4619,26.5212 L22.6469,25.8322 L24.2489,26.9202 L24.3879,26.6912 L22.9029,25.6832 L24.0879,24.9942 L26.2759,26.4792 L26.4149,26.2512 L24.3439,24.8452 L25.5289,24.1552 L28.3039,26.0392 L28.4429,25.8102 L25.7849,24.0062 L26.9699,23.3162 L30.3309,25.5982 L30.4709,25.3702 L27.2269,23.1682 L28.4109,22.4782 L32.3589,25.1592 L32.4979,24.9302 L28.6669,22.3292 L29.8529,21.6392 L33.0039,23.7792 L32.9989,25.2702 L32.7299,25.0872 L32.5899,25.3152 L32.9979,25.5932 L32.9939,27.0842 L30.7009,25.5272 L30.5629,25.7562 L32.9929,27.4062 L32.9889,28.8972 L28.6739,25.9682 L28.5349,26.1962 L32.9879,29.2202 L32.9839,30.7112 L31.6269,29.7902 L31.4879,30.0182 L32.9839,31.0332 L32.9789,32.5242 L29.5999,30.2292 L29.4609,30.4582 L32.9779,32.8472 L32.9739,34.3382 L32.5529,34.0522 L32.4139,34.2802 L32.9729,34.6602 L32.9689,36.1512 L30.5249,34.4922 L30.3859,34.7212 L32.9679,36.4732 L32.9639,37.9652 L28.5629,34.9762 C28.7369,34.5882 28.8789,34.1822 28.9749,33.7632 L30.1549,34.5632 L30.2939,34.3352 L29.0249,33.4732 C29.0869,33.1252 29.1299,32.7722 29.1299,32.4122 C29.1299,32.2862 29.1209,32.1632 29.1129,32.0402 L32.1829,34.1242 L32.3209,33.8952 L29.0809,31.6952 C28.9909,30.9742 28.7669,30.3222 28.4329,29.7612 L29.2299,30.3022 L29.3679,30.0732 L27.9979,29.1422 C27.5089,28.5692 26.8829,28.1422 26.1689,27.9002 L24.6189,26.8482 L24.4799,27.0772 L25.4379,27.7272 C25.0239,27.6662 24.5909,27.6572 24.1419,27.7202 C23.9119,27.7522 23.6929,27.8232 23.4729,27.8872 L22.5909,27.2882 L22.4519,27.5162 L23.1259,27.9742 C22.6889,28.1332 22.2829,28.3672 21.8959,28.6332 L20.5639,27.7282 L20.4249,27.9572 L21.6649,28.8002 C21.3279,29.0552 21.0139,29.3382 20.7319,29.6602 L18.5789,28.1982 L19.7649,27.5092 Z M18.4839,28.2542 L18.3979,28.3972 L20.5539,29.8622 C20.2959,30.1822 20.0769,30.5332 19.8829,30.9002 L17.1389,29.0372 L18.4839,28.2542 Z M13.7959,54.0212 L13.7999,52.5302 L15.1679,53.4602 L13.9839,54.1492 L13.7959,54.0212 Z M32.9519,41.9142 L32.9489,43.1132 L32.7169,43.2482 L32.3759,43.0162 L32.2369,43.2452 L32.4609,43.3972 L31.2759,44.0872 L30.3489,43.4572 L30.2099,43.6852 L31.0199,44.2362 L29.8349,44.9262 L28.3209,43.8972 L28.1819,44.1262 L29.5789,45.0742 L28.3939,45.7632 L26.2939,44.3382 L26.1539,44.5662 L28.1379,45.9132 L26.9529,46.6022 L24.2659,44.7782 L24.1269,45.0072 L26.6959,46.7512 L25.5119,47.4412 L22.2379,45.2192 L22.0999,45.4472 L25.2559,47.5902 L24.0709,48.2792 L20.2109,45.6582 L20.0709,45.8872 L23.8149,48.4292 L22.6299,49.1182 L18.1839,46.0982 L18.0439,46.3272 L22.3739,49.2662 L21.1889,49.9562 L21.1369,49.9212 L21.0739,50.0232 L19.7479,50.7952 L19.1089,50.3612 L18.9699,50.5902 L19.4909,50.9442 L18.3069,51.6342 L17.0809,50.8022 L16.9419,51.0302 L18.0509,51.7822 L16.8649,52.4722 L15.0539,51.2422 L14.9149,51.4712 L16.6089,52.6212 L15.4249,53.3102 L13.8009,52.2082 L13.8049,50.7172 L14.6839,51.3132 L14.8219,51.0852 L13.8059,50.3942 L13.8099,48.9032 L16.7109,50.8732 L16.8509,50.6442 L13.8109,48.5812 L13.8159,46.9562 L13.8979,46.8222 L13.8169,46.7672 L13.8199,45.2762 L15.7849,46.6112 L15.9249,46.3832 L13.8209,44.9542 L13.8249,43.4632 L17.8139,46.1712 L17.9519,45.9422 L13.8259,43.1402 L13.8299,41.6492 L14.8599,42.3482 L14.9989,42.1202 L13.8309,41.3272 L13.8359,39.8362 L16.8879,41.9082 L17.0259,41.6802 L13.8369,39.5142 L13.8409,38.0222 L13.9349,38.0862 L14.0729,37.8572 L13.8419,37.7002 L13.8459,36.2092 L15.9619,37.6452 L16.1009,37.4172 L13.8469,35.8872 L13.8509,34.3952 L17.9889,37.2062 L18.1289,36.9772 L13.8519,34.0732 L13.8569,32.5822 L15.0359,33.3842 L15.1759,33.1552 L13.8579,32.2602 L13.8599,30.9442 L13.9999,30.8632 L17.0639,32.9432 L17.2029,32.7152 L14.2559,30.7142 L15.4419,30.0242 L19.0919,32.5032 L19.2309,32.2742 L15.6969,29.8762 L16.8819,29.1862 L19.7669,31.1442 C19.3719,31.9712 19.1269,32.8762 19.1249,33.8182 C19.1249,33.8892 19.1349,33.9572 19.1369,34.0282 L17.4349,32.8722 L17.2949,33.1002 L19.1559,34.3642 C19.2199,35.0442 19.4019,35.6682 19.6839,36.2162 L15.4059,33.3112 L15.2679,33.5402 L20.0089,36.7602 C20.3639,37.2662 20.8109,37.6872 21.3269,37.9952 L21.3249,39.1472 L18.3589,37.1342 L18.2209,37.3622 L21.3249,39.4702 L21.3219,40.9622 L21.3129,40.9562 L21.1739,41.1842 L21.3209,41.2852 L21.3179,42.7772 L19.2849,41.3962 L19.1469,41.6252 L21.3179,43.0992 L21.3159,44.5922 L17.2579,41.8372 L17.1179,42.0652 L21.3149,44.9142 L21.3139,45.8192 L23.3549,44.4822 L23.8959,44.8492 L24.0349,44.6212 L23.5969,44.3242 L24.7169,43.5912 L25.9239,44.4092 L26.0629,44.1802 L24.9589,43.4312 L26.0789,42.6982 L27.9509,43.9692 L28.0899,43.7402 L26.3209,42.5402 L26.9089,42.1552 L26.9109,41.4462 L29.9789,43.5282 L30.1169,43.3002 L26.9109,41.1242 L26.9139,39.6322 L27.0249,39.7072 L27.1639,39.4782 L26.9149,39.3082 L26.9179,37.8162 L29.0529,39.2662 L29.1919,39.0382 L26.9179,37.4942 L26.9189,37.2092 C27.1719,36.9882 27.4029,36.7382 27.6199,36.4762 L31.0809,38.8262 L31.2199,38.5972 L27.7929,36.2702 C28.0419,35.9442 28.2589,35.5912 28.4449,35.2202 L32.9629,38.2872 L32.9589,39.7782 L31.4499,38.7552 L31.3119,38.9832 L32.9579,40.1002 L32.9529,41.5922 L29.4229,39.1952 L29.2839,39.4242 L32.9519,41.9142 Z M35.0199,18.0582 C35.0199,17.9992 35.0069,17.9422 34.9969,17.8862 C34.9909,17.8562 34.9929,17.8272 34.9849,17.7992 C34.9709,17.7442 34.9439,17.6942 34.9209,17.6422 C34.8479,17.4842 34.7349,17.3482 34.5899,17.2462 C34.5669,17.2292 34.5479,17.2092 34.5229,17.1942 L34.5209,17.1932 C34.5209,17.1932 34.5209,17.1922 34.5199,17.1922 C34.5189,17.1922 34.5189,17.1922 34.5189,17.1912 L24.9909,11.6542 L24.9959,8.0062 C25.0039,5.2592 23.5889,2.7992 21.2109,1.4262 C18.8359,0.0552 16.0029,0.0592 13.6319,1.4392 L13.3569,1.5992 C11.0439,2.9452 9.6019,5.4442 9.5939,8.1252 L9.5759,17.4102 L0.5689,22.6502 C0.5179,22.6802 0.4739,22.7212 0.4289,22.7592 C0.4079,22.7762 0.3839,22.7902 0.3639,22.8082 C0.3309,22.8422 0.3079,22.8822 0.2789,22.9202 C0.2549,22.9512 0.2269,22.9802 0.2069,23.0142 C0.1889,23.0462 0.1799,23.0822 0.1649,23.1152 C0.1449,23.1612 0.1199,23.2052 0.1079,23.2532 C0.0959,23.2952 0.0959,23.3402 0.0899,23.3832 C0.0839,23.4262 0.0719,23.4682 0.0719,23.5122 L-0.000103928012,49.1432 C-0.0011,49.5012 0.1889,49.8312 0.4969,50.0112 L12.2869,56.8642 L12.2879,56.8642 C12.2889,56.8652 12.2889,56.8662 12.2899,56.8662 C12.3349,56.8922 12.3849,56.9062 12.4329,56.9252 C12.4669,56.9382 12.4989,56.9572 12.5329,56.9672 C12.6169,56.9892 12.7039,57.0002 12.7899,57.0002 C12.8759,57.0002 12.9629,56.9892 13.0469,56.9672 C13.0879,56.9552 13.1269,56.9332 13.1669,56.9172 C13.2069,56.9002 13.2489,56.8892 13.2869,56.8672 C13.2879,56.8672 13.2879,56.8662 13.2879,56.8662 C13.2899,56.8652 13.2919,56.8652 13.2929,56.8642 L34.4499,44.5542 C34.7569,44.3752 34.9459,44.0472 34.9469,43.6922 L35.0199,18.0612 L35.0199,18.0592 L35.0199,18.0582 Z" id="Fill-1" fill="#00263E" mask="url(#mask-2)"></path>
            </g>
            <polygon id="Fill-4" fill="#00263E" points="31.3965 30.2314 26.6465 27.0064 26.5065 27.2354 31.2565 30.4604"></polygon>
            <polygon id="Fill-6" fill="#00263E" points="27.2568 40.4619 32.0058 43.6879 32.1458 43.4589 27.3958 40.2329"></polygon>
            <polygon id="Fill-8" fill="#00263E" points="21.082 41.3974 16.332 38.1724 16.193 38.4014 20.942 41.6264"></polygon>
            <polygon id="Fill-10" fill="#00263E" points="19.0537 41.8379 14.3047 38.6129 14.1647 38.8419 18.9147 42.0669"></polygon>
            <polygon id="Fill-12" fill="#00263E" points="15.0908 43.1045 19.8408 46.3295 19.9798 46.1005 15.2308 42.8755"></polygon>
            <polygon id="Fill-14" fill="#00263E" points="16.0166 47.3662 20.7666 50.5912 20.9056 50.3622 16.1556 47.1372"></polygon>
            <polygon id="Fill-16" fill="#00263E" points="13.9893 47.8066 18.7383 51.0316 18.8783 50.8026 14.1283 47.5776"></polygon>
        </g>
    </g>
</svg>